<?xml version="1.0" encoding="utf-8"?>
<!-- Generator: Adobe Illustrator 23.0.3, SVG Export Plug-In . SVG Version: 6.00 Build 0)  -->
<svg version="1.1" id="logosvg.com_1_" xmlns="http://www.w3.org/2000/svg" xmlns:xlink="http://www.w3.org/1999/xlink" x="0px"
	 y="0px" viewBox="0 0 400 300" style="enable-background:new 0 0 400 300;" xml:space="preserve">
<path id="logosvg.com" d="M60.9,102.7H63c0.4,11.2-8.8,22.7-20.5,22.5C42.4,114.4,50.4,104.7,60.9,102.7z M321.6,108.4
	c4.9-3.2,12,1.7,11,7.4c-0.2,4.1-4.1,6.2-7.6,7.1c-1.9-0.8-4.1-1.3-5.4-3C316.2,116.7,317.4,110.3,321.6,108.4z M95.5,109
	c5.2,0,10.3,0,15.5,0c9.7,23.2,19.1,46.6,28.6,70c9.8-23.2,19-46.7,28.7-69.9c5.2,0,10.4,0,15.5,0c0.1,29,0,57.9,0,86.9
	c-4.1,0-8.2,0-12.2,0.1c-0.2-21.2,0.2-42.4-0.2-63.5c-0.9,1.6-1.7,3.3-2.5,5c-7.9,19.5-16,38.9-24,58.4c-3.5,0-7,0.1-10.5-0.2
	c-8.4-21.4-17.5-42.4-26-63.7c-0.5,21.3-0.1,42.5-0.2,63.8c-4.2,0.1-8.4,0.1-12.7,0.1C95.5,166.9,95.4,137.9,95.5,109z M24.2,125.5
	c6.8-1.2,12.8,2.9,19.3,4c6.1-1.3,11.9-4.9,18.3-4.3c7.2-0.2,13.9,3.6,18.4,9c-6.9,4.5-11.9,12.4-10.4,20.9
	c0.5,7.8,6.5,13.7,13,17.2c-3.5,8.8-8.3,17.9-16.3,23.4c-8,5.1-16.1-4.1-24.5-2c-4.2,0.8-8,2.6-12.2,3.7h-3.3
	c-2.7-1.1-5.3-2.6-7.4-4.7c-9.2-9.5-15-22.2-16.5-35.3v-7C3.4,138.6,12.1,127.1,24.2,125.5z M267.6,136.1c9.4-5.8,21.9-6,31.6-1
	c6,3.2,9.7,9.6,10,16.4c-4,0-8,0-12,0c-1.1-2.4-1.7-5.1-3.7-6.9c-3.6-3.2-8.8-3.6-13.3-2.7c-3.8,0.9-8.1,3.8-7.6,8.2
	c-0.4,3.5,2.7,5.8,5.6,6.8c7.2,2.6,15,3.1,22,6c3.9,1.6,7.6,4.2,9.2,8.2c3.3,7.1,0.4,16-5.7,20.6c-4.2,3.2-9.4,4.9-14.6,5.6h-9.5
	c-6-1.1-12.2-3.2-16.4-7.9c-3.2-3.2-4.3-7.7-5.2-12c4.3,0,8.6,0.1,12.9,0.4c1.5,3.8,3.8,7.8,8,8.8c5.5,1.2,12.5,1.5,16.8-2.8
	c3.2-3.1,2.4-8.9-1.7-10.9c-9.6-4.5-21.7-3.3-29.8-11C256.7,154.8,259,141.4,267.6,136.1z M353.1,135.9c9.3-5.6,21.6-5.9,31.2-0.9
	c7.3,3.8,12,11.4,12.9,19.5c-4.1,0.1-8.2,0.1-12.3,0.1c-1.4-3.2-2.6-6.9-5.6-9.1c-4.2-3.3-10-3.6-15-2.3c-6.3,2-9.9,8.5-11,14.7
	c-1,7.6-0.8,16.2,4,22.5c4.9,6.8,15.4,7.8,22,3c3-2.1,4.1-5.7,5.5-8.9c4.1,0,8.2,0,12.3,0.1c-0.8,12.5-12.2,21.8-24.2,22.7h-6.9
	c-7-0.9-14.1-3.8-18.8-9.2c-5.9-6.8-8.1-16.1-7.7-25C339.6,152.7,344,141.6,353.1,135.9z M195.6,132.6c4.3,0,8.7,0,13,0
	c0.4,14.2-0.4,28.3,0.4,42.5c0.5,10.9,15.2,14.2,22.7,8c4-3.2,5.8-8.4,5.7-13.4c0.1-12.4-0.1-24.7,0.1-37.1c4.4,0,8.7,0,13.1,0
	c0,21.2,0.1,42.4,0,63.7c-4.2,0-8.5-0.1-12.7-0.5c0-3.4,0-6.9,0-10.3c-3.3,6.6-9.7,11.4-17.2,11.9H215c-5.7-0.8-11.5-3.3-14.9-8.2
	c-3.6-4.8-4.6-11-4.5-16.8C195.6,159.1,195.6,145.9,195.6,132.6z M318.7,132.6c4.1,0,8.3,0,12.4-0.1c0.4,1.9,0.7,3.7,0.7,5.6
	c-0.1,19.2,0,38.4-0.1,57.7c-4.4,0.1-8.7,0.1-13.1,0.1C318.6,174.8,318.5,153.7,318.7,132.6z"/>
</svg>
