<?xml version="1.0" encoding="utf-8"?>
<!-- Generator: Adobe Illustrator 23.0.3, SVG Export Plug-In . SVG Version: 6.00 Build 0)  -->
<svg version="1.1" id="logosvg.com" xmlns="http://www.w3.org/2000/svg" xmlns:xlink="http://www.w3.org/1999/xlink" x="0px"
	 y="0px" viewBox="0 0 400 300" style="enable-background:new 0 0 400 300;" xml:space="preserve">
<style type="text/css">
	.st0{fill:#005385;}
	.st1{fill:#FF7021;}
</style>
<path id="blue" class="st0" d="M74.5,155c0.2-4.1,2.2-7.7,5.2-10.2l0,0c3-2.5,6.9-4,11.2-4l0,0c4.3,0,8.3,1.5,11.2,4l0,0
	c3,2.5,5,6.1,5.2,10.2c0.2,4.2-1.4,8.1-4.4,10.9l0,0c-3,2.9-7.3,4.8-12.1,4.8l0,0c-4.8,0-9.1-1.8-12.1-4.8l0,0
	C76,163,74.3,159.2,74.5,155z M335.7,154.9c0.4-4.1,3.5-6.7,8.4-6.7c4.9,0,8,2.6,8.4,6.7H335.7z M352,165.1c-1.2,3-4.2,4.9-8.1,4.9
	c-5,0-8.3-3.1-8.5-8H364c0-0.5,0-0.9,0-1.4c0-12.3-7.2-19.2-20.2-19.2c-12.6,0-20.2,7-20.2,17.9c0,11,7.7,18,20.2,18
	c7.5,0,13.3-2.6,16.8-7.1L352,165.1z M208.7,154.9c0.4-4.1,3.5-6.7,8.4-6.7c4.8,0,8,2.6,8.4,6.7H208.7z M225,165.1
	c-1.2,3-4.2,4.8-8.1,4.8c-5,0-8.3-3.1-8.5-8H237c0-0.5,0-0.9,0-1.4c0-12.3-7.2-19.2-20.1-19.2c-12.6,0-20.2,7-20.2,17.9
	c0,11,7.7,18,20.2,18c7.5,0,13.3-2.6,16.8-7.1L225,165.1z M183.8,133.8h10.3V176h-10.3V133.8z M239.6,145h10.4v2.5
	c3.7-3.9,8.1-5.9,13.1-5.9c5.7,0,10.1,2,12.3,5.4c1.9,2.8,2,6.2,2,10.6V176h-10.4v-16.2c0-6.7-1.4-9.8-7.3-9.8c-6,0-9.7,3.6-9.7,9.5
	V176h-10.4V145z M310.7,159.7c0,5.8-3.9,9.6-9.8,9.6c-6,0-9.8-3.7-9.8-9.5c0-5.9,3.8-9.6,9.8-9.6
	C306.9,150.1,310.7,153.9,310.7,159.7z M310.7,146.4c-2.6-2.8-6.4-4.4-11.7-4.4c-11.4,0-19.2,7-19.2,17.5c0,10.3,7.7,17.5,19,17.5
	c5.2,0,9-1.3,11.9-4.2v3.1h10.4v-44.9l-10.4,2.7V146.4z M160.2,150.1c6,0,9.8,3.7,9.8,9.6c0,5.8-3.9,9.5-9.8,9.5
	c-6,0-9.8-3.8-9.8-9.6C150.4,153.9,154.3,150.1,160.2,150.1z M150.4,133.8l-10.4-2.7V176h10.4v-3.1c2.9,2.9,6.7,4.2,11.9,4.2
	c11.3,0,19-7.2,19-17.5c0-10.5-7.8-17.5-19.2-17.5c-5.3,0-9.1,1.5-11.7,4.4V133.8z M366.6,176v-31h10.4v1.9
	c3.1-3.7,6.4-5.6,10.1-5.6c0.7,0,1.7,0.1,2.9,0.2v8.8c-1-0.1-2.1-0.1-3.3-0.1c-6,0-9.8,4-9.8,10.8v15H366.6z"/>
<path id="orange" class="st1" d="M48.3,163.2c0,1.6,0.5,4.7,1.3,7.1l0,0c1.6,5.1,4.3,9.8,8.1,14l0,0c3.9,4.3,8.7,7.7,14.2,10.2l0,0
	c5.8,2.6,12.1,3.9,18.6,3.9l0,0c6.5,0,12.8-1.3,18.6-3.9l0,0c5.5-2.5,10.3-5.9,14.2-10.2l0,0c3.8-4.2,6.5-8.9,8.1-14l0,0
	c0.8-2.6,1.3-5.2,1.5-7.8l0,0c0.2-2.6,0.1-5.2-0.3-7.8l0,0c-0.7-5.1-2.5-9.8-5.2-14.1c-2.5-4-5.6-7.5-9.4-10.4l0,0l0,0l0,0
	l-38.1-29.3l0,0c0,0-0.1-0.1-0.1-0.1l0,0c-2.5-1.9-6.7-1.9-9.5,0l0,0c-2.8,1.9-3.1,5.2-0.6,7.2l0,0l0,0l0,0l15.9,12.9l-48.5,0.1l0,0
	c0,0,0,0-0.1,0l0,0c-4,0-7.9,2.6-8.6,6l0,0c-0.8,3.4,1.9,6.2,6.1,6.2l0,0l0,0l0,0l24.6,0l-43.8,33.6l0,0c-0.1,0-0.1,0.1-0.2,0.1l0,0
	c-4.1,3.2-5.5,8.4-2.9,11.8l0,0c2.6,3.4,8.3,3.4,12.4,0l0,0L48.6,159C48.6,159,48.3,161.6,48.3,163.2z M109.7,172.1
	c-4.9,5-11.8,7.9-19.3,7.9l0,0c-7.5,0-14.4-2.8-19.3-7.8l0,0c-2.4-2.4-4.2-5.3-5.3-8.2l0,0c-1.1-2.9-1.5-6.1-1.2-9.2l0,0
	c0.3-3.1,1.2-6,2.6-8.7l0,0c1.4-2.6,3.4-5,5.9-7l0,0c4.8-3.9,10.9-6,17.3-6l0,0c6.4,0,12.5,2.1,17.3,6l0,0c2.4,2,4.4,4.3,5.9,6.9
	l0,0c1.5,2.7,2.4,5.6,2.6,8.7l0,0c0.3,3.1-0.1,6.3-1.2,9.2l0,0C113.9,166.8,112.2,169.6,109.7,172.1z"/>
</svg>
