<?xml version="1.0" encoding="utf-8"?>
<!-- Generator: Adobe Illustrator 23.0.3, SVG Export Plug-In . SVG Version: 6.00 Build 0)  -->
<svg version="1.1" id="logosvg.com" xmlns="http://www.w3.org/2000/svg" xmlns:xlink="http://www.w3.org/1999/xlink" x="0px"
	 y="0px" viewBox="0 0 400 300" style="enable-background:new 0 0 400 300;" xml:space="preserve">
<style type="text/css">
	.st0{fill:#6F6F6F;}
	.st1{fill:#0066B1;}
</style>
<path id="grey" class="st0" d="M200,9.8C122.5,9.8,59.8,72.5,59.8,150S122.5,290.2,200,290.2S340.2,227.5,340.2,150
	S277.5,9.8,200,9.8z M331.1,150c0,72.4-58.7,131.1-131.1,131.1S68.9,222.4,68.9,150S127.6,18.9,200,18.9S331.1,77.6,331.1,150z
	 M200,66.9v4.6c43.3,0,78.6,35.2,78.6,78.6h4.6C283.1,104.1,245.9,66.9,200,66.9 M200,228.6c-43.3,0-78.6-35.2-78.6-78.6h-4.6
	c0,45.9,37.2,83.1,83.1,83.1 M267.2,90.8c1.9,2,4.6,5.3,6.2,7.3l28.4-17.9c-1.4-1.8-3.7-4.6-5.4-6.6l-18,11.8l-1.2,1l0.9-1.3
	l7.9-15.7l-5.6-5.6l-15.8,7.9l-1.3,0.9l1.1-1.2l11.9-17.8c-2.1-1.8-4.1-3.4-6.7-5.4l-18,28.2c2.3,1.7,5.3,4.3,7.2,6l17-8.7l1.1-0.8
	l-0.8,1.1L267.2,90.8z M202.8,55.1l7.8-17.2l0.5-1.5l-0.1,1.6l0.8,23c2.7,0.3,5.5,0.6,8.3,1.1L218.7,28c-3.9-0.4-7.7-0.7-11.6-0.9
	l-7.6,18.8l-0.3,1.4l-0.3-1.4l-7.6-18.8c-3.9,0.2-7.7,0.5-11.6,0.9l-1.3,34.1c2.8-0.5,5.6-0.8,8.3-1.1l0.8-23l-0.1-1.6l0.5,1.5
	l7.8,17.2H202.8z M140.1,82.3c4.5-4.7,7-10.1,2.5-15.3c-2.4-2.8-6.5-3.4-9.9-2l-0.3,0.1l0.1-0.3c0.5-1.3,0.8-5.6-2.8-8.5
	c-1.8-1.4-4-2-6.3-1.7c-4.2,0.4-7.4,3.3-16.3,13c-2.7,2.9-6.5,7.6-8.9,10.6l24.2,22.8C130.5,92.2,133.7,89,140.1,82.3z M108.5,76.8
	c4.9-5.9,10.1-11.3,12.4-13.4c0.7-0.7,1.5-1.3,2.5-1.6c1.6-0.4,3.2,0.7,3.6,2.3c0.4,1.6-0.7,3.2-1.8,4.5c-2.6,2.9-12,12.7-12,12.7
	L108.5,76.8z M118,85.7c0,0,9.2-9.7,12.2-12.8c1.2-1.2,2-2,2.8-2.4c1.1-0.5,2.2-0.6,3.3,0.1c1,0.7,1.5,1.8,1.2,3
	c-0.3,1.4-1.4,2.7-2.4,3.7c-1.3,1.3-12.2,13-12.2,13L118,85.7z"/>
<path id="blue" class="st1" d="M200,66.9V150h-83.1C116.9,104.1,154.1,66.9,200,66.9z M283.1,150c0,45.9-37.2,83.1-83.1,83.1V150
	H283.1z"/>
</svg>
