<?xml version="1.0" encoding="utf-8"?>
<!-- Generator: Adobe Illustrator 23.0.3, SVG Export Plug-In . SVG Version: 6.00 Build 0)  -->
<svg version="1.1" id="logosvg.com" xmlns="http://www.w3.org/2000/svg" xmlns:xlink="http://www.w3.org/1999/xlink" x="0px"
	 y="0px" viewBox="0 0 400 300" style="enable-background:new 0 0 400 300;" xml:space="preserve">
<style type="text/css">
	.st0{fill-rule:evenodd;clip-rule:evenodd;fill:#FF8200;}
	.st1{fill-rule:evenodd;clip-rule:evenodd;fill:#43B02A;}
	.st2{fill:#43B02A;}
</style>
<g id="Carrot">
	<path id="Carrot_2_" class="st0" d="M52.9,142.3c4.6,4.6,8.3,12.1,6.2,16.6c-5.7,12-48.5,33-52.1,29.3
		c-3.6-3.6,17.4-46.4,29.3-52.1C40.7,134,48.3,137.7,52.9,142.3C52.9,142.3,52.9,142.3,52.9,142.3L52.9,142.3L52.9,142.3z"/>
	<path id="Carrot_1_" class="st1" d="M75.5,137.3C75.5,137.3,75.5,137.3,75.5,137.3c-0.7-2.8-2.6-5.5-5.5-5.9
		c-5.2-0.6-13.4,8.6-12.8,10.8c0.6,2.2,12.2,6,16.5,2.9C75.9,143.5,76.3,140,75.5,137.3L75.5,137.3L75.5,137.3L75.5,137.3z
		 M59.4,111.8c3.9,1,7.8,3.7,8.2,7.7c0.8,7.3-12,18.8-15.1,17.9c-3.1-0.8-8.4-17-4.1-23.1C50.7,111.2,55.6,110.8,59.4,111.8
		C59.4,111.8,59.4,111.8,59.4,111.8L59.4,111.8L59.4,111.8z"/>
</g>
<path id="text" transform="translate(29.322767, 4.466859)" class="st2" d="M145.2,150.5l-3.8-0.6c-3.6-0.5-5.8-1.7-5.8-3.9
	c0-2.5,2.7-4,6.8-4c2.9,0,5.2,1.1,7.4,2.2l0.4,0.2c0.5,0.3,1.1,0.4,1.6,0.4c1.3,0,2.6-0.7,3.2-1.9l0.3-0.6c0.5-0.9,0.6-1.9,0.3-2.9
	c-0.3-1-1-1.8-1.9-2.2c-3.3-1.6-6.8-3.1-11.5-3.1c-9.7,0-16,4.7-16,12.3c0,6.2,4.5,10.1,12.9,11.3l3.9,0.5c4.1,0.6,6.1,1.8,6.1,3.7
	c0,1.8-1,4.1-7.3,4.1c-3.5,0-7-0.9-9.9-2.7c-0.6-0.4-1.2-0.6-1.9-0.6c-1.3,0-2.5,0.7-3.1,1.7l-0.2,0.3c-0.5,0.9-0.7,1.9-0.4,2.9
	c0.3,1,0.9,1.8,1.8,2.3c5,2.8,10.8,3.8,13.8,3.8c10.1,0,16.4-4.4,16.4-12.3C158.4,155.3,153.9,151.7,145.2,150.5L145.2,150.5z
	 M263.1,164.1c-0.7-0.8-1.8-1.3-2.9-1.3c-0.7,0-1.5,0.2-2.1,0.6c-2.1,1.3-4.3,2-6.5,2c-6.1,0-10.5-4.8-10.5-11.4s4.4-11.4,10.5-11.4
	c2.3,0,4.4,0.6,6.4,1.9c1.5,1,3.7,0.8,5-0.6l0.3-0.3c0.9-0.9,1.3-2.2,1.1-3.4c-0.1-1.2-0.8-2.3-1.8-3c-3-2-6.7-3-10.7-3
	c-11.7,0-19.9,8.2-19.9,19.9c0,11.7,8.2,19.9,19.9,19.9c4.1,0,7.8-1.1,10.8-3.1c1-0.7,1.7-1.8,1.8-3c0.2-1.2-0.2-2.4-1.1-3.4
	L263.1,164.1L263.1,164.1z M73.8,120.7c-3,0-5.4,2.4-5.4,5.5c0,3.1,2.3,5.4,5.4,5.4c3.1,0,5.5-2.4,5.5-5.4
	C79.3,123.1,76.9,120.7,73.8,120.7L73.8,120.7z M75.4,134.5h-3.2c-1.6,0-2.8,1.3-2.8,2.8v32.8c0,1.6,1.3,2.8,2.8,2.8h3.2
	c1.6,0,2.8-1.3,2.8-2.8v-32.8C78.3,135.7,77,134.5,75.4,134.5L75.4,134.5z M180.6,165.3c-3.6,0-7.8-2.8-7.8-7.8v-14.8h7.8
	c1.6,0,2.8-1.3,2.8-2.8v-2.6c0-1.6-1.3-2.8-2.8-2.8h-7.8v-8.5c0-1.6-1.3-2.8-2.8-2.8h-3.4c-1.6,0-2.8,1.3-2.8,2.8V157
	c0,8.9,6.8,16.8,16.2,16.8h0c0.9,0,1.8-0.4,2.5-1c0.7-0.7,1-1.6,1-2.5l0-2.2C183.5,166.6,182.2,165.3,180.6,165.3L180.6,165.3z
	 M103,134.2c-11.4,0-17.7,9.1-17.7,16.9v19.1c0,1.6,1.3,2.8,2.8,2.8h3.2c1.6,0,2.8-1.3,2.8-2.8v-17.6c0-5.9,3.6-9.8,8.8-9.8
	s8.8,3.9,8.8,9.8v17.6c0,1.6,1.3,2.8,2.8,2.8h3.2c1.6,0,2.8-1.3,2.8-2.8V151C120.7,143.2,114.3,134.2,103,134.2L103,134.2z
	 M336.9,134.5c-1.2-0.3-4.3-0.4-5.9-0.4c-0.1,0-0.3,0-0.4,0c-8.8,0-16.9,7.2-16.9,17.1c0,0,0,0,0,0v0.2v18.6c0,1.6,1.3,2.8,2.8,2.8
	h3.2c1.6,0,2.8-1.3,2.8-2.8v-18.5c0-5.4,3.8-8.9,8.6-8.9c0.9,0,1.8,0.1,2.7,0.3c0.2,0,0.5,0.1,0.7,0.1c1.8,0,3.4-1.2,3.8-3
	c0.2-1,0.4-1.7,0.6-2.3c0.2-0.7,0.1-1.4-0.3-2C338.2,135.1,337.6,134.7,336.9,134.5L336.9,134.5z M360.7,142.8
	c1.6,0,2.8-1.3,2.8-2.8v-2.6c0-1.6-1.3-2.8-2.8-2.8h-7.8v-8.5c0-1.6-1.3-2.8-2.8-2.8h-3.4c-1.6,0-2.8,1.3-2.8,2.8V157
	c0,8.9,6.8,16.8,16.2,16.8h0c0.9,0,1.8-0.4,2.5-1c0.7-0.7,1-1.6,1-2.5v-2.2c0-1.6-1.3-2.8-2.9-2.8c-3.6,0-7.8-2.8-7.8-7.8v-14.8
	H360.7L360.7,142.8z M298.8,137.2C298.8,137.2,298.8,137.2,298.8,137.2c-3-2-6.7-3-10.8-3c-0.1,0-0.1,0-0.2,0c-0.1,0-0.1,0-0.2,0
	c-4,0-7.8,1.1-10.7,3c0,0,0,0,0,0c-5.4,3.4-8.7,9.4-8.7,16.8c0,7.8,3.6,14,9.5,17.3c2.7,1.6,6,2.6,9.5,2.6c6.4,0,10.2-3.6,11.5-5.2
	v1.4c0,1.6,1.3,2.8,2.8,2.8h3.2c1.6,0,2.8-1.3,2.8-2.8v-16C307.5,146.6,304.2,140.6,298.8,137.2L298.8,137.2z M291.4,164.9
	c-1,0.3-2.1,0.5-3.1,0.6c-0.1,0-0.2,0-0.2,0c-0.1,0-0.1,0-0.2,0c-0.1,0-0.1,0-0.2,0c-0.1,0-0.2,0-0.2,0c-1.1,0-2.1-0.2-3.1-0.6
	c-4.2-1.5-7-5.6-7-10.9c0-6.2,3.9-10.8,9.4-11.4c0,0,0.1,0,0.1,0c0.1,0,0.2,0,0.4,0c0.1,0,0.1,0,0.2,0c0.1,0,0.2,0,0.4,0
	c0,0,0.1,0,0.1,0c0,0,0.1,0,0.1,0c0.1,0,0.2,0,0.4,0c0.1,0,0.1,0,0.2,0c0.1,0,0.3,0,0.4,0c0,0,0.1,0,0.1,0c5.5,0.6,9.4,5.2,9.4,11.4
	C298.4,159.3,295.6,163.4,291.4,164.9L291.4,164.9z M217.9,137.2C217.9,137.2,217.9,137.2,217.9,137.2c-3-2-6.7-3-10.8-3
	c-0.1,0-0.1,0-0.2,0c-0.1,0-0.1,0-0.2,0c-4,0-7.8,1.1-10.7,3c0,0,0,0,0,0c-5.4,3.4-8.7,9.4-8.7,16.8c0,7.8,3.6,14,9.5,17.3
	c2.7,1.6,6,2.6,9.5,2.6c6.4,0,10.2-3.6,11.5-5.2v1.4c0,1.6,1.3,2.8,2.8,2.8h3.2c1.6,0,2.8-1.3,2.8-2.8v-16
	C226.6,146.6,223.3,140.6,217.9,137.2L217.9,137.2z M210.5,164.9c-1,0.3-2.1,0.5-3.1,0.6c-0.1,0-0.2,0-0.2,0c-0.1,0-0.1,0-0.2,0
	c-0.1,0-0.1,0-0.2,0c-0.1,0-0.2,0-0.2,0c-1.1,0-2.1-0.2-3.1-0.6c-4.2-1.5-7-5.6-7-10.9c0-6.2,3.9-10.8,9.4-11.4c0,0,0.1,0,0.1,0
	c0.1,0,0.2,0,0.4,0c0.1,0,0.1,0,0.2,0c0.1,0,0.2,0,0.4,0c0,0,0.1,0,0.1,0c0,0,0.1,0,0.1,0c0.1,0,0.2,0,0.4,0c0.1,0,0.1,0,0.2,0
	c0.1,0,0.3,0,0.4,0c0,0,0.1,0,0.1,0c5.5,0.6,9.4,5.2,9.4,11.4C217.5,159.3,214.7,163.4,210.5,164.9L210.5,164.9z"/>
</svg>
