<?xml version="1.0" encoding="utf-8"?>
<!-- Generator: Adobe Illustrator 23.0.3, SVG Export Plug-In . SVG Version: 6.00 Build 0)  -->
<svg version="1.1" id="logosvg.com" xmlns="http://www.w3.org/2000/svg" xmlns:xlink="http://www.w3.org/1999/xlink" x="0px"
	 y="0px" viewBox="0 0 400 300" style="enable-background:new 0 0 400 300;" xml:space="preserve">
<style type="text/css">
	.st0{fill:#E60012;}
	.st1{fill:#FFFFFF;}
</style>
<path id="red" class="st0" d="M14.6,77.8h370.7v144.5H14.6V77.8z"/>
<path id="white" class="st1" d="M256.3,176.1h6.7v-30h-6.7V176.1z M221.5,127.3l7.9,10.6h3.1V122h-3.2v10.5l-7.8-10.4h-3.2V138h3.2
	V127.3z M257.3,122h-13.5v3.4h5.1v12.5h3.4v-12.5h5V122z M236.6,167.8l-6.4-21.8h-5.3l-6.3,21.7l-5.8-21.7h-6.5l8.5,30h7.2l5.6-19.8
	l5.6,19.8h7.2l8.5-30h-6.5L236.6,167.8z M101.7,213.6h19.6c18,0,32.6-14.6,32.6-32.6v-62c0-18-14.6-32.6-32.6-32.6h-19.7
	c-0.5,0-0.8,0.4-0.8,0.8v125.5C100.8,213.2,101.2,213.6,101.7,213.6L101.7,213.6z M125.9,143.5c7.1,0,12.9,5.8,12.9,12.9
	c0,7.1-5.8,12.9-12.9,12.9s-12.9-5.8-12.9-12.9C113.1,149.3,118.8,143.5,125.9,143.5z M206.3,122h-3.5v15.9h3.5V122z M179.7,127.3
	l7.9,10.6h3.1V122h-3.2v10.5l-7.8-10.4h-3.2V138h3.2V127.3z M189.1,157.9h-0.2c-3.7-0.6-6.8-1.2-7.1-3.3c0-0.3,0-1,0.5-1.7
	c1-1.2,3.3-1.7,6.7-1.7c3.9,0,7.8,1.5,9.2,2.1l2.1-5.2c-1.5-0.6-6.3-2.3-11.6-2.3c-6.5,0-13.4,3.2-13.4,9c0,4.7,3.3,7.2,11.9,8.7
	c6.1,1,9.4,1.6,9.3,4.2c-0.1,1.4-1.2,3.8-8,3.8c-5.5,0-9.4-2-10.7-2.8l-2.8,5.1c1.5,0.8,6.6,3.2,13.1,3.2c9.5,0,14.6-3.3,14.6-9.6
	C202.8,162.9,200.6,159.9,189.1,157.9z M46.5,124.6c0,6.6,5.4,12,12,12s12-5.4,12-12c0-6.6-5.4-12-12-12
	C51.8,112.6,46.5,117.9,46.5,124.6z M281.3,135h-9.1v-3.7h8.4v-2.9h-8.4V125h9.1v-2.9h-12.4V138h12.4V135z M355.7,121.5
	c-4.7,0-8.5,3.8-8.5,8.5s3.8,8.5,8.5,8.5c4.7,0,8.5-3.8,8.5-8.5C364.1,125.3,360.3,121.5,355.7,121.5z M355.7,134.9
	c-2.7,0-4.9-2.2-4.9-4.9s2.2-4.9,4.9-4.9c2.7,0,4.9,2.2,4.9,4.9S358.4,134.9,355.7,134.9z M356.7,157.9h-14v-11.8h-6.2v30h6.2v-12
	h14v12h6.2v-30h-6.2V157.9z M365.4,173h1.3v3.1h0.7V173h1.2v-0.7h-3.2V173z M372.3,172.2l-1,2.8l-1-2.8h-1.1v3.8h0.7v-2.9l1,2.9h0.7
	l1-2.9v2.9h0.7v-3.8H372.3z M316.6,151.8c3.4,0,6.5,1.8,8.2,4.7l4.9-4.2c-3-4.4-7.9-7.1-13.3-7.1c-8.8,0-16,7.2-16,16s7.2,16,16,16
	c5.4,0,10.3-2.6,13.3-7.1l-4.9-4.2c-1.7,2.8-4.8,4.7-8.2,4.7c-5.2,0-9.5-4.2-9.5-9.3S311.3,151.8,316.6,151.8L316.6,151.8z
	 M270.3,152.4h9.6V176h6.5v-23.6h9.4V146h-25.4v6.4H270.3z M308.7,137.9V122h-3.2v10.5l-7.8-10.4h-3.2V138h3.2v-10.6l7.9,10.6h3.1
	V137.9z M87.1,86.4H59.3c-18,0-32.6,14.6-32.6,32.6v62c0,18,14.6,32.6,32.6,32.6h27.8c0.5,0,0.9-0.4,0.9-0.9V87.3
	C88,86.8,87.6,86.4,87.1,86.4z M77.8,203.4H59.3c-6,0-11.6-2.3-15.8-6.6c-4.2-4.2-6.6-9.8-6.6-15.8v-62c0-6,2.3-11.6,6.6-15.8
	c4.2-4.2,9.8-6.6,15.8-6.6h18.5V203.4z M328.7,122h-6.6v15.9h6.6c4.5,0,8.2-3.6,8.2-7.9C336.9,125.6,333.2,122,328.7,122z
	 M328.9,134.6h-3.5v-9.2h3.5c2.5,0,4.6,2.1,4.6,4.6S331.4,134.6,328.9,134.6L328.9,134.6z"/>
</svg>
