<?xml version="1.0" encoding="utf-8"?>
<!-- Generator: Adobe Illustrator 23.0.3, SVG Export Plug-In . SVG Version: 6.00 Build 0)  -->
<svg version="1.1" id="logosvg.com" xmlns="http://www.w3.org/2000/svg" xmlns:xlink="http://www.w3.org/1999/xlink" x="0px"
	 y="0px" viewBox="0 0 400 300" style="enable-background:new 0 0 400 300;" xml:space="preserve">
<style type="text/css">
	.st0{fill:#BF0000;}
</style>
<path id="logo" class="st0" d="M319.3,189.4H82.4l18.9,18.9L319.3,189.4z M357.3,177.4v-37.8c0-7.1,5-13,12-13c7.1,0,12,5.9,12,13
	v37.8h14.6v-37.8c0-15.6-10.6-28.1-26.2-28.1c-7.1,0-12.5,4-12.5,4v-2.6h-14.6v64.2h14.6V177.4z M308.9,111.3c-17,0-29,14.9-29,33.8
	c0,19.8,15.1,33.8,30.5,33.8c7.8,0,17.5-2.6,25.7-14.4l-13-7.6c-9.9,14.6-26.7,7.3-28.6-7.6h42C340.3,126.6,325.4,111.3,308.9,111.3
	z M321.7,136.8h-26.2C298.5,121.9,318.8,121,321.7,136.8z M275.1,162c-1.4,0.9-3.1,1.7-5,1.7c-2.4,0-6.8-1.9-6.8-7.8v-27.6h12.5
	v-15.3h-12.5V96.9h-14.6v16.1h-7.8v15.3h7.8v27.6c0,14.4,10.9,22.9,21.7,22.9c4,0,9.7-1.4,14.2-4L275.1,162z M221.3,112.9v37.8
	c0,7.1-5,13-12,13c-7.1,0-12-5.9-12-13v-37.8h-14.6v37.8c0,15.6,10.6,28.1,26.2,28.1c7.1,0,12.5-4,12.5-4v2.4h14.6v-64.2H221.3z
	 M155.2,143.2l25-30.2h-20.3l-17.7,22.4V91.7h-14.9v85.7h14.9v-26.4l21.7,26.4h20.3L155.2,143.2z M104.4,112.9v2.8
	c-4.5-2.8-8.3-4.5-13.7-4.5c-16.5,0-29.3,15.1-29.3,33.8s12.5,33.8,29.3,33.8c5.4,0,9.4-1.7,13.7-4.5v2.8h14.6v-64.2H104.4z
	 M90.5,163.5c-8.3,0-14.2-8-14.2-18.2c0-10.2,5.9-18.2,14.2-18.2s13.9,8,13.9,18.2C104.6,155.4,98.7,163.5,90.5,163.5z M19.4,177.4
	v-25H30l18.7,24.8h19.1l-22.7-30c7.1-5,11.6-13.2,11.6-22.7c0-15.3-12.5-27.6-27.6-27.6h-25v80.3h15.3V177.4z M19.4,112.2h9.9
	c6.8,0,12.5,5.7,12.5,12.5s-5.7,12.5-12.5,12.5h-9.9V112.2z"/>
</svg>
