<?xml version="1.0" encoding="utf-8"?>
<!-- Generator: Adobe Illustrator 23.0.3, SVG Export Plug-In . SVG Version: 6.00 Build 0)  -->
<svg version="1.1" id="logosvg.com_1_" xmlns="http://www.w3.org/2000/svg" xmlns:xlink="http://www.w3.org/1999/xlink" x="0px"
	 y="0px" viewBox="0 0 400 300" style="enable-background:new 0 0 400 300;" xml:space="preserve">
<style type="text/css">
	.st0{fill:#6772E5;}
</style>
<path id="logo" class="st0" d="M160.045,112.99L160.045,112.99L160.045,112.99L160.045,112.99z M160.045,112.9899L160.045,112.9899
	L160.045,112.9899L160.045,112.9899l-1.68-7.7699h-22.68v91.875h26.25v-62.265c6.195-8.085,16.695-6.6151,19.95-5.46v-24.15
	C178.525,103.96,166.2401,101.65,160.045,112.9899z M188.29,197.095h26.355V105.22H188.29V197.095z M36.565,131.8901
	L36.565,131.8901c0-4.095,3.36-5.67,8.925-5.67c7.98,0,18.06,2.415,26.0401,6.72v-24.675c-8.715-3.465-17.3251-4.83-26.0401-4.83
	c-21.315,0-35.49,11.13-35.49,29.715c0,28.98,39.9,24.36,39.9,36.855c0,4.83-4.2,6.405-10.08,6.405
	c-8.7151,0-19.845-3.57-28.6651-8.4V193c9.7651,4.2,19.635,5.985,28.6651,5.985c21.84,0,36.855-10.815,36.855-29.61
	C76.57,138.085,36.565,143.65,36.565,131.8901z M107.545,82.435l-25.62,5.46L81.82,172c0,15.54,11.655,26.985,27.195,26.985
	c8.61,0,14.91-1.575,18.375-3.465v-21.315c-3.36,1.365-19.95,6.195-19.95-9.345v-37.275h19.95V105.22h-19.95L107.545,82.435z
	 M305.2601,150.475c0,33.285-17.1151,48.405-35.91,48.405c-9.2401,0-14.805-3.885-18.585-6.6151l-0.105,29.715l-26.25,5.565v-122.43
	h23.1l1.365,6.51c3.675-3.36,10.29-8.19,20.58-8.19C287.83,103.435,305.155,120.025,305.2601,150.475z M279.325,151.21
	c0-13.755-6.615-24.465-16.17-24.465c-5.985,0-9.765,2.1-12.495,5.145l0.105,38.955c2.52,2.73,6.195,4.935,12.39,4.935
	C272.815,175.7801,279.325,165.2801,279.325,151.21z M387.79,160.8701H336.445c1.155,12.39,10.1849,15.96,20.37,15.96
	c10.395,0,18.585-2.205,25.725-5.775v21c-7.14,3.99-16.59,6.825-29.085,6.825c-25.62,0-43.47-15.96-43.47-47.5651
	c0-26.67,15.12-47.88,40.11-47.88c24.885,0,37.905,21.21,37.905,48.09C388,154.045,387.79,159.5051,387.79,160.8701z M363.22,141.55
	c0-11.865-6.825-16.8-13.23-16.8c-6.6151,0-13.86,4.935-13.86,16.8H363.22z M188.29,97.24l26.355-5.67v-21.315L188.29,75.82V97.24z"
	/>
</svg>
