<?xml version="1.0" encoding="utf-8"?>
<!-- Generator: Adobe Illustrator 23.0.3, SVG Export Plug-In . SVG Version: 6.00 Build 0)  -->
<svg version="1.1"
	 id="logosvg.com" inkscape:version="0.92.4 (5da689c313, 2019-01-14)" sodipodi:docname="A.svg" xmlns:cc="http://creativecommons.org/ns#" xmlns:dc="http://purl.org/dc/elements/1.1/" xmlns:inkscape="http://www.inkscape.org/namespaces/inkscape" xmlns:rdf="http://www.w3.org/1999/02/22-rdf-syntax-ns#" xmlns:sodipodi="http://sodipodi.sourceforge.net/DTD/sodipodi-0.dtd" xmlns:svg="http://www.w3.org/2000/svg"
	 xmlns="http://www.w3.org/2000/svg" xmlns:xlink="http://www.w3.org/1999/xlink" x="0px" y="0px" viewBox="0 0 400 300"
	 style="enable-background:new 0 0 400 300;" xml:space="preserve">
<style type="text/css">
	.st0{fill:#5F01D1;}
</style>
<path id="logosvg.com_1_" transform="translate(260.95542,41.213839)" inkscape:groupmode="layer" inkscape:label="Layer 1" class="st0" d="
	M-259.2,80.6h23.6l13.7,35.1l13.9-35.1h23l-34.6,83.2h-23.1l9.5-22L-259.2,80.6z M-161.1,79.2c-17.7,0-28.9,15.9-28.9,31.7
	c0,17.8,12.3,31.9,28.6,31.9c12.2,0,16.8-7.4,16.8-7.4v5.8h20.6V80.6h-20.6v5.5C-144.7,86.1-149.8,79.2-161.1,79.2z M-156.7,98.7
	c8.2,0,12.4,6.5,12.4,12.3c0,6.3-4.5,12.5-12.4,12.5c-6.5,0-12.4-5.3-12.4-12.2C-169.1,104.3-164.4,98.7-156.7,98.7z M-117,141.2
	V53.8h21.5v32.5c0,0,5.1-7.1,15.8-7.1c13.1,0,20.8,9.8,20.8,23.7v38.3h-21.4v-33.1c0-4.7-2.2-9.3-7.3-9.3c-5.2,0-7.9,4.6-7.9,9.3
	v33.1H-117z M-22.2,79.2c-20.3,0-32.4,15.4-32.4,32c0,18.8,14.6,31.7,32.5,31.7c17.3,0,32.4-12.3,32.4-31.4
	C10.3,90.6-5.6,79.2-22.2,79.2z M-22,98.8c7.2,0,12.1,6,12.1,12.3c0,5.4-4.6,12.1-12.1,12.1c-6.9,0-12-5.5-12-12.2
	C-34,104.7-29.8,98.8-22,98.8z M46.1,79.2c-20.3,0-32.4,15.4-32.4,32c0,18.8,14.6,31.7,32.5,31.7c17.3,0,32.4-12.3,32.4-31.4
	C78.6,90.6,62.8,79.2,46.1,79.2z M46.3,98.8c7.2,0,12.1,6,12.1,12.3c0,5.4-4.6,12.1-12.1,12.1c-6.9,0-12-5.5-12-12.2
	C34.3,104.7,38.6,98.8,46.3,98.8z M95.6,113.9c7.9,0,14.3,6.4,14.3,14.3s-6.4,14.3-14.3,14.3s-14.3-6.4-14.3-14.3
	S87.7,113.9,95.6,113.9z M114.6,108.7H88.9l22.8-54.9h25.6L114.6,108.7z"/>
</svg>
