<svg class="animated" id="freepik_stories-light-the-hanukkah-menorah" xmlns="http://www.w3.org/2000/svg" viewBox="0 0 500 500" version="1.1" xmlns:xlink="http://www.w3.org/1999/xlink" xmlns:svgjs="http://svgjs.com/svgjs"><style>svg#freepik_stories-light-the-hanukkah-menorah:not(.animated) .animable {opacity: 0;}svg#freepik_stories-light-the-hanukkah-menorah.animated #freepik--character-1--inject-162 {animation: 1s 1 forwards cubic-bezier(.36,-0.01,.5,1.38) fadeIn,1.5s Infinite  linear floating;animation-delay: 0s,1s;}            @keyframes fadeIn {                0% {                    opacity: 0;                }                100% {                    opacity: 1;                }            }                    @keyframes floating {                0% {                    opacity: 1;                    transform: translateY(0px);                }                50% {                    transform: translateY(-10px);                }                100% {                    opacity: 1;                    transform: translateY(0px);                }            }        </style><g id="freepik--background-complete--inject-162" class="animable" style="transform-origin: 250px 201.23px;"><rect x="46.11" y="315.74" width="26.48" height="11.19" style="fill: rgb(235, 235, 235); transform-origin: 59.35px 321.335px;" id="el4l9jzbva3zc" class="animable"></rect><rect x="31.34" y="329.85" width="26.48" height="11.19" style="fill: rgb(235, 235, 235); transform-origin: 44.58px 335.445px;" id="el77yoh2xqanb" class="animable"></rect><rect x="366.38" y="147.56" width="26.48" height="11.19" style="fill: rgb(235, 235, 235); transform-origin: 379.62px 153.155px;" id="elkmqyzy8xa2" class="animable"></rect><rect x="351.6" y="161.67" width="26.48" height="11.19" style="fill: rgb(235, 235, 235); transform-origin: 364.84px 167.265px;" id="elkan7n5g3czo" class="animable"></rect><rect x="336.89" y="147.56" width="26.48" height="11.19" style="fill: rgb(235, 235, 235); transform-origin: 350.13px 153.155px;" id="eljuswk5uo7z" class="animable"></rect><rect x="442.18" y="329.85" width="26.48" height="11.19" style="fill: rgb(235, 235, 235); transform-origin: 455.42px 335.445px;" id="elg3xlzqtbmbl" class="animable"></rect><rect x="427.41" y="46.74" width="26.48" height="11.19" style="fill: rgb(235, 235, 235); transform-origin: 440.65px 52.335px;" id="elri03ynjg3qg" class="animable"></rect><rect x="442.18" y="60.85" width="26.48" height="11.19" style="fill: rgb(235, 235, 235); transform-origin: 455.42px 66.445px;" id="elxv8qgb3u4f" class="animable"></rect><rect x="46.11" y="46.74" width="26.48" height="11.19" style="fill: rgb(235, 235, 235); transform-origin: 59.35px 52.335px;" id="el5so48m8l8cm" class="animable"></rect><g id="elbb2pqoihw4l"><circle cx="265.1" cy="82.66" r="18.74" style="fill: rgb(235, 235, 235); opacity: 0.19; transform-origin: 265.1px 82.66px; transform: rotate(-8.98deg);" class="animable"></circle></g><g id="elxujha7wes0l"><circle cx="265.1" cy="85.74" r="13.9" style="fill: rgb(235, 235, 235); opacity: 0.19; transform-origin: 265.1px 85.74px; transform: rotate(-62.51deg);" class="animable"></circle></g><polygon points="285.56 85.74 272.61 107.81 257.58 107.81 244.63 85.74 285.56 85.74" style="fill: rgb(235, 235, 235); transform-origin: 265.095px 96.775px;" id="elc423sig4qrv" class="animable"></polygon><polygon points="276.13 115.24 254.07 115.24 257.58 107.81 272.61 107.81 276.13 115.24" style="fill: rgb(235, 235, 235); transform-origin: 265.1px 111.525px;" id="elgzgmkc2gyra" class="animable"></polygon><polygon points="274.95 103.83 272.62 107.81 257.58 107.81 255.81 104.79 274.95 103.83" style="fill: rgb(199, 199, 199); transform-origin: 265.38px 105.82px;" id="elctcd91az7ae" class="animable"></polygon><g id="elzfjf9ejhrb9"><circle cx="328.31" cy="82.66" r="18.74" style="fill: rgb(235, 235, 235); opacity: 0.19; transform-origin: 328.31px 82.66px; transform: rotate(-81.69deg);" class="animable"></circle></g><g id="el48olbwadjvv"><circle cx="328.31" cy="85.74" r="13.9" style="fill: rgb(235, 235, 235); opacity: 0.19; transform-origin: 328.31px 85.74px; transform: rotate(-22.3deg);" class="animable"></circle></g><polygon points="348.77 85.74 335.82 107.81 320.79 107.81 307.84 85.74 348.77 85.74" style="fill: rgb(235, 235, 235); transform-origin: 328.305px 96.775px;" id="el1wcohs51w3" class="animable"></polygon><polygon points="339.34 115.24 317.28 115.24 320.79 107.81 335.82 107.81 339.34 115.24" style="fill: rgb(235, 235, 235); transform-origin: 328.31px 111.525px;" id="elzv46n9e5mmh" class="animable"></polygon><polygon points="338.17 103.83 335.83 107.81 320.79 107.81 319.02 104.79 338.17 103.83" style="fill: rgb(199, 199, 199); transform-origin: 328.595px 105.82px;" id="el6353p1scp35" class="animable"></polygon><g id="elbnuyfck2ywu"><circle cx="391.52" cy="82.66" r="18.74" style="fill: rgb(235, 235, 235); opacity: 0.19; transform-origin: 391.52px 82.66px; transform: rotate(-67.77deg);" class="animable"></circle></g><g id="elbnptjo6zbqu"><circle cx="391.52" cy="85.74" r="13.9" style="fill: rgb(235, 235, 235); opacity: 0.19; transform-origin: 391.52px 85.74px; transform: rotate(-45deg);" class="animable"></circle></g><polygon points="411.98 85.74 399.03 107.81 384 107.81 371.05 85.74 411.98 85.74" style="fill: rgb(235, 235, 235); transform-origin: 391.515px 96.775px;" id="el15ozr2q6mvy" class="animable"></polygon><polygon points="402.55 115.24 380.49 115.24 384 107.81 399.03 107.81 402.55 115.24" style="fill: rgb(235, 235, 235); transform-origin: 391.52px 111.525px;" id="elxk1vdut6em" class="animable"></polygon><polygon points="401.38 103.83 399.04 107.81 384 107.81 382.23 104.79 401.38 103.83" style="fill: rgb(199, 199, 199); transform-origin: 391.805px 105.82px;" id="elplplyd7h69c" class="animable"></polygon><rect x="52.77" y="63.92" width="172.28" height="203.96" style="fill: rgb(235, 235, 235); transform-origin: 138.91px 165.9px;" id="elb6uoa0s3r8f" class="animable"></rect><rect x="62.16" y="72.09" width="72.75" height="90.72" style="fill: rgb(255, 255, 255); transform-origin: 98.535px 117.45px;" id="elv02n84u2odj" class="animable"></rect><rect x="142.92" y="72.09" width="72.75" height="90.72" style="fill: rgb(255, 255, 255); transform-origin: 179.295px 117.45px;" id="elc5176fanayb" class="animable"></rect><rect x="62.16" y="168.98" width="72.75" height="90.72" style="fill: rgb(255, 255, 255); transform-origin: 98.535px 214.34px;" id="elijm22qtky3d" class="animable"></rect><rect x="142.92" y="168.98" width="72.75" height="90.72" style="fill: rgb(255, 255, 255); transform-origin: 179.295px 214.34px;" id="elqsknmmjb8x" class="animable"></rect><rect x="52.77" y="63.92" width="40.81" height="291.8" style="fill: rgb(219, 219, 219); transform-origin: 73.175px 209.82px;" id="el4dfyrlablvf" class="animable"></rect><polygon points="85.84 77.79 86.16 109.34 86.27 140.89 86.49 203.99 86.27 267.09 86.16 298.64 85.84 330.19 85.53 298.64 85.41 267.09 85.2 203.99 85.41 140.89 85.53 109.34 85.84 77.79" style="fill: rgb(235, 235, 235); transform-origin: 85.845px 203.99px;" id="eljpbx324idyd" class="animable"></polygon><polygon points="67.11 85.11 67.42 113.28 67.6 141.45 67.75 197.79 67.6 254.13 67.42 282.3 67.11 310.48 66.79 282.3 66.61 254.13 66.46 197.79 66.61 141.45 66.79 113.28 67.11 85.11" style="fill: rgb(235, 235, 235); transform-origin: 67.105px 197.795px;" id="elp9217w0nwho" class="animable"></polygon><polygon points="76.47 91.76 76.79 124.74 76.9 157.73 77.12 223.7 76.91 289.68 76.79 322.66 76.47 355.65 76.16 322.66 76.04 289.68 75.83 223.7 76.05 157.73 76.16 124.74 76.47 91.76" style="fill: rgb(235, 235, 235); transform-origin: 76.475px 223.705px;" id="eldxlj2lwdeiq" class="animable"></polygon><polygon points="60.14 79.45 60.45 113.98 60.57 148.5 60.78 217.55 60.57 286.6 60.45 321.12 60.14 355.65 59.82 321.12 59.71 286.6 59.49 217.55 59.71 148.5 59.82 113.98 60.14 79.45" style="fill: rgb(235, 235, 235); transform-origin: 60.135px 217.55px;" id="elow7zb4c9anb" class="animable"></polygon><g id="el4nub4nlwyie"><rect x="184.25" y="63.92" width="40.81" height="291.8" style="fill: rgb(219, 219, 219); transform-origin: 204.655px 209.82px; transform: rotate(180deg);" class="animable"></rect></g><polygon points="191.99 77.79 192.3 109.34 192.42 140.89 192.63 203.99 192.42 267.09 192.31 298.64 191.99 330.19 191.67 298.64 191.56 267.09 191.34 203.99 191.56 140.89 191.67 109.34 191.99 77.79" style="fill: rgb(235, 235, 235); transform-origin: 191.985px 203.99px;" id="elo0p476466xh" class="animable"></polygon><polygon points="210.73 85.11 211.04 113.28 211.22 141.45 211.37 197.79 211.22 254.13 211.04 282.3 210.73 310.48 210.41 282.3 210.23 254.13 210.08 197.79 210.23 141.45 210.41 113.28 210.73 85.11" style="fill: rgb(235, 235, 235); transform-origin: 210.725px 197.795px;" id="elzz4f0awk7cc" class="animable"></polygon><polygon points="201.36 91.76 201.67 124.74 201.79 157.73 202 223.7 201.79 289.68 201.67 322.66 201.36 355.65 201.04 322.66 200.93 289.68 200.71 223.7 200.93 157.73 201.04 124.74 201.36 91.76" style="fill: rgb(235, 235, 235); transform-origin: 201.355px 223.705px;" id="elqehvbe60w9r" class="animable"></polygon><polygon points="217.69 79.45 218.01 113.98 218.12 148.5 218.34 217.55 218.13 286.6 218.01 321.12 217.69 355.65 217.38 321.12 217.26 286.6 217.05 217.55 217.26 148.5 217.38 113.98 217.69 79.45" style="fill: rgb(235, 235, 235); transform-origin: 217.695px 217.55px;" id="el4irhbqhf3dl" class="animable"></polygon></g><g id="freepik--Table--inject-162" class="animable" style="transform-origin: 249.995px 421.8px;"><polygon points="465.97 421.8 411.98 422.04 357.99 422.13 250 422.3 142.01 422.13 88.02 422.05 34.02 421.8 88.02 421.56 142.01 421.47 250 421.3 357.99 421.47 411.98 421.56 465.97 421.8" style="fill: rgb(38, 50, 56); transform-origin: 249.995px 421.8px;" id="eld7rfsfnzl2r" class="animable"></polygon></g><g id="freepik--Shadow--inject-162" class="animable" style="transform-origin: 357.29px 445.04px;"><ellipse cx="357.29" cy="445.04" rx="102.35" ry="10.38" style="fill: rgb(235, 235, 235); transform-origin: 357.29px 445.04px;" id="elz5p9f23bj1i" class="animable"></ellipse></g><g id="freepik--character-1--inject-162" class="animable animator-active" style="transform-origin: 173.835px 257.076px;"><path d="M208.14,421.8H129.21l-3.37-13.21-.06-.31h0l-.06-.29c-.71-2.74-1.4-5.47-2.09-8.19-.1-.4-.2-.79-.29-1.18-5.55-21.75-10.83-42.52-15-58.92-.13-.55-.28-1.09-.41-1.64l-.89-3.45h0c-2.66-10.45-4.77-18.72-6.05-23.77L99.73,306c0-.19-.09-.34-.11-.46l-.05-.19,0-.07H175l.06.19c.05.18.13.5.26.94v0c1,3.52,4.32,14.94,8.89,30.88,4.11,14.33,9.24,32.3,14.68,51.51C201.9,399.6,205,410.72,208.14,421.8Z" style="fill: rgb(235, 148, 129); transform-origin: 153.855px 363.54px;" id="elkdc5zf8kmv" class="animable"></path><path d="M211.76,421.8H123.7l-16.93-81.68-.76-3.66-6.44-31.07,0-.07H175l.06.19C176.5,310.09,203.82,394.23,211.76,421.8Z" style="fill: rgb(55, 71, 79); transform-origin: 155.665px 363.56px;" id="el6pcdu0eu47d" class="animable"></path><path d="M172.51,305.29v0c0,.05,0,.14,0,.26a2.32,2.32,0,0,1,0,.24c0,.27,0,.64-.08,1.09s-.05.65-.08,1c0,.58-.1,1.24-.16,2,0,0,0,.05,0,.08,0,.42-.07.88-.12,1.36s-.11,1.25-.17,1.94c-.09.93-.19,1.92-.3,3v0c-.07.6-.13,1.22-.2,1.86,0,.12,0,.24,0,.37-.12,1.2-.27,2.45-.42,3.76-.17,1.46-.36,3-.56,4.54-.09.68-.18,1.36-.27,2.06,0,.11,0,.22,0,.34-.11.81-.22,1.63-.34,2.47s-.25,1.69-.37,2.54c-.07.43-.13.86-.2,1.29q-.35,2.31-.75,4.68-.2,1.23-.42,2.46c-.22,1.29-.46,2.6-.71,3.92-.06.36-.13.73-.2,1.09l-.21,1.06c-.2,1-.41,2.07-.63,3.11l-.3,1.4q-.6,2.79-1.25,5.57c-.11.47-.22.93-.34,1.39-.23.93-.46,1.85-.7,2.77s-.48,1.83-.73,2.74c-.19.68-.38,1.36-.58,2s-.39,1.34-.59,2c-.26.91-.54,1.81-.82,2.7l-.87,2.63s0,0,0,0c-.18.52-.36,1-.53,1.53l-.12.05-.5.18-1,.38-.44.18-1.63.68-1.3.57-.76.34-.82.37-.94.44c-.52.26-1.06.51-1.63.78l-.9.45c-1.5.74-3.15,1.59-4.93,2.55-.71.38-1.45.78-2.2,1.2-1,.56-2,1.15-3.12,1.79l0,0-.06,0-1.26.73h0a.65.65,0,0,0-.16.09l-.07,0s0,.35,0,1c0,.11,0,.24,0,.37s0,.27,0,.42v.1s0,.08,0,.13v0c0,.22,0,.47,0,.73a.17.17,0,0,1,0,.1c0,.4,0,.83,0,1.32s-.05,1.29-.08,2c0,.11,0,.21,0,.31,0,.37,0,.77-.05,1.18s0,.78,0,1.19c0,1-.07,2-.12,3.07,0,.65-.05,1.31-.07,2s0,1.09-.07,1.65,0,.93,0,1.39,0,.7-.05,1.06c0,.64,0,1.3-.08,2,0,.1,0,.21,0,.33-.15,4.16-.34,8.82-.53,13.83H60.71c.39-5.14.79-10.28,1.18-15.39q.38-4.87.74-9.71c0-.19,0-.38,0-.58,1-12.54,1.92-24.68,2.78-35.79.33-4.22.65-8.29,1-12.18.06-.67.1-1.31.16-2,.14-1.77.27-3.5.4-5.19.24-2.88.45-5.62.66-8.22,0-.72.11-1.44.17-2.14.39-5.12.74-9.61,1-13.34,0-.7.1-1.37.15-2,.51-6.33.79-9.95.79-9.95Z" style="fill: rgb(235, 148, 129); transform-origin: 116.612px 363.255px;" id="elei99d7yqknc" class="animable"></path><path d="M172.51,305.29v0c0,.07,0,.23,0,.5s0,.64-.08,1.09-.05.65-.08,1c0,.57-.1,1.24-.16,2,0,0,0,.05,0,.08,0,.42-.07.88-.12,1.36s-.11,1.25-.17,1.94c-.09.93-.19,1.92-.3,3v0c-.07.6-.13,1.22-.2,1.86,0,.12,0,.24,0,.37-.13,1.2-.27,2.45-.42,3.76-.17,1.46-.36,3-.56,4.54-.09.68-.18,1.36-.27,2.06,0,.11,0,.22,0,.34-.11.81-.22,1.63-.34,2.47s-.25,1.69-.37,2.54c-.07.43-.13.86-.2,1.29q-.35,2.31-.75,4.68-.2,1.23-.42,2.46c-.22,1.29-.46,2.6-.71,3.92-.13.71-.27,1.43-.41,2.15-.2,1-.41,2.07-.63,3.11l-.3,1.4v0c-.39,1.84-.8,3.69-1.24,5.52-.11.47-.22.93-.34,1.39-.22.93-.46,1.85-.7,2.77s-.48,1.83-.73,2.74c-.19.68-.38,1.36-.58,2s-.39,1.34-.59,2c-.26.91-.54,1.81-.82,2.7s-.57,1.77-.86,2.63h0c-.17.52-.35,1-.54,1.55l-.12.05-.5.18-1,.38-.44.18-1.63.68-1.3.57-.76.34-.82.37-.94.44c-.79.37-1.63.78-2.53,1.23-1.5.74-3.15,1.59-4.93,2.55-.71.38-1.45.78-2.2,1.2-1,.56-2,1.15-3.12,1.79l0,0-.06,0-1.26.73h0a.65.65,0,0,0-.16.09l-.09,0s0,.36,0,1c0,.11,0,.24,0,.37s0,.27,0,.42a1.85,1.85,0,0,1,0,.23v0c0,.23,0,.47,0,.73a.17.17,0,0,1,0,.1c-.19,5.79-.63,19.12-1,29.79v.06c0,.49,0,1-.05,1.46H52.6c1.07-15.18,2.25-40.71,2.25-40.71-11.66-25.87,14.93-75.77,14.93-75.77Z" style="fill: rgb(55, 71, 79); transform-origin: 112.202px 363.21px;" id="elrba1lffomh" class="animable"></path><path d="M128.07,391.54c3.46-2.4,7.2-4.42,10.86-6.49s7.56-4.15,11.46-6a187.11,187.11,0,0,1,23.69-8.6c.2-.07.34.27.14.35-7.73,3.32-15.21,7.12-22.9,10.53-3.86,1.72-7.76,3.36-11.63,5.06s-7.64,3.64-11.54,5.26C128.05,391.74,128,391.61,128.07,391.54Z" style="fill: rgb(38, 50, 56); transform-origin: 151.177px 381.061px;" id="elsowwis9ow7h" class="animable"></path><path d="M149.2,353.74c.1-3.79.36-7.58.55-11.36.44-8.93.79-17.91,1.62-26.82a.28.28,0,0,1,.56,0c.11,6.91-.16,13.84-.3,20.75-.07,3.46-.17,6.92-.27,10.38a96.16,96.16,0,0,0-.06,9.9c.18,2.49.73,7.34,4,7.64,3.06.28,4.74-3,5.51-5.45,1.94-6.15,2.63-12.8,3.26-19.19.37-3.79.75-7.57,1-11.37a103.5,103.5,0,0,0,.38-11.67c0-.25.37-.24.38,0,.21,3.91.75,7.79.88,11.71s.14,7.8-.11,11.69c-.24,3.73-.56,7.48-1.12,11.18A40,40,0,0,1,163,361c-1.13,2.62-3.06,5-6,5.6a6,6,0,0,1-1.1.12c0,.8-.14,1.6-.2,2.4-.08,1.25-.24,2.49-.41,3.74a28.41,28.41,0,0,1-.76,3.62,13.69,13.69,0,0,1-1.27,3.46.2.2,0,0,1-.36-.11,17.16,17.16,0,0,1,.3-3.57c.17-1.21.34-2.44.59-3.64s.46-2.37.71-3.56c.16-.79.27-1.61.42-2.41a5.83,5.83,0,0,1-4.34-3.42C149.23,360.34,149.12,356.9,149.2,353.74Z" style="fill: rgb(38, 50, 56); transform-origin: 157.99px 347.65px;" id="el4m7j6thr2lq" class="animable"></path><path d="M67.21,351.55c5.42.38,10.77,1.08,16.21.43a28.3,28.3,0,0,0,14.11-5.53c8.94-6.93,12.86-18.28,15.28-28.92a.19.19,0,0,1,.37.06c-1,9.23-3,18.77-9,26.2a28.69,28.69,0,0,1-9.51,7.83,27.86,27.86,0,0,1-12.56,2.59,61.1,61.1,0,0,1-15-2A.32.32,0,0,1,67.21,351.55Z" style="fill: rgb(38, 50, 56); transform-origin: 90.0037px 335.811px;" id="el7htirukl15i" class="animable"></path><path d="M137.83,387.27v.18c0,2.22-.06,4.46-.09,6.67,0,2.43,0,4.86-.12,7.29-.16,4.9-.42,9.81-.78,14.7-.1,1.36-.23,2.72-.36,4.08,0,0,0,.06,0,.09v.06c-.05.48-.08,1-.13,1.46h-.78c0-.38,0-.75,0-1.12,0-1.19,0-2.39,0-3.58,0-2.43.15-4.86.27-7.29.26-4.9.54-9.79,1-14.68.23-2.57.38-5.15.68-7.71,0-.2,0-.39.06-.59a.13.13,0,0,1,.25,0C137.82,387,137.83,387.12,137.83,387.27Z" style="fill: rgb(38, 50, 56); transform-origin: 136.7px 404.268px;" id="el7gnbprkor9f" class="animable"></path><path d="M178.8,191.2c-1.5,26.27-3.49,53.26-9,79-4.29,20.06-14.7,35.8-36.35,38.4-20.08,2.41-47.9-1.09-63-15.92-7-6.93-8.74-15.76-7.14-25.26,2.2-13.21,21-84.8,26.67-107.15A415,415,0,0,1,102.71,120c12.08-33.08,41.06-30,55.66-23.44,8.06,3.62,13.34,10,16.19,18.06C182.91,138.34,180.19,166.6,178.8,191.2Z" style="fill: rgb(38, 50, 56); transform-origin: 121.557px 200.824px;" id="elpe1ufozmhif" class="animable"></path><path d="M126,97.84c-17.56,5.91-23.59,23.68-29.47,39.55-8.19,22.08-16,44.32-22.73,66.9-3.24,10.86-6.23,21.79-8.89,32.8C62.4,247.63,59,258.8,58.52,269.68c-.82,18,14.6,28,30.14,32.3a.61.61,0,0,0,.37-1.17c-8.82-2.8-17.74-6.35-23.69-13.8-7.64-9.54-5.38-20.63-3.1-31.66,3.87-18.78,8.81-37.33,14.41-55.66s11.87-36.52,18.41-54.56c6.23-17.17,11.93-40.07,31.05-47C126.29,98.07,126.23,97.78,126,97.84Z" style="fill: rgb(38, 50, 56); transform-origin: 92.352px 199.92px;" id="ellqipga7b1dl" class="animable"></path><path d="M180.08,134.55c-1.63-14-7.22-28.11-21.14-33.69,0,0,0,0,0,0,17.9,8,20.13,28.82,20.69,46q.88,27.21-.25,54.42c-.71,17.43-1.8,35-4.1,52.28-2.48,18.68-7.85,35.83-20.65,50-.26.3.13.73.43.46,12.3-11.25,17.84-28,20.54-44,3.54-21.07,4.6-42.79,5.33-64.11C181.61,175.71,182.42,154.73,180.08,134.55Z" style="fill: rgb(38, 50, 56); transform-origin: 168.091px 202.483px;" id="elf0qh28e2ahs" class="animable"></path><path d="M152.72,195.73C168.85,216.12,195,255,201.65,263.05c7.2,8.76,55.6,31.47,60.81,38.57,6.36,8.67-20.32,46.66-26.23,42.24C232.41,341,180,319.08,164.12,295c-11.2-17-27.64-66.45-29.42-88.45C132.77,182.52,145.72,186.88,152.72,195.73Z" style="fill: rgb(235, 148, 129); transform-origin: 198.97px 266.452px;" id="elvpyt9ccue5" class="animable"></path><path d="M258.59,298.22c17,12.26,33.48,27.82,40.32,48.59a10.81,10.81,0,0,1,.08,7.09c3.23,9.25-.17,13.56-.17,13.56.37,9.54-3.71,13.47-3.71,13.47s3.68,10.9-2.55,14.22c-7,3.74-10.76-12.31-18.25-19.86-17.16-17.29-46.38-37.07-51.82-41.57Z" style="fill: rgb(235, 148, 129); transform-origin: 261.436px 346.963px;" id="elmitk184n4n" class="animable"></path><path d="M269.07,344.54c4.94,5.19,9.94,10.15,14.16,16,4.63,6.4,8,13.33,11.63,20.31a.19.19,0,0,0,.34-.15c-4.54-13.66-14.66-27.43-25.9-36.38C269,344.09,268.82,344.28,269.07,344.54Z" style="fill: rgb(38, 50, 56); transform-origin: 282.078px 362.573px;" id="elqs898ooj6p" class="animable"></path><path d="M278,332.66c4.53,5.32,12.44,14.72,20.61,34.89,0,.06.14,0,.12,0-3.56-13.8-10.44-25.11-20.48-35.06C277.94,332.14,277.7,332.31,278,332.66Z" style="fill: rgb(38, 50, 56); transform-origin: 288.297px 349.937px;" id="elnxhgsqnd3cc" class="animable"></path><path d="M282.92,326.37c7.37,9.34,10.83,16.16,16,27.5,0,.07.15,0,.13,0-4.53-13.51-7.7-17.9-15.84-27.75C282.93,325.74,282.63,326,282.92,326.37Z" style="fill: rgb(38, 50, 56); transform-origin: 290.927px 339.917px;" id="eljrkzns3tbt" class="animable"></path><path d="M252.32,355.76c-3.13-1.36-3.87.27-1,5.61s18.75,24.07,11.75,29.06-29-21.75-33.12-31-7.46-25.69-7.46-25.69C227.82,338.07,241.75,347.37,252.32,355.76Z" style="fill: rgb(235, 148, 129); transform-origin: 243.663px 362.392px;" id="elqvr5ppf9kt" class="animable"></path><path d="M218.16,341.67l34.17-51.18s-51-30-55.19-35.18-21.09-32-37.21-52.85-29.31-21.07-25.42,10.43S156.22,291,162,299.69C170.41,312.18,218.16,341.67,218.16,341.67Z" style="fill: rgb(118, 110, 220); transform-origin: 193.076px 264.763px;" id="el6a4g5ljh58y" class="animable"></path><path d="M239.56,286.87c-18,23.77-29.05,41.7-31.09,45.19a.09.09,0,0,0,.14.1c13-16.34,30.41-43.38,31.27-45.12C240,286.85,239.68,286.72,239.56,286.87Z" style="fill: rgb(38, 50, 56); transform-origin: 224.186px 309.492px;" id="eldw9vgbwxgx" class="animable"></path><path d="M139.75,237.76l-.28.11c.09.37.19.73.28,1.1l.4-.14a15.5,15.5,0,0,0,3.92-2.06A15.54,15.54,0,0,0,139.75,237.76Zm17.75-38.32a13.1,13.1,0,0,0-1.8,1.12,12.65,12.65,0,0,0,2.4-.39Zm3.46,92.7a19.2,19.2,0,0,0-2.36,1.07c.11.25.23.49.34.72a19.83,19.83,0,0,0,2.42-.72,15.5,15.5,0,0,0,3.92-2.06A15.2,15.2,0,0,0,161,292.14Zm22-15.64a15.67,15.67,0,0,0-3.92,2.06,17.18,17.18,0,0,0,8.24-3.05A15.2,15.2,0,0,0,183,276.5Zm21.47,39.34a15.67,15.67,0,0,0-3.92,2.06,17.18,17.18,0,0,0,8.24-3A15.2,15.2,0,0,0,204.45,315.84Zm35.76-25.58a15.67,15.67,0,0,0-3.92,2.06,17.18,17.18,0,0,0,8.24-3.05A15.2,15.2,0,0,0,240.21,290.26ZM192.52,253.5a15.83,15.83,0,0,0-2.06-3.92,17.18,17.18,0,0,0,3,8.24A15.54,15.54,0,0,0,192.52,253.5Zm33.07,51.32a15.83,15.83,0,0,0-2.06-3.92,17.18,17.18,0,0,0,3.05,8.24A15.54,15.54,0,0,0,225.59,304.82Zm-41.87,1.67a15.37,15.37,0,0,0-2.07-3.92,15.92,15.92,0,0,0,1,4.31,15.37,15.37,0,0,0,2.07,3.92A15.47,15.47,0,0,0,183.72,306.49ZM172.4,220.4a18.1,18.1,0,0,0-1.43-3l-.09-.14c-.17-.27-.35-.53-.55-.79v0a15.79,15.79,0,0,0,1,4.29,15,15,0,0,0,2.06,3.92A15.54,15.54,0,0,0,172.4,220.4ZM159,264.68a15.54,15.54,0,0,0-4.23-1.31,15.1,15.1,0,0,0,3.75,2.35,15.8,15.8,0,0,0,4.23,1.32A15.44,15.44,0,0,0,159,264.68Zm55.53,9.63a15.54,15.54,0,0,0-4.23-1.31,15.1,15.1,0,0,0,3.75,2.35,15.8,15.8,0,0,0,4.23,1.32A15.44,15.44,0,0,0,214.57,274.31Zm-64.81-56.95a15.43,15.43,0,0,0-4.23-1.31,17.11,17.11,0,0,0,8,3.66A15.4,15.4,0,0,0,149.76,217.36Zm16.64,22.22a15.5,15.5,0,0,0-1.31,4.24,15.65,15.65,0,0,0,2.35-3.76,15.43,15.43,0,0,0,1.31-4.23A15.59,15.59,0,0,0,166.4,239.58Zm33.79,51a15.5,15.5,0,0,0-1.31,4.24,15.65,15.65,0,0,0,2.35-3.76,15.43,15.43,0,0,0,1.31-4.23A15.59,15.59,0,0,0,200.19,290.55Zm15.45,40.63a15.5,15.5,0,0,0-1.31,4.24,15.65,15.65,0,0,0,2.35-3.76,15.43,15.43,0,0,0,1.31-4.23A15.59,15.59,0,0,0,215.64,331.18ZM135.31,198.8A15.89,15.89,0,0,0,134,203a15.44,15.44,0,0,0,2.36-3.75,15.78,15.78,0,0,0,1.31-4.23A15.75,15.75,0,0,0,135.31,198.8Z" style="fill: rgb(255, 255, 255); transform-origin: 189.255px 265.235px;" id="elevllbyv08h8" class="animable"></path><g id="elg31wpo8tes"><path d="M236.24,314.6l-18.08,27.07s-47.75-29.49-56.13-42c-5.81-8.66-23.63-55.31-27.52-86.8-.93-7.51-.88-13.22-.06-17.27l.4-1.64,4.64-19.06c.31.65,5.36,8.05,13.06,19.23C175,226.66,219.87,291.12,236.24,314.6Z" style="opacity: 0.1; transform-origin: 185.032px 258.285px;" class="animable"></path></g><path d="M187.88,335.48l-9.37-52.43s12.79-18.38,7.58-32.84c-2.62-7.33-27.25-50.78-38.48-60.55-10.53-9.15-27.94-2.19-34.28,4C78.24,228,67.64,267.6,53.63,337.8Z" style="fill: rgb(118, 110, 220); transform-origin: 120.755px 261.524px;" id="elisnv7yc7qnb" class="animable"></path><path d="M163,283.82a74.89,74.89,0,0,0-19.3,3.22c-6.3,1.79-12.44,4.2-18.53,6.58-3.5,1.36-7,2.65-10.52,4a.07.07,0,0,0,0,.14c6.35-1.58,12.53-3.86,18.73-6s12.41-4,18.73-5.65a88.37,88.37,0,0,1,10.85-2A.2.2,0,0,0,163,283.82Z" style="fill: rgb(38, 50, 56); transform-origin: 138.812px 290.79px;" id="el2u9t2m4od3t" class="animable"></path><path d="M174.52,287.15a60,60,0,0,0-20.28,1.79c-.08,0-.06.16,0,.15,3.37-.4,6.71-.8,10.09-1.08s6.78-.45,10.17-.68A.09.09,0,1,0,174.52,287.15Z" style="fill: rgb(38, 50, 56); transform-origin: 164.394px 288.018px;" id="el03wfeyfowhfp" class="animable"></path><path d="M188,256.64a38.82,38.82,0,0,0-4.41-13.36c-2.3-4.47-5-8.75-7.55-13.05l-1-1.65c-.19-.6-.44-1.2-.67-1.78s-.53-1.37-.81-2.06c-.56-1.34-1.15-2.67-1.74-4,0-.05-.11,0-.09,0,.48,1.42,1,2.83,1.5,4.24.22.57.45,1.13.67,1.69q-3.63-6-7.27-12c0-.08-.17,0-.13.08,2.57,4.59,5.1,9.2,7.69,13.78,2.47,4.36,5.05,8.67,7.4,13.1a44.71,44.71,0,0,1,4.9,13.06,30.75,30.75,0,0,1-1.07,13.84c-1.46,5.12-3.9,9.92-6.25,14.65a.18.18,0,0,0,.31.18C184.63,275.69,189,266.3,188,256.64Z" style="fill: rgb(38, 50, 56); transform-origin: 177.319px 249.036px;" id="elwlkj141t6wo" class="animable"></path><path d="M135.31,198.8A15.89,15.89,0,0,0,134,203a15.44,15.44,0,0,0,2.36-3.75,15.78,15.78,0,0,0,1.31-4.23A15.75,15.75,0,0,0,135.31,198.8Zm-17.57,54.82a15.16,15.16,0,0,0-1.31,4.24,16,16,0,0,0,2.35-3.76,15.78,15.78,0,0,0,1.31-4.23A15.59,15.59,0,0,0,117.74,253.62ZM70,274.59a15.5,15.5,0,0,0-1.31,4.24A15.65,15.65,0,0,0,71,275.07a15.43,15.43,0,0,0,1.31-4.23A15.91,15.91,0,0,0,70,274.59Zm35.12,37.56a15.43,15.43,0,0,0-1.31,4.23,17.2,17.2,0,0,0,3.66-8A15.77,15.77,0,0,0,105.08,312.15Zm61.32-72.57a15.5,15.5,0,0,0-1.31,4.24,15.65,15.65,0,0,0,2.35-3.76,15.43,15.43,0,0,0,1.31-4.23A15.59,15.59,0,0,0,166.4,239.58ZM139,308.15a15.55,15.55,0,0,0-1.32,4.23,15.44,15.44,0,0,0,2.36-3.75,15.78,15.78,0,0,0,1.31-4.23A15.59,15.59,0,0,0,139,308.15ZM94.16,230.47a15.32,15.32,0,0,0-1.31,4.23,17.2,17.2,0,0,0,3.66-8A15.46,15.46,0,0,0,94.16,230.47Zm55.6-13.11a15.43,15.43,0,0,0-4.23-1.31,17.11,17.11,0,0,0,8,3.66A15.4,15.4,0,0,0,149.76,217.36ZM159,264.68a15.54,15.54,0,0,0-4.23-1.31,15.1,15.1,0,0,0,3.75,2.35,15.8,15.8,0,0,0,4.23,1.32A15.44,15.44,0,0,0,159,264.68Zm2.9,55.75a15.43,15.43,0,0,0-4.23-1.31,17.11,17.11,0,0,0,8,3.66A15.71,15.71,0,0,0,161.94,320.43Zm-91.22-8.76a15.43,15.43,0,0,0-4.23-1.31,17.11,17.11,0,0,0,8,3.66A15.4,15.4,0,0,0,70.72,311.67Zm34.89-35.15a15.34,15.34,0,0,0-4.23-1.32,15.5,15.5,0,0,0,3.76,2.36,15.78,15.78,0,0,0,4.23,1.31A15.46,15.46,0,0,0,105.61,276.52Zm76.51,26.72a7.37,7.37,0,0,0-.47-.67,15.92,15.92,0,0,0,1,4.31c.08.2.15.4.23.59Zm-36.63,31.24a12.21,12.21,0,0,0,.24,1.73l.84,0A14,14,0,0,0,145.49,334.48Zm-24.86-110a15.71,15.71,0,0,0-2.07-3.92,17.06,17.06,0,0,0,3.06,8.24A15.54,15.54,0,0,0,120.63,224.53Zm18.16,48.19a15.83,15.83,0,0,0-2.06-3.92,17.18,17.18,0,0,0,3.05,8.24A15.54,15.54,0,0,0,138.79,272.72ZM87.46,295.06a15.48,15.48,0,0,0-2.07-3.91,15.55,15.55,0,0,0,1,4.31,15.37,15.37,0,0,0,2.07,3.92A15.54,15.54,0,0,0,87.46,295.06Zm5.92,37.59a15.5,15.5,0,0,0-2.06-3.92A17.18,17.18,0,0,0,94.37,337,15.2,15.2,0,0,0,93.38,332.65Zm85.68-54.09a12.83,12.83,0,0,0,2.34-.37c.22-.42.46-.87.69-1.33A13.78,13.78,0,0,0,179.06,278.56ZM161,292.14A15.67,15.67,0,0,0,157,294.2a17.18,17.18,0,0,0,8.24-3.05A15.2,15.2,0,0,0,161,292.14Zm26.54,41.22c-.49.14-1,.31-1.46.48a16.7,16.7,0,0,0-3.46,1.73c-.15.1-.31.21-.46.33a13.06,13.06,0,0,0,2.28-.36,20.89,20.89,0,0,0,2-.63c.42-.16.83-.33,1.24-.52Zm-65-5.8a15.67,15.67,0,0,0-3.92,2.06,17.06,17.06,0,0,0,8.24-3.06A15.21,15.21,0,0,0,122.46,327.56Zm-59.59,4.87A15.67,15.67,0,0,0,59,334.49a17.06,17.06,0,0,0,8.24-3.06A15.55,15.55,0,0,0,62.87,332.43Zm27.68-77.74a16,16,0,0,0-3.92,2.06,17.18,17.18,0,0,0,8.24-3.05A15.54,15.54,0,0,0,90.55,254.69Zm30.87,39a15.54,15.54,0,0,0-3.92,2.07,15.54,15.54,0,0,0,4.32-1,15.71,15.71,0,0,0,3.92-2.07A15.54,15.54,0,0,0,121.42,293.66Zm35-93.61c-.25.16-.5.33-.74.51.35,0,.69-.06,1-.11Zm-16.69,37.71a16,16,0,0,0-3.92,2.06,17.18,17.18,0,0,0,8.24-3A15.54,15.54,0,0,0,139.75,237.76ZM109.17,202.5a15.5,15.5,0,0,0-3.92,2.06,17.18,17.18,0,0,0,8.24-3.05A15.54,15.54,0,0,0,109.17,202.5Z" style="fill: rgb(255, 255, 255); transform-origin: 123.34px 266.01px;" id="el5xxr2ufa2x9" class="animable"></path><path d="M98.08,211.36c-30.57,43.7-63.53,107.25-45.82,120.93,11.76,9.09,49.92-54.72,50.37-55.57,1.54-2.9,10-22.91,19-59.4C130,183.6,111.74,191.83,98.08,211.36Z" style="fill: rgb(235, 148, 129); transform-origin: 85.5157px 263.769px;" id="el9he9qnq5k25" class="animable"></path><path d="M98.08,211.36c-30.57,43.7-63.53,107.25-45.82,120.93,11.76,9.09,49.92-54.72,50.37-55.57,1.54-2.9,10-22.91,19-59.4C130,183.6,111.74,191.83,98.08,211.36Z" style="fill: rgb(118, 110, 220); transform-origin: 85.5157px 263.769px;" id="eltseewjt0ne" class="animable"></path><path d="M70,274.59a15.5,15.5,0,0,0-1.31,4.24A15.65,15.65,0,0,0,71,275.07a15.43,15.43,0,0,0,1.31-4.23A15.91,15.91,0,0,0,70,274.59Zm24.2-44.12a15.32,15.32,0,0,0-1.31,4.23,17.2,17.2,0,0,0,3.66-8A15.46,15.46,0,0,0,94.16,230.47Zm-23.44,81.2a15.43,15.43,0,0,0-4.23-1.31,17.11,17.11,0,0,0,8,3.66A15.4,15.4,0,0,0,70.72,311.67Zm30.66-36.47a12.5,12.5,0,0,0,1.46,1.11c.09-.2.21-.44.33-.72A12.92,12.92,0,0,0,101.38,275.2Zm17.18-54.59a15.54,15.54,0,0,0,1,4.32l.09.23.48-1.85A13.32,13.32,0,0,0,118.56,220.61ZM47.83,317.86c-.14-.37-.29-.74-.46-1.1-.07,1-.09,1.9-.07,2.79v0a13,13,0,0,0,1.52,2.61A15.54,15.54,0,0,0,47.83,317.86Zm39.63-22.8a15.48,15.48,0,0,0-2.07-3.91,15.55,15.55,0,0,0,1,4.31,16.22,16.22,0,0,0,1.85,3.61l.17-.25h0A16.36,16.36,0,0,0,87.46,295.06Zm3.09-40.37a16,16,0,0,0-3.92,2.06,17.18,17.18,0,0,0,8.24-3.05A15.54,15.54,0,0,0,90.55,254.69Zm-34,40.54a15.54,15.54,0,0,0-3.92,2.07,15.54,15.54,0,0,0,4.32-1,15.71,15.71,0,0,0,3.92-2.07A15.54,15.54,0,0,0,56.59,295.23Zm52.58-92.73a15.5,15.5,0,0,0-3.92,2.06,17.18,17.18,0,0,0,8.24-3.05A15.54,15.54,0,0,0,109.17,202.5Z" style="fill: rgb(255, 255, 255); transform-origin: 83.7313px 261.835px;" id="eld2qd8qcb39" class="animable"></path><path d="M119.4,230.43c-.9,2.07-1.78,4.16-2.62,6.26.13-.54.28-1.08.42-1.62,1.09-4.43,2.15-8.87,3.21-13.3,0-.09-.12-.13-.14,0-2.33,7.72-4.73,15.41-7.08,23.11s-4.69,15.37-7.38,22.94c-1.52,4.29-3.06,8.63-4.89,12.8,0,.08.08.15.12.07,1.71-3.65,3.45-7.27,5-11s3-7.44,4.27-11.23q3-8.6,5.34-17.33a112.43,112.43,0,0,0,4-10.57C119.68,230.38,119.46,230.29,119.4,230.43Z" style="fill: rgb(38, 50, 56); transform-origin: 110.665px 251.206px;" id="eltwa4i39obgs" class="animable"></path><path d="M52.26,332.23c16.47,12.1,83.79-8.43,104.36-26.12,5.61-4.82-19.69-54.27-26.46-50.19C91.48,279.22,34.23,319,52.26,332.23Z" style="fill: rgb(235, 148, 129); transform-origin: 103.132px 295.773px;" id="elr9ydt4n7ta" class="animable"></path><path d="M123.1,268.83s9.31-18.92,17.28-27.34c10.67-11.28,24.52-16.63,30.47-18.52,12.4-3.95,45.12-4.92,47,4.46,1.74,8.48-31.75,7.78-31.75,7.78s34.26-4.92,34.48,5.69S182,248.47,182,248.47s35.32-4.26,33.82,6.71c-1.14,8.29-36.47,7.53-36.47,7.53s30.39-3.46,29.58,5.12c-.88,9.47-33.54,10.82-33.54,10.82-5.71,21.45-17.64,28.33-26.48,33C146.77,312.73,123.1,268.83,123.1,268.83Z" style="fill: rgb(235, 148, 129); transform-origin: 171.84px 265.892px;" id="elljkez7nlza8" class="animable"></path><path d="M174.18,236.16c4-.73,8-1.49,12.1-1.85s8.13-.59,12.2-.58c10,0,16.23,1.62,15.83,1.56-9.37-1.32-23.91-.23-28,.13s-8.11.53-12.16.89C174.08,236.32,174.08,236.17,174.18,236.16Z" style="fill: rgb(38, 50, 56); transform-origin: 194.214px 235.02px;" id="eljp2sufp94y" class="animable"></path><path d="M175.23,250.82c5.15-.7,10.24-1.59,15.43-2.06s10.09-.47,15.27-.59c.4,0,.28.21-.12.23-5.17.33-9.93,1-15.1,1.41s-10.35.56-15.48,1.13C175.15,251,175.15,250.83,175.23,250.82Z" style="fill: rgb(38, 50, 56); transform-origin: 190.673px 249.561px;" id="elnhqrsblj6n" class="animable"></path><path d="M173.87,263.57c7.82-1.48,15.9-1.51,23.83-1.35.4,0,.2.27-.2.28-7.93.3-14.16.48-23.58,1.34C173.77,263.86,173.7,263.6,173.87,263.57Z" style="fill: rgb(38, 50, 56); transform-origin: 185.844px 262.998px;" id="eltiyfy7bc05" class="animable"></path><path d="M123.75,259l16.44,67.92s-68.95,14-84.24,7.75-2.63-21,.66-24.6C83.38,280.69,123.75,259,123.75,259Z" style="fill: rgb(118, 110, 220); transform-origin: 94.3763px 297.638px;" id="eliope3nozeul" class="animable"></path><path d="M121.42,293.66a15.54,15.54,0,0,0-3.92,2.07,15.54,15.54,0,0,0,4.32-1,15.71,15.71,0,0,0,3.92-2.07A15.54,15.54,0,0,0,121.42,293.66ZM62.87,332.43A15.67,15.67,0,0,0,59,334.49a17.06,17.06,0,0,0,8.24-3.06A15.55,15.55,0,0,0,62.87,332.43Zm59.59-4.87a15.67,15.67,0,0,0-3.92,2.06,17.06,17.06,0,0,0,8.24-3.06A15.21,15.21,0,0,0,122.46,327.56Zm-29.08,5.09a15.5,15.5,0,0,0-2.06-3.92,15.54,15.54,0,0,0,1,4.32c.19.5.4,1,.63,1.49l1-.12C93.78,333.82,93.59,333.23,93.38,332.65Zm-5.92-37.59a15.48,15.48,0,0,0-2.07-3.91,15.55,15.55,0,0,0,1,4.31,15.37,15.37,0,0,0,2.07,3.92A15.54,15.54,0,0,0,87.46,295.06Zm18.15-18.54a15.34,15.34,0,0,0-4.23-1.32,15.5,15.5,0,0,0,3.76,2.36,15.78,15.78,0,0,0,4.23,1.31A15.46,15.46,0,0,0,105.61,276.52ZM70.72,311.67a15.43,15.43,0,0,0-4.23-1.31,17.11,17.11,0,0,0,8,3.66A15.4,15.4,0,0,0,70.72,311.67Zm34.36.48a15.43,15.43,0,0,0-1.31,4.23,17.2,17.2,0,0,0,3.66-8A15.77,15.77,0,0,0,105.08,312.15Z" style="fill: rgb(255, 255, 255); transform-origin: 92.89px 304.87px;" id="elm79dnpubgf" class="animable"></path><path d="M114.62,269.21c5.79,30.48,11.93,51.56,13.2,55.57a.09.09,0,0,0,.17,0c-3.54-21.43-12.27-53.77-13-55.65C114.89,268.89,114.59,269,114.62,269.21Z" style="fill: rgb(38, 50, 56); transform-origin: 121.304px 296.917px;" id="elf9ufezhguqt" class="animable"></path><path d="M124.36,259.45c-.11-.32-.21-.65-.32-1a.59.59,0,0,0-.73-.39,71.09,71.09,0,0,0-7.44,4q-3.68,2.13-7.28,4.4-7.17,4.49-14,9.44a237,237,0,0,0-25.93,21.61l0,0a23.59,23.59,0,0,0-2.13,1.08c-.93.51-1.85,1.06-2.76,1.61-1.86,1.12-3.56,2.46-5.35,3.7a.08.08,0,0,0,.09.13c1.76-1.19,3.67-2.16,5.5-3.24.89-.52,1.79-1,2.69-1.53l.41-.22c-4,4-7.88,8.05-11.55,12.31a.08.08,0,0,0,.11.11q11.91-11.88,24.83-22.67A283.29,283.29,0,0,1,107.57,269q3.93-2.55,8-4.95c2.58-1.54,5.25-2.95,7.76-4.58.08.12.15.24.22.36A.47.47,0,0,0,124.36,259.45Z" style="fill: rgb(38, 50, 56); transform-origin: 89.956px 284.754px;" id="el5f0nmrmao8m" class="animable"></path><path d="M138,317.52a.1.1,0,0,0-.2.06c.36,1.57,1.88,8.44,2,8.93-2.5.32-5,.82-7.43,1.28-2.73.51-5.48,1-8.22,1.46-5.49.92-11,1.79-16.52,2.52s-11,1.34-16.59,1.86-11.07,1-16.62,1.32a139.81,139.81,0,0,1-18.76-.11c-.11,0-.12.16,0,.18,10.92,2.21,22.21,1.54,33.24.55s22.3-2.41,33.36-4.21c3.07-.5,6.13-1.05,9.19-1.63a94.13,94.13,0,0,0,9.82-2.07C141.72,327.54,138.7,319,138,317.52Z" style="fill: rgb(38, 50, 56); transform-origin: 98.4446px 326.971px;" id="elwss0pd8f4pb" class="animable"></path><path d="M121.29,193.69c.46,2.44,9.86,19.09,22.78,17.22,5.43-.79,3.88-18.38,3.88-18.38L153.7,171l-26.55-18.43S121.1,192.66,121.29,193.69Z" style="fill: rgb(235, 148, 129); transform-origin: 137.493px 181.813px;" id="elp1ji3v50wnn" class="animable"></path><path d="M153.7,171l-5.58,20.9a44.24,44.24,0,0,1-23.22-24.25c1.21-8.16,2.25-15.08,2.25-15.08Z" style="fill: rgb(38, 50, 56); transform-origin: 139.3px 172.235px;" id="elq2twoxf026a" class="animable"></path><path d="M184.61,143.49c.76,36.5-21,41.07-28.89,41.22-7.14.14-31.49-.29-36-36.51s12.21-48.11,28.53-49.3S183.86,107,184.61,143.49Z" style="fill: rgb(235, 148, 129); transform-origin: 151.801px 141.762px;" id="el6voxi7e9y8s" class="animable"></path><path d="M177.77,138.08a25,25,0,0,1-2.44-.65,4,4,0,0,1-2.36-1.12,1.29,1.29,0,0,1,.08-1.59,3.18,3.18,0,0,1,3.2-.59,4.74,4.74,0,0,1,2.89,1.81A1.39,1.39,0,0,1,177.77,138.08Z" style="fill: rgb(38, 50, 56); transform-origin: 176.052px 136.014px;" id="el2us1k3hvp82" class="animable"></path><path d="M152.61,140a23.46,23.46,0,0,0,2.49-.4,4,4,0,0,0,2.46-.89,1.29,1.29,0,0,0,.07-1.58,3.21,3.21,0,0,0-3.13-.91,4.76,4.76,0,0,0-3.05,1.52A1.39,1.39,0,0,0,152.61,140Z" style="fill: rgb(38, 50, 56); transform-origin: 154.505px 138.061px;" id="elr2e2o94l0wr" class="animable"></path><path d="M157.88,147.05c0-.1-.2.11-.2.21,0,2.49-.39,5.34-2.66,6.1-.07,0-.06.15,0,.14C157.79,153.19,158.29,149.4,157.88,147.05Z" style="fill: rgb(38, 50, 56); transform-origin: 156.489px 150.262px;" id="ell1r3a2ep2hg" class="animable"></path><path d="M155.73,144.39c-4-.4-4.51,7.6-.82,8S159.07,144.73,155.73,144.39Z" style="fill: rgb(38, 50, 56); transform-origin: 155.197px 148.39px;" id="el7do4ewahb6p" class="animable"></path><path d="M154.13,144.71c-.73.41-1.47,1.17-2.32,1.2s-1.66-.86-2.25-1.71c-.06-.08-.13,0-.14.09-.12,1.53.36,3.14,2,3.48s2.66-1,3.14-2.5C154.64,145,154.42,144.55,154.13,144.71Z" style="fill: rgb(38, 50, 56); transform-origin: 151.99px 145.995px;" id="elmsg42ojdiol" class="animable"></path><path d="M172.51,146.93c0-.1.19.13.18.23-.26,2.47-.14,5.35,2,6.33.07,0,.05.16,0,.14C172,153.05,171.87,149.23,172.51,146.93Z" style="fill: rgb(38, 50, 56); transform-origin: 173.463px 150.269px;" id="eln37787i4qrh" class="animable"></path><path d="M174.91,144.5c4,0,3.74,8,0,8S171.55,144.51,174.91,144.5Z" style="fill: rgb(38, 50, 56); transform-origin: 175.029px 148.5px;" id="elr2448u9jpe" class="animable"></path><path d="M176.57,145.08c.62.45,1.22,1.24,2,1.32s1.56-.76,2.14-1.57c.07-.09.13,0,.13.09,0,1.53-.57,3.11-2.06,3.36s-2.29-1.13-2.6-2.67C176.09,145.33,176.32,144.9,176.57,145.08Z" style="fill: rgb(38, 50, 56); transform-origin: 178.5px 146.551px;" id="el84l2yc4f6ln" class="animable"></path><path d="M156.88,166.15c.53.65,1,1.51,1.92,1.68a6.47,6.47,0,0,0,2.72-.32c.09,0,.16.07.1.14a3.36,3.36,0,0,1-3.29,1,2.66,2.66,0,0,1-1.7-2.4C156.61,166.09,156.81,166.06,156.88,166.15Z" style="fill: rgb(38, 50, 56); transform-origin: 159.135px 167.424px;" id="elx77ah823w2" class="animable"></path><path d="M167.74,157.73s.31,3.74.22,5.49c0,.16-.44.22-1,.22,0,0-.05,0-.07,0A8.33,8.33,0,0,1,159,159.9c-.11-.17.12-.34.27-.22a12.58,12.58,0,0,0,7.48,2.57c.15-.47-.75-6.37-.48-6.38a15.44,15.44,0,0,1,3.93,1.11c-.43-7.8-2.11-15.46-2.42-23.23a.24.24,0,0,1,.46-.09c2.33,7.91,3,16.87,3.67,24.91C172,159.57,168.42,158.07,167.74,157.73Z" style="fill: rgb(38, 50, 56); transform-origin: 165.441px 148.51px;" id="el58kotzu6j3h" class="animable"></path><path d="M119.9,148.51c4-.06,15-10.68,16.26-30.16,0,0-2.29,17.41-3.72,19.92s6.15-6,7.34-21.67c0,0,8.42,6.67,15.75,9.09s11.87,2.55,12.42,2-10.21-4.45-13-8c0,0,19.33,10.07,28.39,11.18,1,.13,3.29-21.46-10.36-31.28s-36.38-.92-42.64,4.6c0,0-7.08.68-15.2,10.74S115.54,148.57,119.9,148.51Z" style="fill: rgb(38, 50, 56); transform-origin: 147.948px 121.849px;" id="eliwe67noyn5" class="animable"></path><path d="M125.9,148.39s-7.2-11.89-12.54-9.4-.46,19.37,5.45,22a6.17,6.17,0,0,0,8.47-2.77Z" style="fill: rgb(235, 148, 129); transform-origin: 119.173px 150.183px;" id="elw46lhc1kpu" class="animable"></path><path d="M114.88,143.8c-.1,0-.12.12,0,.16,4.13,2,6.11,6.08,7.4,10.27-1.16-1.66-2.82-2.63-5-1.27-.12.07,0,.25.1.24a3.79,3.79,0,0,1,4.08,1.59,18.33,18.33,0,0,1,1.77,3.51c.18.39.88.23.76-.21l0-.1C124.37,152.58,120.66,144.72,114.88,143.8Z" style="fill: rgb(38, 50, 56); transform-origin: 119.407px 151.161px;" id="el9s58ddry30e" class="animable"></path><path d="M148.62,191.69l-5.06,16.4-22.37-18-5.16,7s23.06,29.75,23,28.3l5.46-14.24,10.69,8.51L152.12,196Z" style="fill: rgb(118, 110, 220); transform-origin: 135.605px 207.766px;" id="eluatps701arg" class="animable"></path><path d="M154.38,207.88c-.65-3.89-1.19-7.82-2-11.68,0-.13-.27-.17-.28,0-.46,3.86,2.11,18.71,2.44,22.3l-.05,0c-.45-.37-9.87-7.44-9.94-7.31-1.26,2.3-5.27,12.68-5.52,13.61-3.65-4.73-19-23.27-23.2-27.67-.12-.12-.33,0-.23.16,3.31,5.05,23.18,29.55,23.42,29.46a152.48,152.48,0,0,0,5.69-15.05c1.63,1.58,11.24,9.66,11.21,9.07A118.18,118.18,0,0,0,154.38,207.88Z" style="fill: rgb(38, 50, 56); transform-origin: 135.747px 211.419px;" id="el8n8jojhrp5b" class="animable"></path></g><g id="freepik--character-2--inject-162" class="animable" style="transform-origin: 257.042px 289.172px;"><path d="M295.5,262.06a1.13,1.13,0,0,1-.87,1.2l-4.43.22c-3.94-11.14-8.2-20-7.09-16.56a61,61,0,0,1,2.73,16.75c-1.95.08-6.48.22-8.74.29-3.4-19.55-7.78-34.08-7.52-29.61,1.07,18,.06,23.75-1.12,29.9-21.11.62-48.79,1.1-68.82,1-2.29-10.81-4.28-22.5-4.63-21.7-2.75,6-3.51,14.84-3.59,21.64-6.38-.09-11.47-.28-14.58-.56,0,0-1.46-9.08-1.67-12.06a65.93,65.93,0,0,1,2.29-22.64c2.13-7.5,5.82-14.09,9.31-20.85a1,1,0,0,1,.08-.15s0,0,0-.05a65.24,65.24,0,0,0,5.36-13.94.23.23,0,0,0,0-.1A65.15,65.15,0,0,0,194,184.08c1-13.27,8-24.63,19.67-27.91,14.22-16.31,45.15-12,51.78,5.17.64,1.68,1.26,3.59,1.86,5.68l0,.07c2.24,7.73,4.24,17.74,6.09,25.48,0,0,0,0,0,0s0,0,0,.09v0c.9,3.69.76,6.85,1.59,9C280.54,215.68,293.25,223.81,295.5,262.06Z" style="fill: rgb(38, 50, 56); transform-origin: 235.25px 205.607px;" id="ely577djg0wj" class="animable"></path><path d="M208.52,159.73c-7.67,4.13-12.38,10.28-13.59,20-.71,5.64-1.07,11.15-3.11,16.45-2.11,5.47-5.44,9.92-8.85,14.37-5.43,7.06-9.23,14.13-10.09,23.63-.88,9.66-.47,21.08,2.56,30.16,0,.06.09,0,.07,0-2.45-9.2-2.48-21.87-.94-31.42,1.7-10.5,7.28-17,13-24.9A44.79,44.79,0,0,0,196,186.64c.58-4.78.53-9.77,2.34-14.26,2.17-5.35,6.47-8.69,10.73-11.65C209.64,160.32,209.1,159.42,208.52,159.73Z" style="fill: rgb(38, 50, 56); transform-origin: 190.892px 212.016px;" id="elqx64cngwbb" class="animable"></path><path d="M287.8,216.82c-5.38-7.64-10-14.2-13.14-23.61-2.86-8.58-4.49-17.62-7.41-26.19a.1.1,0,1,0-.19.06c4.49,15.21,4.33,30.49,13.41,43.38,4.94,7,9.88,13.5,13.13,21.85a79.17,79.17,0,0,1,5.07,27.43c0,.34.4.33.43,0A65,65,0,0,0,287.8,216.82Z" style="fill: rgb(38, 50, 56); transform-origin: 283.211px 213.467px;" id="el6oqnnivl9o8" class="animable"></path><path d="M232.68,245.94C268,283,315,369.68,321,382.87c4.11,9-42.74,31.75-44.62,25.25-2.41-8.32-46.38-99-55.9-148.55C216.34,237.87,225.54,238.46,232.68,245.94Z" style="fill: rgb(247, 169, 160); transform-origin: 270.352px 325.257px;" id="elbpou6fjsjlc" class="animable"></path><path d="M274.3,402c1.56,4.45,6.81,23.35,10.64,25.75s24.11,2.19,34.32,2.33,12.27-2.67,12.16-6.19-21.55-4.5-21.55-4.5,28.51,8.62,35.7,10.06,23.71,5.87,26.2-.07c1.12-2.68-3.39-5.47-3.39-5.47s6.94,2.14,8.09-1.31c1.32-3.92-4.18-6.17-4.18-6.17s4.34.94,4.48-2.27c.33-7.17-26.85-11.09-26.85-11.09s20.7,10.45,21.46,4.61c1-8.09-41.57-17.59-46-21.19a30.41,30.41,0,0,1-7-8.9Z" style="fill: rgb(247, 169, 160); transform-origin: 325.537px 404.991px;" id="el4igh53e18wd" class="animable"></path><path d="M331.24,425.65a3.16,3.16,0,0,0-.93-2.75,9.12,9.12,0,0,0-2.47-1.65,33.62,33.62,0,0,0-5.83-2c-4-1.08-8.13-1.86-12.22-3a50.13,50.13,0,0,1,12.59,1.6,23.23,23.23,0,0,1,6,2.39,8,8,0,0,1,2.48,2.2A3.27,3.27,0,0,1,331.24,425.65Z" style="fill: rgb(38, 50, 56); transform-origin: 320.644px 420.95px;" id="elyf71o8wjfwi" class="animable"></path><path d="M368.38,423.89c-2.93-.76-5.82-1.63-8.71-2.51s-5.76-1.81-8.63-2.72l-8.58-2.82c-2.87-.95-5.73-1.88-8.62-2.79a67.54,67.54,0,0,1,8.92,1.73c2.95.71,5.84,1.6,8.72,2.52s5.74,1.93,8.55,3S365.65,422.58,368.38,423.89Z" style="fill: rgb(38, 50, 56); transform-origin: 351.11px 418.47px;" id="eljietlx7hsts" class="animable"></path><path d="M340.86,406a56,56,0,0,1,8.24,1.26,77.85,77.85,0,0,1,8,2.19,75,75,0,0,1,7.78,3,59,59,0,0,1,7.36,3.92c-2.62-1-5.17-2-7.78-2.9s-5.19-1.85-7.81-2.7-5.24-1.67-7.88-2.49S343.53,406.76,340.86,406Z" style="fill: rgb(38, 50, 56); transform-origin: 356.55px 411.185px;" id="el1dip2s8r2ps" class="animable"></path><path d="M345.17,399.22a55.67,55.67,0,0,1,25.12,9c-4.22-1.57-8.31-3.22-12.5-4.68S349.42,400.66,345.17,399.22Z" style="fill: rgb(38, 50, 56); transform-origin: 357.73px 403.72px;" id="elv3limddohyr" class="animable"></path><path d="M263.43,401.41l57.86-21.36s-51.54-96.55-79.4-127.25c-25.13-27.69-25.42-4.64-22.43,11.53C226.13,300.37,263.43,401.41,263.43,401.41Z" style="fill: rgb(199, 199, 199); transform-origin: 269.73px 320.649px;" id="elfy0ckq06tn9" class="animable"></path><path d="M288.57,322l-49,11.5c-3-9.05-6-18.23-8.74-27l42.22-9.91C278.34,305,283.58,313.6,288.57,322Z" style="fill: rgb(235, 235, 235); transform-origin: 259.7px 315.045px;" id="el48ib2csuspf" class="animable"></path><path d="M270.62,292.71l-41,9.63q-.77-2.46-1.48-4.86l39.61-9.29Q269.17,290.43,270.62,292.71Z" style="fill: rgb(235, 235, 235); transform-origin: 249.38px 295.265px;" id="elwr4m2k3qgbk" class="animable"></path><path d="M301.06,387.52l-37.63,13.89s-37.3-101-44-137.08c-2.17-11.76-2.61-27.15,7-24C239.44,266.2,288.87,361,301.06,387.52Z" style="fill: rgb(166, 166, 166); transform-origin: 259.602px 320.662px;" id="elh5oedxph319" class="animable"></path><path d="M313.09,369.85a531.43,531.43,0,0,0-51,18.59c-.1.05-.06.19,0,.16,19.78-5.7,49.38-17.52,51.08-18.44A.17.17,0,0,0,313.09,369.85Z" style="fill: rgb(38, 50, 56); transform-origin: 287.637px 379.227px;" id="elb1d5t9ix1mi" class="animable"></path><path d="M269.18,421.8H185.64c-5.09-19.41-9.76-36.57-12.74-47.4-1.87-6.81-3.07-11.13-3.3-11.94l0-.14h86.87s1,4.54,2.65,12.18c1.05,4.92,2.39,11.14,3.92,18.25.13.62.27,1.25.4,1.9C265.15,402.79,267.12,412,269.18,421.8Z" style="fill: rgb(69, 90, 100); transform-origin: 219.39px 392.06px;" id="eljuu5n5qbho" class="animable"></path><path d="M198.3,421.8h-1.57q-6.4-23.62-12.51-47.33l-.34-1.33a.3.3,0,0,1,.57-.17c.15.5.3,1,.44,1.5C189.5,390.2,193.93,406,198.3,421.8Z" style="fill: rgb(38, 50, 56); transform-origin: 191.088px 397.296px;" id="elgiv6obqpxsn" class="animable"></path><path d="M249.65,362.46a82,82,0,0,1-3,12.18c-1,3.16-2.14,6.58-3.47,10.1-.28.8-.6,1.58-.91,2.38-4.21,10.73-9.75,21.66-15.4,26.85h0a14.15,14.15,0,0,1-2.18,1.71l-4.84,3a.17.17,0,0,1,0,.07h0c0,.29-.22,1.34-.5,3H137.85c-2.08-18.88,2.26-36.55,6.05-47.62a98.5,98.5,0,0,1,4.73-11.72Z" style="fill: rgb(69, 90, 100); transform-origin: 193.48px 392.08px;" id="eleutx3a4d1" class="animable"></path><path d="M240,409.37a154.74,154.74,0,0,1-15.81,7.56c-1.44.62-2.88,1.23-4.34,1.82h0l-.27.11c-1.26.52-2.52,1-3.79,1.51s-2.46,1-3.71,1.43h-2.76c1.9-1,3.89-1.77,5.82-2.63q4-1.8,8.08-3.57c1.23-.53,2.46-1.07,3.68-1.62h0c4.21-1.87,8.41-3.74,12.74-5.32C240.07,408.49,240.35,409.14,240,409.37Z" style="fill: rgb(38, 50, 56); transform-origin: 224.739px 415.216px;" id="elzl7ajnsyrrb" class="animable"></path><path d="M219.84,418.81c0,.64-.05,1.69-.17,3h-.91c.28-1.22.54-2.22.78-2.94a.26.26,0,0,1,0-.08.13.13,0,0,1,.24,0h0A.06.06,0,0,1,219.84,418.81Z" style="fill: rgb(38, 50, 56); transform-origin: 219.3px 420.26px;" id="elqyy83ltp2a" class="animable"></path><path d="M156.52,367.54c-1.1,2.2-2.1,4.44-3,6.73A90.55,90.55,0,0,0,147.34,418c.15,1.29.33,2.57.53,3.85h-1.44a90.35,90.35,0,0,1-1-11.26,85.91,85.91,0,0,1,7.12-36.29c1-2.38,2.2-4.71,3.46-7C156.21,367,156.68,367.23,156.52,367.54Z" style="fill: rgb(38, 50, 56); transform-origin: 150.98px 394.505px;" id="elhpmha6wn0jl" class="animable"></path><path d="M217.8,396.08c.07-3.14.3-6.28.45-9.41.37-7.4.65-14.85,1.34-22.23a.23.23,0,0,1,.46,0c.09,5.73-.13,11.47-.24,17.2-.06,2.86-.14,5.73-.22,8.59a80.32,80.32,0,0,0-.06,8.21c.16,2.06.61,6.08,3.3,6.32,2.54.24,4.55-2.5,5.19-4.51,1.6-5.09,2.18-10.6,2.7-15.9.31-3.14.67-15.92.5-19.09,0-.21.3-.2.31,0,.18,3.23.62,6.44.73,9.69s.12,6.47-.09,9.69-.46,6.2-.93,9.26a32.9,32.9,0,0,1-2,8.19c-.93,2.17-2.54,4.17-5,4.64a5.76,5.76,0,0,1-.91.1c0,.66-.12,1.33-.16,2-.08,1-.2,2.07-.34,3.11a23.76,23.76,0,0,1-.64,3,10.74,10.74,0,0,1-1,2.87.16.16,0,0,1-.29-.09,13.94,13.94,0,0,1,.24-2.95c.14-1,.28-2,.49-3s.39-2,.59-2.94c.13-.66.22-1.33.35-2A4.83,4.83,0,0,1,219,404,17.45,17.45,0,0,1,217.8,396.08Z" style="fill: rgb(38, 50, 56); transform-origin: 225.04px 391.043px;" id="elam9co166uuf" class="animable"></path><path d="M139.22,374.11c.08.12,120.73,1,121.56.28,1.52-1.3-12-96.22-29.74-130.15-3.32-6.35-19.28-16.32-31.85-5.31C161.25,272.18,137.81,371.93,139.22,374.11Z" style="fill: rgb(199, 199, 199); transform-origin: 200.028px 304.335px;" id="eli8tz1ylem5r" class="animable"></path><path d="M253.18,321.85l-98.24-5.06c3.27-9.11,7-18.57,11.17-27.76l80.95,4.17C249.34,302.74,251.39,312.52,253.18,321.85Z" style="fill: rgb(235, 235, 235); transform-origin: 204.06px 305.44px;" id="elwn72n7km6nj" class="animable"></path><path d="M246,288.77l-77.9-4c.79-1.66,1.59-3.32,2.41-4.95l74.18,3.82C245.13,285.33,245.56,287,246,288.77Z" style="fill: rgb(235, 235, 235); transform-origin: 207.05px 284.295px;" id="elzaedaklz8jq" class="animable"></path><path d="M207.57,239.91c1,2.07,9.35,18,19.62,18.6,3.34.2,5.26-18,5.26-18l.45-1.31,6.27-18.36L215.62,202S205.83,236.38,207.57,239.91Z" style="fill: rgb(247, 169, 160); transform-origin: 223.266px 230.256px;" id="elx3iauu57gu" class="animable"></path><path d="M213.08,211.35c.3,2.11.75,4.39,1.36,6.87,3.86,15.35,12.32,20.31,18.17,21.86l.29-.89,6.28-18.35L215.63,202S214.49,206,213.08,211.35Z" style="fill: rgb(38, 50, 56); transform-origin: 226.13px 221.04px;" id="elli8h894w6d" class="animable"></path><path d="M211.35,192.48s-5.53-15,3.36-29.59,32.38-17.55,49.6-4.82c0,0-27.64-8.3-38.77,3.17S211.35,192.48,211.35,192.48Z" style="fill: rgb(118, 110, 220); transform-origin: 236.98px 171.254px;" id="el88alcx61kii" class="animable"></path><path d="M275.67,201.09c-3,34.95-24.29,37.09-31.83,36.43-6.84-.6-30.06-3.51-30.66-38.58s16.59-44.73,32.31-44.19S278.69,166.13,275.67,201.09Z" style="fill: rgb(247, 169, 160); transform-origin: 244.589px 196.169px;" id="elbhivg7zuxua" class="animable"></path><path d="M272.18,193.85a22.71,22.71,0,0,1-2.35-.84,4,4,0,0,1-2.24-1.31,1.26,1.26,0,0,1,.21-1.55,3.18,3.18,0,0,1,3.21-.33,4.7,4.7,0,0,1,2.7,2A1.37,1.37,0,0,1,272.18,193.85Z" style="fill: rgb(38, 50, 56); transform-origin: 270.66px 191.714px;" id="el1il69pc3jji" class="animable"></path><path d="M247.66,191.76a20.87,20.87,0,0,0,2.49-.19,4.07,4.07,0,0,0,2.51-.67,1.3,1.3,0,0,0,.2-1.56,3.2,3.2,0,0,0-3-1.16,4.7,4.7,0,0,0-3.14,1.26A1.37,1.37,0,0,0,247.66,191.76Z" style="fill: rgb(38, 50, 56); transform-origin: 249.685px 189.95px;" id="elifvkdk1rmbg" class="animable"></path><path d="M250.4,196.78c-3.91-.73-5.08,7.14-1.46,7.82S253.68,197.39,250.4,196.78Z" style="fill: rgb(38, 50, 56); transform-origin: 249.554px 200.687px;" id="elprrsll90sb" class="animable"></path><path d="M248.79,197c-.75.34-1.54,1-2.38,1s-1.57-1-2.08-1.86c-.06-.09-.13,0-.15.07-.25,1.5.1,3.14,1.68,3.6s2.71-.75,3.31-2.21C249.28,197.28,249.1,196.83,248.79,197Z" style="fill: rgb(38, 50, 56); transform-origin: 246.655px 198.006px;" id="elhqk8gn7ckdp" class="animable"></path><path d="M268.11,198.55c4,.32,3,8.22-.64,7.92S264.79,198.28,268.11,198.55Z" style="fill: rgb(38, 50, 56); transform-origin: 267.917px 202.511px;" id="elm43my66vhos" class="animable"></path><path d="M269.69,199.26c.58.5,1.11,1.33,1.85,1.47s1.6-.63,2.24-1.38c.07-.08.13,0,.12.1-.14,1.51-.82,3-2.31,3.15s-2.17-1.3-2.36-2.85C269.2,199.46,269.46,199.07,269.69,199.26Z" style="fill: rgb(38, 50, 56); transform-origin: 271.564px 200.91px;" id="el57j09pwnpvn" class="animable"></path><path d="M248.51,218.46c.47.68.89,1.57,1.76,1.82a6.57,6.57,0,0,0,2.72-.1.08.08,0,0,1,.08.14,3.33,3.33,0,0,1-3.33.72,2.62,2.62,0,0,1-1.48-2.51C248.25,218.38,248.44,218.36,248.51,218.46Z" style="fill: rgb(38, 50, 56); transform-origin: 250.683px 219.806px;" id="el0i2p6113gsyj" class="animable"></path><path d="M259.93,211s0,3.71-.23,5.43c0,.16-.45.18-1,.14,0,0-.05,0-.07,0a8.24,8.24,0,0,1-7.52-4.14.18.18,0,0,1,.29-.21,12.44,12.44,0,0,0,7.17,3.17c.19-.46-.21-6.43.06-6.35,1.11.35,3.06,1.13,3.78,1.42.06-2.41-.14-9.27,0-13.67,0-.27.43-.3.46,0a115.62,115.62,0,0,1,1.13,15.43C263.93,212.61,260.58,211.42,259.93,211Z" style="fill: rgb(38, 50, 56); transform-origin: 257.543px 206.582px;" id="el3l1fvdbg5rf" class="animable"></path><path d="M258.7,215.27a10.14,10.14,0,0,1-4.11,3,4.54,4.54,0,0,1-2.76.11c-2-.57-2-2.4-1.6-4a11.15,11.15,0,0,1,1-2.38A13.1,13.1,0,0,0,258.7,215.27Z" style="fill: rgb(38, 50, 56); transform-origin: 254.361px 215.272px;" id="elahnbvqr2mde" class="animable"></path><path d="M254.59,218.31a4.54,4.54,0,0,1-2.76.11c-2-.57-2-2.4-1.6-4C252.37,214.73,254.45,216.23,254.59,218.31Z" style="fill: rgb(255, 155, 188); transform-origin: 252.305px 216.502px;" id="el9r0owulo6n" class="animable"></path><path d="M215.74,198c6.18,2.24,11.09-12,11.09-12s28.14,1.51,35.4-20c0,0,1.48,15.11,14.24,24.67,0,0,4.49-24.41-13.63-33.42,0,0-21.85-14-39.47,1.86S211.6,196.54,215.74,198Z" style="fill: rgb(38, 50, 56); transform-origin: 244.172px 174.892px;" id="els2oz46s8748" class="animable"></path><path d="M262.69,164.42a24.4,24.4,0,0,1-3.48,9.8,25.49,25.49,0,0,1-7.12,7.76,20.68,20.68,0,0,1-2.24,1.42l-1.14.68c-.39.19-.8.36-1.2.54-.82.34-1.62.71-2.44,1s-1.7.48-2.54.71c-.43.11-.85.24-1.27.33l-1.3.19-2.59.38c-1.74.09-3.48.09-5.2.06,1.71-.33,3.42-.48,5.09-.82l2.49-.59,1.24-.29c.41-.12.8-.28,1.2-.42.79-.3,1.59-.58,2.39-.84s1.52-.72,2.28-1.08l1.14-.53,1.07-.66a20,20,0,0,0,2.1-1.38,31,31,0,0,0,9.61-11.51A29.49,29.49,0,0,0,262.69,164.42Z" style="fill: rgb(38, 50, 56); transform-origin: 247.43px 175.864px;" id="el8ks6pe1odzr" class="animable"></path><path d="M220.07,200.08s-5.84-12.49-11.37-10.59-2.5,19,3.05,22.28a6.12,6.12,0,0,0,8.64-1.83Z" style="fill: rgb(247, 169, 160); transform-origin: 213.081px 201.061px;" id="el4rz0y5bw9hv" class="animable"></path><path d="M209.69,194.38a.08.08,0,0,0-.06.15c3.87,2.41,5.38,6.65,6.22,10.91-1-1.75-2.51-2.89-4.82-1.78-.12.06-.05.25.07.25a3.77,3.77,0,0,1,3.86,2,18.81,18.81,0,0,1,1.38,3.64c.13.41.83.33.76-.12,0,0,0-.07,0-.11C218.12,204,215.29,195.91,209.69,194.38Z" style="fill: rgb(38, 50, 56); transform-origin: 213.442px 202.096px;" id="el7nueudzgz5x" class="animable"></path><g id="elqj54aipj419"><rect x="302.1" y="249.09" width="0.98" height="5.31" style="fill: rgb(38, 50, 56); transform-origin: 302.59px 251.745px; transform: rotate(22.3deg);" class="animable"></rect></g><path d="M306.73,248.26c-1.47,2.84-3.72,2.48-3.72,2.48s-1.85-1.32-.91-4.38,4.93-5.43,4.93-5.43S308.2,245.43,306.73,248.26Z" style="fill: rgb(118, 110, 220); transform-origin: 304.652px 245.842px;" id="el16k8bds67ag" class="animable"></path><g id="elzxbycxqrreg"><path d="M306.73,248.26c-1.47,2.84-3.72,2.48-3.72,2.48s-1.85-1.32-.91-4.38,4.93-5.43,4.93-5.43S308.2,245.43,306.73,248.26Z" style="opacity: 0.1; transform-origin: 304.652px 245.842px;" class="animable"></path></g><path d="M305.58,249a1.86,1.86,0,1,1-3.2-1.31c.65-2.11,3.4-3.74,3.4-3.74S306.59,247.07,305.58,249Z" style="fill: rgb(118, 110, 220); transform-origin: 303.974px 247.395px;" id="eluaz6jd3x8c" class="animable"></path><polygon points="288.02 296.68 281.43 293.98 298.64 252.51 304.87 255.07 288.02 296.68" style="fill: rgb(219, 219, 219); transform-origin: 293.15px 274.595px;" id="el0dcpy9vsmaad" class="animable"></polygon><path d="M298.92,253.12a13.08,13.08,0,0,0,1.21.78,12.56,12.56,0,0,0,1.29.6,10.32,10.32,0,0,0,1.36.45c.46.13.93.22,1.41.33h-.74a6,6,0,0,1-.73-.08,6.94,6.94,0,0,1-1.42-.39,6.6,6.6,0,0,1-1.31-.7A4.63,4.63,0,0,1,298.92,253.12Z" style="fill: rgb(199, 199, 199); transform-origin: 301.555px 254.2px;" id="elc4r346edfea" class="animable"></path><path d="M183.1,262.7C160.6,311.06,139.19,379.37,159,389.76c13.17,6.91,39.65-62.57,39.94-63.48,1-3.13,5.81-24.3,8.38-61.81C209.71,229.81,193.15,241.1,183.1,262.7Z" style="fill: rgb(199, 199, 199); transform-origin: 179.363px 316.291px;" id="eljohjzo2f8vi" class="animable"></path><path d="M202.57,308.19A162.06,162.06,0,0,1,199,326.28c-.07.23-1.82,4.83-4.59,11.48l-39.7,5.05A301.85,301.85,0,0,1,163,313.23Z" style="fill: rgb(235, 235, 235); transform-origin: 178.64px 325.5px;" id="elyq0j7rzwdt" class="animable"></path><path d="M204,298.5c-.24,1.82-.48,3.56-.72,5.2l-38.72,4.93c.61-1.78,1.24-3.57,1.89-5.35Z" style="fill: rgb(235, 235, 235); transform-origin: 184.28px 303.565px;" id="elqmksqap693" class="animable"></path><path d="M207.41,277.77c-.53,2.2-1,4.41-1.5,6.63.05-.56.1-1.12.14-1.68.31-4.55.58-9.1.85-13.65a.08.08,0,0,0-.15,0c-.95,8-2,16-2.95,24s-1.94,15.95-3.27,23.87c-.76,4.49-1.52,9-2.6,13.45,0,.09.11.14.14.05,1-3.9,2.13-7.76,3-11.7s1.63-7.85,2.26-11.8q1.42-9,2.24-18a110.21,110.21,0,0,0,2.11-11.1C207.68,277.68,207.44,277.63,207.41,277.77Z" style="fill: rgb(38, 50, 56); transform-origin: 202.805px 299.753px;" id="el2z4uh4f63rr" class="animable"></path><path d="M177.43,275q-3,6.38-5.75,12.83c.44-2,1-4,1.47-6a.12.12,0,0,0-.23-.08,30.38,30.38,0,0,0-1.91,7.6c-3.28,7.69-6.35,15.47-9.08,23.37a203.44,203.44,0,0,0-9.83,39.31,111.31,111.31,0,0,0-.93,22.49.1.1,0,0,0,.2,0A193.91,193.91,0,0,1,153,354.44a185.54,185.54,0,0,1,3.9-19.68,326.24,326.24,0,0,1,12.69-38.28c2.76-7.09,5.52-14.18,8.22-21.3C177.92,275,177.53,274.8,177.43,275Z" style="fill: rgb(38, 50, 56); transform-origin: 164.4px 324.768px;" id="el7m8u7299e6v" class="animable"></path><path d="M159,389.7c18.32,9.05,71.57-16.15,103.59-38.21,6.09-4.19-35.1-57.23-41.06-52C187.51,329.14,138.94,379.79,159,389.7Z" style="fill: rgb(247, 169, 160); transform-origin: 208.752px 345.359px;" id="elzyv441mdnsr" class="animable"></path><path d="M306.17,274.93c1.65,6.89-15.68,9.53-15.68,9.53a13.08,13.08,0,0,1,6.81,5.72c2.47,4.78-3.94,10.76-3.94,10.76a16.14,16.14,0,0,1,6.22,7.18c1.91,4.82-3.7,11.78-3.7,11.78a14.11,14.11,0,0,1,1.49,9.75c-2.2,8.81-15.76,12.17-23.75,15.9a183.48,183.48,0,0,0-25.49,15.25L218,302.47s31.36-30.18,41.65-32.08C268.3,268.78,303.64,264.39,306.17,274.93Z" style="fill: rgb(247, 169, 160); transform-origin: 262.14px 314.452px;" id="elryrtu9ewz7h" class="animable"></path><path d="M290.3,284.29c-9.63-.5-19.36,1.3-28.74,3.14a.16.16,0,0,0,.07.32c9.3-1.94,19.34-1.43,28.7-3A.23.23,0,0,0,290.3,284.29Z" style="fill: rgb(38, 50, 56); transform-origin: 275.989px 285.979px;" id="eldx9osfh38p4" class="animable"></path><path d="M293,300.3a24.71,24.71,0,0,0-6.48,1.15q-3.39.84-6.75,1.8-6.74,1.9-13.36,4.15c-.2.07-.14.39.07.33,4.47-1.26,9-2.46,13.49-3.53q3.39-.81,6.8-1.56a30.09,30.09,0,0,0,6.35-1.71A.34.34,0,0,0,293,300.3Z" style="fill: rgb(38, 50, 56); transform-origin: 279.788px 304.019px;" id="eljxnm1rxqu9" class="animable"></path><path d="M295.69,319.94c-1.9-.12-4,.8-5.78,1.34q-3,.95-6.1,1.84c-4.08,1.2-8.16,2.4-12.28,3.46-.2.05-.14.37.07.32,4.19-1,8.39-2,12.57-3.14q3.07-.79,6.15-1.64c1.74-.47,4-.87,5.44-2A.12.12,0,0,0,295.69,319.94Z" style="fill: rgb(38, 50, 56); transform-origin: 283.593px 323.417px;" id="elryf7ci7r42k" class="animable"></path><path d="M283,341.67a57.82,57.82,0,0,0,6.42-3.53,21.62,21.62,0,0,0,5.43-4.59,10.06,10.06,0,0,0,.94-1.43,8.49,8.49,0,0,0,.54-1.59,15,15,0,0,0,.39-3.48,17.26,17.26,0,0,0-1.51-6.84l-.17-.37.24-.27a19.14,19.14,0,0,0,1.7-2.17A25.09,25.09,0,0,0,298.4,315a17.1,17.1,0,0,0,1.07-2.58,12.84,12.84,0,0,0,.47-2.77,9.82,9.82,0,0,1-.09,2.86,15,15,0,0,1-.8,2.78,20.23,20.23,0,0,1-1.28,2.6,21.1,21.1,0,0,1-1.66,2.41l.07-.65A16.83,16.83,0,0,1,298,327a14.43,14.43,0,0,1-.44,3.81,9.56,9.56,0,0,1-.67,1.87,9.71,9.71,0,0,1-1.12,1.62,20.08,20.08,0,0,1-6,4.55,32.13,32.13,0,0,1-3.37,1.56A33.38,33.38,0,0,1,283,341.67Z" style="fill: rgb(38, 50, 56); transform-origin: 291.502px 325.66px;" id="el38uw34fefsu" class="animable"></path><path d="M217.3,300.53l35,63S169.77,406,155.63,387.54,217.3,300.53,217.3,300.53Z" style="fill: rgb(199, 199, 199); transform-origin: 203.086px 346.36px;" id="elrftf4v6e1uf" class="animable"></path><path d="M209.43,314.26c12.57,28.36,23.35,47.49,25.5,51.1.06.1.21,0,.16-.07-8.33-20.06-24.19-49.56-25.35-51.22C209.62,313.89,209.35,314.07,209.43,314.26Z" style="fill: rgb(38, 50, 56); transform-origin: 222.258px 339.699px;" id="ellb4i6j26qf" class="animable"></path><path d="M218.93,301.94c-.52-.68-1.72-2.72-2-2.44-1.12,1-2.31,1.85-3.43,2.83s-2.11,1.86-3.15,2.8c-2.15,1.93-4.25,3.91-6.33,5.91q-6.19,6-12.06,12.25T180.57,336.2c-3.65,4.39-7.21,8.89-10.52,13.54l-.62.88a32.79,32.79,0,0,0-4.89,3.58c-1.76,1.57-3.39,3.27-5,5a.08.08,0,0,0,.11.11,46.27,46.27,0,0,1,5.3-4.59l3.36-2.52c-3.14,4.46-6.22,9-9,13.64-.05.09.08.15.14.08,3.4-4.67,6.74-9.39,10.32-13.93s7.08-9,10.78-13.37c7.35-8.7,15-17.1,23.18-25.08q3.41-3.35,6.9-6.58c1.2-1.1,2.39-2.21,3.6-3.3,1-.93,1.8-1.72,2.83-2.65.38.49.74.92,1.12,1.41S219.4,302.56,218.93,301.94Z" style="fill: rgb(38, 50, 56); transform-origin: 189.184px 332.712px;" id="elts93ujg8o2i" class="animable"></path><path d="M250.59,359.48c-.32-.24-.55-.08-.43.23.24.57,1.58,3.06,1.69,3.25-.35.19-.72.35-1.07.51-.54.26-1.07.53-1.6.81l-3,1.55q-3,1.57-6.06,3.08c-2,1-4,2-6.06,3l-3,1.45c-1.07.51-2.1,1.1-3.18,1.59-.08,0,0,.17.07.14,1-.38,2.11-.67,3.15-1.06s2-.76,3-1.15q3.09-1.21,6.14-2.56c2-.88,3.94-1.84,5.88-2.81s3.91-2,5.77-3.12c.53-.33,1.22-.8,1.22-1.05A21.23,21.23,0,0,0,250.59,359.48Z" style="fill: rgb(38, 50, 56); transform-origin: 240.478px 367.229px;" id="el4jaiytn2klv" class="animable"></path></g><g id="freepik--Menorah--inject-162" class="animable" style="transform-origin: 357.335px 339.525px;"><polygon points="366.33 442.83 348.33 442.83 355.35 372.61 359.32 372.61 366.33 442.83" style="fill: rgb(118, 110, 220); transform-origin: 357.33px 407.72px;" id="el2625weqi2jp" class="animable"></polygon><g id="elklit9390qz"><polygon points="362.04 399.87 352.45 401.59 355.35 372.61 359.32 372.61 362.04 399.87" style="opacity: 0.1; transform-origin: 357.245px 387.1px;" class="animable"></polygon></g><g id="ell8xeivxkmh"><polygon points="366.33 442.83 348.33 442.83 350.22 423.95 364.59 425.39 366.33 442.83" style="opacity: 0.1; transform-origin: 357.33px 433.39px;" class="animable"></polygon></g><path d="M392.72,315.3H369.13l-11.8-20.43-11.8,20.43H321.94l11.8,20.44-11.8,20.43h23.59l11.8,20.44,11.8-20.44h23.59l-11.79-20.43ZM375,346h-11.8l-5.9,10.22L351.43,346H339.64l5.89-10.21-5.89-10.22h11.79l5.9-10.22,5.9,10.22H375l-5.9,10.22Z" style="fill: rgb(118, 110, 220); transform-origin: 357.33px 335.74px;" id="elxyccxd06qml" class="animable"></path><path d="M376.75,442.83H337.92c0-7.9,8.9-17.11,19.41-17.11S376.75,434.93,376.75,442.83Z" style="fill: rgb(118, 110, 220); transform-origin: 357.335px 434.275px;" id="elw3syenk17w8" class="animable"></path><g id="elhr90hsqhrt"><path d="M376.75,442.83H337.92a11.67,11.67,0,0,1,.45-3.17l37.18-2.09A13.1,13.1,0,0,1,376.75,442.83Z" style="opacity: 0.1; transform-origin: 357.335px 440.2px;" class="animable"></path></g><rect x="334.51" y="441.06" width="45.65" height="3.98" style="fill: rgb(118, 110, 220); transform-origin: 357.335px 443.05px;" id="eljbrjfn8pmbo" class="animable"></rect><path d="M409.68,311.88c-.9,10.4-4.05,24.61-13.74,35.42-9.07,10.12-22.06,15.25-38.61,15.25s-29.53-5.13-38.6-15.25c-9.69-10.81-12.84-25-13.74-35.42h6.34c.89,9.42,3.76,22,12.09,31.27,7.83,8.72,19.24,13.14,33.91,13.14s26.09-4.42,33.92-13.14c8.33-9.29,11.2-21.85,12.09-31.27Z" style="fill: rgb(118, 110, 220); transform-origin: 357.335px 337.215px;" id="elj7231e5ikt9" class="animable"></path><g id="elln0jfdk1v1"><path d="M311.33,311.88a71.32,71.32,0,0,0,2.8,14.31l-6.54.13a77.06,77.06,0,0,1-2.6-14.44Z" style="opacity: 0.1; transform-origin: 309.56px 319.1px;" class="animable"></path></g><g id="elofvfhdr6xef"><path d="M403.34,311.88h6.34a77.83,77.83,0,0,1-2.07,12.44l-6.56.13A70.86,70.86,0,0,0,403.34,311.88Z" style="opacity: 0.1; transform-origin: 405.365px 318.165px;" class="animable"></path></g><path d="M427,311.88c-.32,11.47-3.06,30.39-16.07,45.13-12,13.61-30,20.51-53.58,20.51-11.77,0-22.17-1.72-31.12-5.15A56.29,56.29,0,0,1,303.75,357c-13-14.74-15.75-33.66-16.07-45.13H294c.35,10.56,2.9,27.92,14.48,41,10.76,12.18,27.19,18.35,48.85,18.35q16.25,0,28.51-4.61a50.13,50.13,0,0,0,20.34-13.74c11.58-13.1,14.13-30.46,14.48-41Z" style="fill: rgb(118, 110, 220); transform-origin: 357.34px 344.695px;" id="elcbuanizfgf9" class="animable"></path><g id="elpeqaqyw3va"><path d="M294,311.88a83.2,83.2,0,0,0,1.79,14.68l-6.44.13a88,88,0,0,1-1.67-14.81Z" style="opacity: 0.1; transform-origin: 291.735px 319.285px;" class="animable"></path></g><g id="elgwgtxofe6zl"><path d="M420.66,311.88H427A87.76,87.76,0,0,1,425.81,324l-6.45.13A84.49,84.49,0,0,0,420.66,311.88Z" style="opacity: 0.1; transform-origin: 423.18px 318.005px;" class="animable"></path></g><path d="M445.32,311.88c-.57,14.39-4.29,39.24-21.52,58.31-15.2,16.8-37.55,25.32-66.47,25.32-14.45,0-27.27-2.13-38.37-6.36a71.57,71.57,0,0,1-28.09-19c-17.23-19.06-20.95-43.92-21.53-58.31h6.34c.62,13.53,4.17,36.8,19.87,54.14,13.95,15.41,34.73,23.22,61.78,23.22q20.3,0,35.8-5.83a65.63,65.63,0,0,0,26-17.39c15.7-17.34,19.24-40.61,19.87-54.14Z" style="fill: rgb(118, 110, 220); transform-origin: 357.33px 353.675px;" id="el7ut66rzwx3d" class="animable"></path><g id="el7g2ejby8av5"><path d="M275.68,311.88a110,110,0,0,0,1.72,15.05l-6.44.13a114.66,114.66,0,0,1-1.62-15.18Z" style="opacity: 0.1; transform-origin: 273.37px 319.47px;" class="animable"></path></g><g id="elungax3i3xp"><path d="M445.32,311.88a113.9,113.9,0,0,1-1.06,11.71l-6.45.13A112.16,112.16,0,0,0,439,311.88Z" style="opacity: 0.1; transform-origin: 441.565px 317.8px;" class="animable"></path></g><rect x="386.35" y="252.33" width="0.98" height="5.31" style="fill: rgb(38, 50, 56); transform-origin: 386.84px 254.985px;" id="el5op0d1kgel9" class="animable"></rect><path d="M389.35,250.18c-.29,3.19-2.5,3.71-2.5,3.71s-2.22-.52-2.51-3.71,2.51-6.89,2.51-6.89S389.64,247,389.35,250.18Z" style="fill: rgb(118, 110, 220); transform-origin: 386.845px 248.59px;" id="eloqx4ygxygda" class="animable"></path><g id="elp16rj7u5q1"><path d="M389.35,250.18c-.29,3.19-2.5,3.71-2.5,3.71s-2.22-.52-2.51-3.71,2.51-6.89,2.51-6.89S389.64,247,389.35,250.18Z" style="opacity: 0.1; transform-origin: 386.845px 248.59px;" class="animable"></path></g><path d="M388.57,251.33a1.86,1.86,0,1,1-3.45,0c-.2-2.19,1.73-4.75,1.73-4.75S388.77,249.14,388.57,251.33Z" style="fill: rgb(118, 110, 220); transform-origin: 386.845px 250.233px;" id="ele76ppkmspb7" class="animable"></path><polygon points="390.41 302.08 383.29 302.08 383.48 257.19 390.21 257.19 390.41 302.08" style="fill: rgb(219, 219, 219); transform-origin: 386.85px 279.635px;" id="eloorj872sam" class="animable"></polygon><path d="M384,257.64a10,10,0,0,0,1.41.26,11.41,11.41,0,0,0,1.43.07,11.3,11.3,0,0,0,1.42-.1c.48-.05.95-.15,1.43-.23l-.68.29a5.6,5.6,0,0,1-.7.2,6.63,6.63,0,0,1-2.94,0A4.73,4.73,0,0,1,384,257.64Z" style="fill: rgb(166, 166, 166); transform-origin: 386.845px 257.968px;" id="ele0ff2hi2poj" class="animable"></path><rect x="327.33" y="252.33" width="0.98" height="5.31" style="fill: rgb(38, 50, 56); transform-origin: 327.82px 254.985px;" id="elafn3l9r55ff" class="animable"></rect><path d="M330.33,250.18c-.29,3.19-2.51,3.71-2.51,3.71s-2.21-.52-2.5-3.71,2.5-6.89,2.5-6.89S330.62,247,330.33,250.18Z" style="fill: rgb(118, 110, 220); transform-origin: 327.825px 248.59px;" id="el4idlk58ho3n" class="animable"></path><g id="el6zuq7o5iip5"><path d="M330.33,250.18c-.29,3.19-2.51,3.71-2.51,3.71s-2.21-.52-2.5-3.71,2.5-6.89,2.5-6.89S330.62,247,330.33,250.18Z" style="opacity: 0.1; transform-origin: 327.825px 248.59px;" class="animable"></path></g><path d="M329.55,251.33a1.86,1.86,0,1,1-3.46,0c-.19-2.19,1.73-4.75,1.73-4.75S329.75,249.14,329.55,251.33Z" style="fill: rgb(118, 110, 220); transform-origin: 327.82px 250.227px;" id="elpser0h3a7cc" class="animable"></path><polygon points="331.38 302.08 324.26 302.08 324.45 257.19 331.19 257.19 331.38 302.08" style="fill: rgb(219, 219, 219); transform-origin: 327.82px 279.635px;" id="elinbiaea9t77" class="animable"></polygon><path d="M324.94,257.64a10.1,10.1,0,0,0,1.42.26,11.25,11.25,0,0,0,1.42.07,11.46,11.46,0,0,0,1.43-.1c.47-.05.94-.15,1.43-.23l-.68.29a5.29,5.29,0,0,1-.71.2,6.59,6.59,0,0,1-2.93,0A4.79,4.79,0,0,1,324.94,257.64Z" style="fill: rgb(166, 166, 166); transform-origin: 327.79px 257.967px;" id="elkijtabk6wr9" class="animable"></path><rect x="308.64" y="252.33" width="0.98" height="5.31" style="fill: rgb(38, 50, 56); transform-origin: 309.13px 254.985px;" id="eldgaqyyzudn7" class="animable"></rect><polygon points="312.69 302.08 305.57 302.08 305.77 257.19 312.5 257.19 312.69 302.08" style="fill: rgb(219, 219, 219); transform-origin: 309.13px 279.635px;" id="elvqzjko4vjy" class="animable"></polygon><path d="M306.25,257.64a10.1,10.1,0,0,0,1.42.26,12,12,0,0,0,2.85,0c.47-.05.94-.15,1.43-.23l-.68.29a5.29,5.29,0,0,1-.71.2,6.59,6.59,0,0,1-2.93,0A4.79,4.79,0,0,1,306.25,257.64Z" style="fill: rgb(166, 166, 166); transform-origin: 309.1px 257.982px;" id="elit4h0nsmcj" class="animable"></path><rect x="356.84" y="243.04" width="0.98" height="5.31" style="fill: rgb(38, 50, 56); transform-origin: 357.33px 245.695px;" id="elon4cvzwpxa" class="animable"></rect><path d="M359.83,240.9c-.28,3.19-2.5,3.71-2.5,3.71s-2.21-.52-2.51-3.71,2.51-6.89,2.51-6.89S360.12,237.72,359.83,240.9Z" style="fill: rgb(118, 110, 220); transform-origin: 357.324px 239.31px;" id="el2m2gqvnyvwe" class="animable"></path><g id="elpxc8w7aefie"><path d="M359.83,240.9c-.28,3.19-2.5,3.71-2.5,3.71s-2.21-.52-2.51-3.71,2.51-6.89,2.51-6.89S360.12,237.72,359.83,240.9Z" style="opacity: 0.1; transform-origin: 357.324px 239.31px;" class="animable"></path></g><path d="M359.06,242.05a1.86,1.86,0,1,1-3.46,0c-.2-2.19,1.73-4.75,1.73-4.75S359.26,239.86,359.06,242.05Z" style="fill: rgb(118, 110, 220); transform-origin: 357.33px 240.947px;" id="el2s4pwq4riqt" class="animable"></path><polygon points="360.89 292.81 353.77 292.81 353.96 247.91 360.7 247.91 360.89 292.81" style="fill: rgb(219, 219, 219); transform-origin: 357.33px 270.36px;" id="elyxpray13ir" class="animable"></polygon><path d="M354.45,248.36a9.84,9.84,0,0,0,1.42.26,11.16,11.16,0,0,0,1.42.07,11.3,11.3,0,0,0,1.42-.1c.48-.05,1-.15,1.43-.23l-.67.29a6.29,6.29,0,0,1-.71.2,6.63,6.63,0,0,1-2.94,0A4.73,4.73,0,0,1,354.45,248.36Z" style="fill: rgb(166, 166, 166); transform-origin: 357.295px 248.688px;" id="elceaiaq1a2ck" class="animable"></path><rect x="405.04" y="252.33" width="0.98" height="5.31" style="fill: rgb(38, 50, 56); transform-origin: 405.53px 254.985px;" id="el2jzo7duacj" class="animable"></rect><path d="M408,250.18c-.29,3.19-2.5,3.71-2.5,3.71s-2.22-.52-2.51-3.71,2.51-6.89,2.51-6.89S408.33,247,408,250.18Z" style="fill: rgb(118, 110, 220); transform-origin: 405.498px 248.59px;" id="elfpiuo67vcfk" class="animable"></path><g id="eljljkwmmnykq"><path d="M408,250.18c-.29,3.19-2.5,3.71-2.5,3.71s-2.22-.52-2.51-3.71,2.51-6.89,2.51-6.89S408.33,247,408,250.18Z" style="opacity: 0.1; transform-origin: 405.498px 248.59px;" class="animable"></path></g><path d="M407.26,251.33a1.86,1.86,0,1,1-3.45,0c-.2-2.19,1.73-4.75,1.73-4.75S407.46,249.14,407.26,251.33Z" style="fill: rgb(118, 110, 220); transform-origin: 405.535px 250.233px;" id="ela1kt21a2qis" class="animable"></path><polygon points="409.1 302.08 401.97 302.08 402.17 257.19 408.9 257.19 409.1 302.08" style="fill: rgb(219, 219, 219); transform-origin: 405.535px 279.635px;" id="elf588i9f0k3j" class="animable"></polygon><path d="M402.66,257.64a10,10,0,0,0,1.41.26,11.41,11.41,0,0,0,1.43.07,11.3,11.3,0,0,0,1.42-.1c.47-.05.95-.15,1.43-.23l-.68.29a5.6,5.6,0,0,1-.7.2,6.63,6.63,0,0,1-2.94,0A4.73,4.73,0,0,1,402.66,257.64Z" style="fill: rgb(166, 166, 166); transform-origin: 405.505px 257.968px;" id="el5759rhn62mt" class="animable"></path><rect x="422.59" y="252.33" width="0.98" height="5.31" style="fill: rgb(38, 50, 56); transform-origin: 423.08px 254.985px;" id="eltq2fvc3oqh" class="animable"></rect><path d="M425.59,250.18c-.29,3.19-2.5,3.71-2.5,3.71s-2.22-.52-2.51-3.71,2.51-6.89,2.51-6.89S425.88,247,425.59,250.18Z" style="fill: rgb(118, 110, 220); transform-origin: 423.085px 248.59px;" id="el1d0h1iwu62" class="animable"></path><g id="elhhk0yxt80tg"><path d="M425.59,250.18c-.29,3.19-2.5,3.71-2.5,3.71s-2.22-.52-2.51-3.71,2.51-6.89,2.51-6.89S425.88,247,425.59,250.18Z" style="opacity: 0.1; transform-origin: 423.085px 248.59px;" class="animable"></path></g><path d="M424.81,251.33a1.86,1.86,0,1,1-3.45,0c-.2-2.19,1.73-4.75,1.73-4.75S425,249.14,424.81,251.33Z" style="fill: rgb(118, 110, 220); transform-origin: 423.085px 250.233px;" id="elb97fxjps8c" class="animable"></path><polygon points="426.65 302.08 419.52 302.08 419.72 257.19 426.45 257.19 426.65 302.08" style="fill: rgb(219, 219, 219); transform-origin: 423.085px 279.635px;" id="elrtugt5gpnic" class="animable"></polygon><path d="M420.2,257.64a10.37,10.37,0,0,0,1.42.26,11.41,11.41,0,0,0,1.43.07,11.3,11.3,0,0,0,1.42-.1c.47-.05.95-.15,1.43-.23l-.68.29a5.6,5.6,0,0,1-.7.2,6.63,6.63,0,0,1-2.94,0A4.91,4.91,0,0,1,420.2,257.64Z" style="fill: rgb(166, 166, 166); transform-origin: 423.05px 257.968px;" id="elpqcrpfhgrsp" class="animable"></path><rect x="441.28" y="252.33" width="0.98" height="5.31" style="fill: rgb(38, 50, 56); transform-origin: 441.77px 254.985px;" id="eldpc4xtcfl0b" class="animable"></rect><path d="M444.28,250.18c-.29,3.19-2.51,3.71-2.51,3.71s-2.21-.52-2.5-3.71,2.5-6.89,2.5-6.89S444.57,247,444.28,250.18Z" style="fill: rgb(118, 110, 220); transform-origin: 441.775px 248.59px;" id="el6x7v2ijxac" class="animable"></path><g id="ellbdtv2weg4"><path d="M444.28,250.18c-.29,3.19-2.51,3.71-2.51,3.71s-2.21-.52-2.5-3.71,2.5-6.89,2.5-6.89S444.57,247,444.28,250.18Z" style="opacity: 0.1; transform-origin: 441.775px 248.59px;" class="animable"></path></g><path d="M443.5,251.33a1.86,1.86,0,1,1-3.45,0c-.2-2.19,1.72-4.75,1.72-4.75S443.7,249.14,443.5,251.33Z" style="fill: rgb(118, 110, 220); transform-origin: 441.775px 250.233px;" id="el6f3vbp8bv4n" class="animable"></path><polygon points="445.34 302.08 438.21 302.08 438.41 257.19 445.14 257.19 445.34 302.08" style="fill: rgb(219, 219, 219); transform-origin: 441.775px 279.635px;" id="elvawgwijltx" class="animable"></polygon><path d="M438.89,257.64a10.1,10.1,0,0,0,1.42.26,11.41,11.41,0,0,0,1.43.07,11.3,11.3,0,0,0,1.42-.1c.47-.05.95-.15,1.43-.23l-.68.29a5.6,5.6,0,0,1-.7.2,6.1,6.1,0,0,1-1.47.18,6,6,0,0,1-1.47-.15A4.91,4.91,0,0,1,438.89,257.64Z" style="fill: rgb(166, 166, 166); transform-origin: 441.74px 257.976px;" id="elkzd30km57l" class="animable"></path><polygon points="277.91 318.36 267.88 318.36 269.01 302.45 276.77 302.45 277.91 318.36" style="fill: rgb(118, 110, 220); transform-origin: 272.895px 310.405px;" id="elr20a8sibsk" class="animable"></polygon><rect x="266.36" y="317.42" width="13.07" height="2.7" style="fill: rgb(118, 110, 220); transform-origin: 272.895px 318.77px;" id="el767l43m6spy" class="animable"></rect><rect x="267.5" y="300.37" width="10.79" height="2.7" style="fill: rgb(118, 110, 220); transform-origin: 272.895px 301.72px;" id="el1dt6t07zgw9" class="animable"></rect><polygon points="296.6 318.36 286.56 318.36 287.7 302.45 295.46 302.45 296.6 318.36" style="fill: rgb(118, 110, 220); transform-origin: 291.58px 310.405px;" id="el5x3sbc9yu7n" class="animable"></polygon><rect x="285.05" y="317.42" width="13.07" height="2.7" style="fill: rgb(118, 110, 220); transform-origin: 291.585px 318.77px;" id="elf0r1osi025o" class="animable"></rect><rect x="286.19" y="300.37" width="10.79" height="2.7" style="fill: rgb(118, 110, 220); transform-origin: 291.585px 301.72px;" id="elfb0d9f9di1a" class="animable"></rect><polygon points="314.15 318.36 304.11 318.36 305.25 302.45 313.01 302.45 314.15 318.36" style="fill: rgb(118, 110, 220); transform-origin: 309.13px 310.405px;" id="elb5gshpt6svu" class="animable"></polygon><rect x="302.6" y="317.42" width="13.07" height="2.7" style="fill: rgb(118, 110, 220); transform-origin: 309.135px 318.77px;" id="els3nwr8k20wo" class="animable"></rect><rect x="303.74" y="300.37" width="10.79" height="2.7" style="fill: rgb(118, 110, 220); transform-origin: 309.135px 301.72px;" id="elm0by6tz2von" class="animable"></rect><polygon points="332.84 318.36 322.8 318.36 323.94 302.45 331.7 302.45 332.84 318.36" style="fill: rgb(118, 110, 220); transform-origin: 327.82px 310.405px;" id="el11xjx25sy2p" class="animable"></polygon><rect x="321.29" y="317.42" width="13.07" height="2.7" style="fill: rgb(118, 110, 220); transform-origin: 327.825px 318.77px;" id="elg5ez1yem3hp" class="animable"></rect><rect x="322.43" y="300.37" width="10.79" height="2.7" style="fill: rgb(118, 110, 220); transform-origin: 327.825px 301.72px;" id="elkzynsdaqvzb" class="animable"></rect><polygon points="362.35 308.49 352.31 308.49 353.45 292.58 361.21 292.58 362.35 308.49" style="fill: rgb(118, 110, 220); transform-origin: 357.33px 300.535px;" id="elg7xqe37091k" class="animable"></polygon><rect x="350.79" y="307.54" width="13.07" height="2.7" style="fill: rgb(118, 110, 220); transform-origin: 357.325px 308.89px;" id="elijpqwru8u5" class="animable"></rect><rect x="351.93" y="290.49" width="10.79" height="2.7" style="fill: rgb(118, 110, 220); transform-origin: 357.325px 291.84px;" id="el87fmlpevxtc" class="animable"></rect><polygon points="391.87 318.36 381.83 318.36 382.97 302.45 390.73 302.45 391.87 318.36" style="fill: rgb(118, 110, 220); transform-origin: 386.85px 310.405px;" id="elylpkyav2plp" class="animable"></polygon><rect x="380.31" y="317.42" width="13.07" height="2.7" style="fill: rgb(118, 110, 220); transform-origin: 386.845px 318.77px;" id="eln1svmrw3obe" class="animable"></rect><rect x="381.45" y="300.37" width="10.79" height="2.7" style="fill: rgb(118, 110, 220); transform-origin: 386.845px 301.72px;" id="ela70tidtv049" class="animable"></rect><polygon points="410.56 318.36 400.52 318.36 401.65 302.45 409.42 302.45 410.56 318.36" style="fill: rgb(118, 110, 220); transform-origin: 405.54px 310.405px;" id="el9yu523akpqp" class="animable"></polygon><rect x="399" y="317.42" width="13.07" height="2.7" style="fill: rgb(118, 110, 220); transform-origin: 405.535px 318.77px;" id="els850oabn5p" class="animable"></rect><rect x="400.14" y="300.37" width="10.79" height="2.7" style="fill: rgb(118, 110, 220); transform-origin: 405.535px 301.72px;" id="el3cw9myfvx38" class="animable"></rect><polygon points="428.11 318.36 418.07 318.36 419.2 302.45 426.97 302.45 428.11 318.36" style="fill: rgb(118, 110, 220); transform-origin: 423.09px 310.405px;" id="elnx3ulgidhwa" class="animable"></polygon><rect x="416.55" y="317.42" width="13.07" height="2.7" style="fill: rgb(118, 110, 220); transform-origin: 423.085px 318.77px;" id="eloj5n5f4uja" class="animable"></rect><rect x="417.69" y="300.37" width="10.79" height="2.7" style="fill: rgb(118, 110, 220); transform-origin: 423.085px 301.72px;" id="elcavb0pwkp3p" class="animable"></rect><polygon points="446.79 318.36 436.75 318.36 437.89 302.45 445.65 302.45 446.79 318.36" style="fill: rgb(118, 110, 220); transform-origin: 441.77px 310.405px;" id="ell7jg6bx6fxq" class="animable"></polygon><rect x="435.24" y="317.42" width="13.07" height="2.7" style="fill: rgb(118, 110, 220); transform-origin: 441.775px 318.77px;" id="eltmv2vnmacko" class="animable"></rect><rect x="436.38" y="300.37" width="10.79" height="2.7" style="fill: rgb(118, 110, 220); transform-origin: 441.775px 301.72px;" id="elyhxdaqmoti" class="animable"></rect></g><g id="freepik--Plant--inject-162" class="animable" style="transform-origin: 67.7535px 359.67px;"><path d="M84.86,330.94c-15,14.69-17.52,37.43-14.36,57.34.08.45.78.33.78-.1,0-4.53-.14-9-.12-13.5l.23-.6c3.92-2.85,7.52-6.07,9.75-10.48,2.51-4.93,3.49-10.49,5.41-15.64.18-.49-.35-.35-.69-.09-9.13,6.73-12,14-14.66,23.66a79.63,79.63,0,0,1,1.59-15.08c2-9.19,5.87-18.29,12.47-25.11C85.51,331.08,85.12,330.68,84.86,330.94Z" style="fill: rgb(38, 50, 56); transform-origin: 77.9432px 359.71px;" id="el5gcwmgbd1ox" class="animable"></path><path d="M87.69,332.65c2.58.09,4.2,4.22,6.21,5.42a1.94,1.94,0,0,0,2.85-.45c2-2.78-.74-6.21-3.32-8.13,1.84.75,3.37,2.08,5.35,2.46a1.87,1.87,0,0,0,2.42-1.45c.87-3.79-3.89-5.48-7.15-5.56,1.58-1.1,6.12-4.09,3.71-5.56s-7.77,2.8-9.51,4.21c-2.55,2.07-5.59,5.16-5.71,8.4C82.39,335.77,85.7,333.45,87.69,332.65Z" style="fill: rgb(118, 110, 220); transform-origin: 91.9197px 328.79px;" id="elotnnk7ieer" class="animable"></path><g id="el7m2qjsvpmta"><path d="M87.69,332.65c2.58.09,4.2,4.22,6.21,5.42a1.94,1.94,0,0,0,2.85-.45c2-2.78-.74-6.21-3.32-8.13,1.84.75,3.37,2.08,5.35,2.46a1.87,1.87,0,0,0,2.42-1.45c.87-3.79-3.89-5.48-7.15-5.56,1.58-1.1,6.12-4.09,3.71-5.56s-7.77,2.8-9.51,4.21c-2.55,2.07-5.59,5.16-5.71,8.4C82.39,335.77,85.7,333.45,87.69,332.65Z" style="opacity: 0.2; transform-origin: 91.9197px 328.79px;" class="animable"></path></g><path d="M86.94,333.29c3.3-1.5,9.64.66,10.18-.59,1.09-2.54-4-4.29-6.71-4.63,2.52-.68,7.35-1.77,7.2-4.19-.18-3-7.41-.42-11.06,2.38-4.61,3.53-4.58,6.94-3.82,7.62C83.78,334.82,86.39,333.54,86.94,333.29Z" style="fill: rgb(118, 110, 220); transform-origin: 89.9809px 328.379px;" id="elkpin5tmn7kh" class="animable"></path><g id="elyx981fqlgl"><path d="M86.94,333.29c3.3-1.5,9.64.66,10.18-.59,1.09-2.54-4-4.29-6.71-4.63,2.52-.68,7.35-1.77,7.2-4.19-.18-3-7.41-.42-11.06,2.38-4.61,3.53-4.58,6.94-3.82,7.62C83.78,334.82,86.39,333.54,86.94,333.29Z" style="opacity: 0.1; transform-origin: 89.9809px 328.379px;" class="animable"></path></g><path d="M50.68,329.49c15.56,14.11,18.94,36.73,16.54,56.75-.07.45-.77.35-.79-.07-.17-4.53-.2-9-.39-13.5-.09-.2-.16-.39-.25-.59-4-2.7-7.74-5.78-10.14-10.1-2.69-4.83-3.89-10.35-6-15.42-.2-.49.33-.36.68-.12,9.38,6.38,12.57,13.51,15.55,23.09a80.37,80.37,0,0,0-2.16-15c-2.32-9.11-6.56-18.06-13.42-24.62A.28.28,0,0,1,50.68,329.49Z" style="fill: rgb(38, 50, 56); transform-origin: 58.7622px 357.976px;" id="elip7afcvkoip" class="animable"></path><path d="M47.93,331.31c-2.58.18-4,4.37-6,5.65a1.94,1.94,0,0,1-2.87-.34c-2.1-2.71.51-6.24,3-8.26-1.81.83-3.28,2.21-5.25,2.66a1.86,1.86,0,0,1-2.47-1.35c-1-3.76,3.68-5.63,6.94-5.83-1.63-1-6.27-3.86-3.92-5.42s7.87,2.51,9.66,3.85c2.63,2,5.78,5,6,8.18C53.34,334.22,49.94,332,47.93,331.31Z" style="fill: rgb(118, 110, 220); transform-origin: 43.6219px 327.757px;" id="elfqa4yqsoki5" class="animable"></path><g id="elpdt6tg17trb"><path d="M47.93,331.31c-2.58.18-4,4.37-6,5.65a1.94,1.94,0,0,1-2.87-.34c-2.1-2.71.51-6.24,3-8.26-1.81.83-3.28,2.21-5.25,2.66a1.86,1.86,0,0,1-2.47-1.35c-1-3.76,3.68-5.63,6.94-5.83-1.63-1-6.27-3.86-3.92-5.42s7.87,2.51,9.66,3.85c2.63,2,5.78,5,6,8.18C53.34,334.22,49.94,332,47.93,331.31Z" style="opacity: 0.2; transform-origin: 43.6219px 327.757px;" class="animable"></path></g><path d="M48.7,331.91c-3.36-1.37-9.61,1-10.2-.2-1.19-2.5,3.81-4.44,6.53-4.88-2.54-.58-7.41-1.49-7.35-3.92.07-3,7.38-.7,11.14,2,4.74,3.35,4.84,6.76,4.1,7.47C51.91,333.32,49.25,332.14,48.7,331.91Z" style="fill: rgb(118, 110, 220); transform-origin: 45.4702px 327.117px;" id="elhaklraanwlk" class="animable"></path><g id="elureqcinfvtm"><path d="M48.7,331.91c-3.36-1.37-9.61,1-10.2-.2-1.19-2.5,3.81-4.44,6.53-4.88-2.54-.58-7.41-1.49-7.35-3.92.07-3,7.38-.7,11.14,2,4.74,3.35,4.84,6.76,4.1,7.47C51.91,333.32,49.25,332.14,48.7,331.91Z" style="opacity: 0.1; transform-origin: 45.4702px 327.117px;" class="animable"></path></g><path d="M66.59,366.76a152.87,152.87,0,0,0,4.83,22.31.56.56,0,0,0,1.09-.22c-1-6.87-2.89-13.62-3.91-20.5a103,103,0,0,1-1.19-21.05c.65-11.59,3.8-23.91,11.36-33,.17-.21-.19-.52-.36-.32-15.14,17.65-12.73,39.29-12.71,41.23-2.15-7.3-4.35-15.68-12.46-23.12-.35-.32-.62-.17-.57.38,1.45,13.55,5.22,20.63,13.08,27.87C66,362.51,66.25,364.65,66.59,366.76Z" style="fill: rgb(38, 50, 56); transform-origin: 65.7392px 351.685px;" id="elc0bn4pna99" class="animable"></path><path d="M78.91,316.35c2.72-1.21,6.48,2.26,9.17,2.5a2.23,2.23,0,0,0,2.73-1.9c.67-3.89-3.9-6.08-7.53-6.78,2.29-.14,4.54.47,6.79-.13a2.16,2.16,0,0,0,1.78-2.72c-1-4.38-6.8-3.73-10.22-2.17,1.08-1.94,4.29-7.33,1.05-7.64s-6.65,6.81-7.75,9.15c-1.6,3.43-3.2,8.18-1.69,11.59C75,322.25,77.24,318.17,78.91,316.35Z" style="fill: rgb(118, 110, 220); transform-origin: 82.2822px 308.724px;" id="el562iimcwfgs" class="animable"></path><g id="els8engeozdkq"><path d="M78.91,316.35c2.72-1.21,6.48,2.26,9.17,2.5a2.23,2.23,0,0,0,2.73-1.9c.67-3.89-3.9-6.08-7.53-6.78,2.29-.14,4.54.47,6.79-.13a2.16,2.16,0,0,0,1.78-2.72c-1-4.38-6.8-3.73-10.22-2.17,1.08-1.94,4.29-7.33,1.05-7.64s-6.65,6.81-7.75,9.15c-1.6,3.43-3.2,8.18-1.69,11.59C75,322.25,77.24,318.17,78.91,316.35Z" style="opacity: 0.2; transform-origin: 82.2822px 308.724px;" class="animable"></path></g><path d="M78.45,317.39c2.67-3.22,10.34-4.17,10.27-5.74-.15-3.19-6.28-2.45-9.29-1.42,2.27-2,6.73-5.54,5.35-8-1.68-3-7.89,3.29-10.27,8-3,6-1.25,9.51-.12,9.83C75.94,320.57,78,317.92,78.45,317.39Z" style="fill: rgb(118, 110, 220); transform-origin: 80.7829px 310.787px;" id="elcisagug3tjg" class="animable"></path><g id="eld2dj4e5ppzt"><path d="M78.45,317.39c2.67-3.22,10.34-4.17,10.27-5.74-.15-3.19-6.28-2.45-9.29-1.42,2.27-2,6.73-5.54,5.35-8-1.68-3-7.89,3.29-10.27,8-3,6-1.25,9.51-.12,9.83C75.94,320.57,78,317.92,78.45,317.39Z" style="opacity: 0.1; transform-origin: 80.7829px 310.787px;" class="animable"></path></g><path d="M56.63,370.84l-6.67,51H90.58c-.84-4.52-8.4-51.07-8.4-51.07Z" style="fill: rgb(118, 110, 220); transform-origin: 70.27px 396.305px;" id="elgodthkwxr9" class="animable"></path></g><defs>     <filter id="active" height="200%">         <feMorphology in="SourceAlpha" result="DILATED" operator="dilate" radius="2"></feMorphology>                <feFlood flood-color="#32DFEC" flood-opacity="1" result="PINK"></feFlood>        <feComposite in="PINK" in2="DILATED" operator="in" result="OUTLINE"></feComposite>        <feMerge>            <feMergeNode in="OUTLINE"></feMergeNode>            <feMergeNode in="SourceGraphic"></feMergeNode>        </feMerge>    </filter>    <filter id="hover" height="200%">        <feMorphology in="SourceAlpha" result="DILATED" operator="dilate" radius="2"></feMorphology>                <feFlood flood-color="#ff0000" flood-opacity="0.5" result="PINK"></feFlood>        <feComposite in="PINK" in2="DILATED" operator="in" result="OUTLINE"></feComposite>        <feMerge>            <feMergeNode in="OUTLINE"></feMergeNode>            <feMergeNode in="SourceGraphic"></feMergeNode>        </feMerge>            <feColorMatrix type="matrix" values="0   0   0   0   0                0   1   0   0   0                0   0   0   0   0                0   0   0   1   0 "></feColorMatrix>    </filter></defs></svg>