<svg class="animated" id="freepik_stories-plain-credit-card" xmlns="http://www.w3.org/2000/svg" viewBox="0 0 500 500" version="1.1" xmlns:xlink="http://www.w3.org/1999/xlink" xmlns:svgjs="http://svgjs.com/svgjs"><style>svg#freepik_stories-plain-credit-card:not(.animated) .animable {opacity: 0;}svg#freepik_stories-plain-credit-card.animated #freepik--Character--inject-124 {animation: 1s 1 forwards cubic-bezier(.36,-0.01,.5,1.38) slideUp,1.5s Infinite  linear floating;animation-delay: 0s,1s;}            @keyframes slideUp {                0% {                    opacity: 0;                    transform: translateY(30px);                }                100% {                    opacity: 1;                    transform: inherit;                }            }                    @keyframes floating {                0% {                    opacity: 1;                    transform: translateY(0px);                }                50% {                    transform: translateY(-10px);                }                100% {                    opacity: 1;                    transform: translateY(0px);                }            }        </style><g id="freepik--background-complete--inject-124" class="animable" style="transform-origin: 250px 226.395px;"><rect y="382.4" width="500" height="0.25" style="fill: rgb(224, 224, 224); transform-origin: 250px 382.525px;" id="el3d7xgm7p0a5" class="animable"></rect><rect x="401.33" y="395.46" width="28.39" height="0.25" style="fill: rgb(224, 224, 224); transform-origin: 415.525px 395.585px;" id="elb6qlpwj547u" class="animable"></rect><rect x="368.63" y="395.58" width="25.37" height="0.25" style="fill: rgb(224, 224, 224); transform-origin: 381.315px 395.705px;" id="elr95s3z0tnd" class="animable"></rect><rect x="242.47" y="389.79" width="34.15" height="0.25" style="fill: rgb(224, 224, 224); transform-origin: 259.545px 389.915px;" id="elmevefw5dj7p" class="animable"></rect><rect x="293.56" y="397.54" width="47.46" height="0.25" style="fill: rgb(224, 224, 224); transform-origin: 317.29px 397.665px;" id="elwwsxeh5s59" class="animable"></rect><rect x="96.89" y="389.5" width="45.95" height="0.25" style="fill: rgb(224, 224, 224); transform-origin: 119.865px 389.625px;" id="elrtlqes621ai" class="animable"></rect><rect x="148.39" y="389.5" width="15.61" height="0.25" style="fill: rgb(224, 224, 224); transform-origin: 156.195px 389.625px;" id="elto2pu0xx6h" class="animable"></rect><rect x="62.46" y="394" width="40.21" height="0.25" style="fill: rgb(224, 224, 224); transform-origin: 82.565px 394.125px;" id="el4lm4b6v4e3e" class="animable"></rect><path d="M237,337.8H43.91a5.71,5.71,0,0,1-5.7-5.71V60.66A5.71,5.71,0,0,1,43.91,55H237a5.71,5.71,0,0,1,5.71,5.71V332.09A5.71,5.71,0,0,1,237,337.8ZM43.91,55.2a5.46,5.46,0,0,0-5.45,5.46V332.09a5.46,5.46,0,0,0,5.45,5.46H237a5.47,5.47,0,0,0,5.46-5.46V60.66A5.47,5.47,0,0,0,237,55.2Z" style="fill: rgb(224, 224, 224); transform-origin: 140.46px 196.4px;" id="elnganyrd6lxs" class="animable"></path><path d="M453.31,337.8H260.21a5.72,5.72,0,0,1-5.71-5.71V60.66A5.72,5.72,0,0,1,260.21,55h193.1A5.71,5.71,0,0,1,459,60.66V332.09A5.71,5.71,0,0,1,453.31,337.8ZM260.21,55.2a5.47,5.47,0,0,0-5.46,5.46V332.09a5.47,5.47,0,0,0,5.46,5.46h193.1a5.47,5.47,0,0,0,5.46-5.46V60.66a5.47,5.47,0,0,0-5.46-5.46Z" style="fill: rgb(224, 224, 224); transform-origin: 356.75px 196.4px;" id="elc74dftjphhb" class="animable"></path><rect x="71.36" y="79.27" width="257" height="129.56" style="fill: rgb(224, 224, 224); transform-origin: 199.86px 144.05px;" id="eleye6b0dzv9j" class="animable"></rect><rect x="74.71" y="79.27" width="257" height="129.56" style="fill: rgb(240, 240, 240); transform-origin: 203.21px 144.05px;" id="eluy3gojmekw" class="animable"></rect><g id="elfdr8m2hw6yb"><rect x="144.51" y="21.56" width="117.4" height="244.97" style="fill: rgb(245, 245, 245); transform-origin: 203.21px 144.045px; transform: rotate(90deg);" class="animable"></rect></g><polygon points="98.87 202.75 165.31 85.35 196.44 85.35 130.01 202.75 98.87 202.75" style="fill: rgb(255, 255, 255); transform-origin: 147.655px 144.05px;" id="el76vd3n6nglo" class="animable"></polygon><polygon points="140.46 202.75 206.9 85.35 238.03 85.35 171.6 202.75 140.46 202.75" style="fill: rgb(255, 255, 255); transform-origin: 189.245px 144.05px;" id="elntr0zpbj9l" class="animable"></polygon><polygon points="227 202.75 293.43 85.35 306.25 85.35 239.82 202.75 227 202.75" style="fill: rgb(255, 255, 255); transform-origin: 266.625px 144.05px;" id="el2tkxsnl4gdx" class="animable"></polygon><g id="elkk2eevtn27e"><rect x="182.71" y="139.51" width="117.4" height="9.06" style="fill: rgb(224, 224, 224); transform-origin: 241.41px 144.04px; transform: rotate(90deg);" class="animable"></rect></g><g id="el1ix3scqadzs"><rect x="99.61" y="139.51" width="117.4" height="9.06" style="fill: rgb(224, 224, 224); transform-origin: 158.31px 144.04px; transform: rotate(90deg);" class="animable"></rect></g><g id="elumdatd4jwg"><rect x="181.71" y="139.18" width="125.78" height="9.06" style="fill: rgb(245, 245, 245); transform-origin: 244.6px 143.71px; transform: rotate(90deg);" class="animable"></rect></g><g id="eln0yrt72ffn"><rect x="98.61" y="139.18" width="125.78" height="9.06" style="fill: rgb(245, 245, 245); transform-origin: 161.5px 143.71px; transform: rotate(90deg);" class="animable"></rect></g><g id="ely6oj89d23x"><rect x="265.73" y="142.78" width="117.4" height="2.53" style="fill: rgb(224, 224, 224); transform-origin: 324.43px 144.045px; transform: rotate(90deg);" class="animable"></rect></g><path d="M391.84,247.08s-18.34-31.61,7.1-56.77c0,0,6.64,4.32,6.54,10.14s-7.11,7.29-5.61,12.15,8.13,9.62,3.79,13.63.69,7.59.4,12.5S391.84,247.08,391.84,247.08Z" style="fill: rgb(224, 224, 224); transform-origin: 395.463px 218.695px;" id="elwmvpatoqx6r" class="animable"></path><path d="M394.72,252.25s7.43-35.78-24.65-51.64c0,0-4.93,6.2-3,11.69s9.05,4.68,9.15,9.76-4.68,11.69.71,14.13,1.73,7.42,3.56,12S394.72,252.25,394.72,252.25Z" style="fill: rgb(235, 235, 235); transform-origin: 381.043px 226.439px;" id="elt5sg9vehxin" class="animable"></path><path d="M378.39,243.16s.32,14.92,12.66,14.92,12.67-14.92,12.67-14.92Z" style="fill: rgb(245, 245, 245); transform-origin: 391.055px 250.62px;" id="elhho82y9tp39" class="animable"></path><path d="M292.76,246.46s.42,11.62,16.65,11.62,16.66-11.62,16.66-11.62Z" style="fill: rgb(235, 235, 235); transform-origin: 309.415px 252.27px;" id="el01t6dx0xx5oz" class="animable"></path><path d="M330.43,249.34s.32,8.74,12.52,8.74,12.51-8.74,12.51-8.74Z" style="fill: rgb(235, 235, 235); transform-origin: 342.945px 253.71px;" id="elyj50u8kchis" class="animable"></path><rect x="276.87" y="265.33" width="27.32" height="109.57" style="fill: rgb(235, 235, 235); transform-origin: 290.53px 320.115px;" id="el6k6gegaoajq" class="animable"></rect><rect x="282.11" y="374.89" width="134.72" height="7.51" style="fill: rgb(235, 235, 235); transform-origin: 349.47px 378.645px;" id="elim6swpocb4t" class="animable"></rect><g id="elghait22h4en"><rect x="304.18" y="265.33" width="117.89" height="109.57" style="fill: rgb(245, 245, 245); transform-origin: 363.125px 320.115px; transform: rotate(180deg);" class="animable"></rect></g><g id="el2hylo9u0y5u"><rect x="314.92" y="275.92" width="96.41" height="38.86" style="fill: rgb(235, 235, 235); transform-origin: 363.125px 295.35px; transform: rotate(180deg);" class="animable"></rect></g><g id="elwkfw3d9y6s"><rect x="314.92" y="321.86" width="96.41" height="38.86" style="fill: rgb(235, 235, 235); transform-origin: 363.125px 341.29px; transform: rotate(180deg);" class="animable"></rect></g><path d="M374,280.18H352.31a2.67,2.67,0,0,1-2.67-2.66h0a2.68,2.68,0,0,1,2.67-2.67H374a2.68,2.68,0,0,1,2.67,2.67h0A2.67,2.67,0,0,1,374,280.18Z" style="fill: rgb(245, 245, 245); transform-origin: 363.155px 277.515px;" id="el8tf5qnimwl8" class="animable"></path><path d="M374,326.12H352.31a2.67,2.67,0,0,1-2.67-2.66h0a2.68,2.68,0,0,1,2.67-2.67H374a2.68,2.68,0,0,1,2.67,2.67h0A2.67,2.67,0,0,1,374,326.12Z" style="fill: rgb(245, 245, 245); transform-origin: 363.155px 323.455px;" id="el8npglylvi6k" class="animable"></path><rect x="304.18" y="258.08" width="121.53" height="7.25" style="fill: rgb(235, 235, 235); transform-origin: 364.945px 261.705px;" id="eltxjkn7v9qhj" class="animable"></rect><g id="elh00hwtormwt"><rect x="273.05" y="258.08" width="31.14" height="7.25" style="fill: rgb(224, 224, 224); transform-origin: 288.62px 261.705px; transform: rotate(180deg);" class="animable"></rect></g><rect x="360.44" y="97.51" width="59.18" height="68.18" style="fill: rgb(235, 235, 235); transform-origin: 390.03px 131.6px;" id="eln5bpwhgr6bn" class="animable"></rect><rect x="362.21" y="97.51" width="64.13" height="68.18" style="fill: rgb(245, 245, 245); transform-origin: 394.275px 131.6px;" id="el39gh1spt68c" class="animable"></rect><g id="el2id00ddjl5a"><rect x="365.56" y="104.91" width="57.43" height="53.39" style="fill: rgb(255, 255, 255); transform-origin: 394.275px 131.605px; transform: rotate(90deg);" class="animable"></rect></g><g id="elm9nbb694fm"><rect x="379.48" y="117.85" width="29.59" height="27.51" rx="4.71" style="fill: rgb(245, 245, 245); transform-origin: 394.275px 131.605px; transform: rotate(90deg);" class="animable"></rect></g><rect x="262.22" y="318.92" width="6.87" height="63.48" style="fill: rgb(224, 224, 224); transform-origin: 265.655px 350.66px;" id="elzgr6rcmgvg" class="animable"></rect><g id="el547lx6i9jg3"><rect x="265.65" y="318.92" width="3.44" height="63.48" style="fill: rgb(245, 245, 245); opacity: 0.5; transform-origin: 267.37px 350.66px;" class="animable"></rect></g><path d="M239,336.7h-4.72a4.67,4.67,0,0,0,1.65-3.56H180a4.68,4.68,0,0,0,1.66,3.56H177a6.3,6.3,0,0,0-6.3,6.3v18.37a6.3,6.3,0,0,0,6.3,6.3H239a6.3,6.3,0,0,0,6.3-6.3V343A6.3,6.3,0,0,0,239,336.7Z" style="fill: rgb(245, 245, 245); transform-origin: 208px 350.405px;" id="eltt0k9lf0e29" class="animable"></path><rect x="145.42" y="350.27" width="46.09" height="17.4" rx="4.24" style="fill: rgb(235, 235, 235); transform-origin: 168.465px 358.97px;" id="elmqcegqa9cer" class="animable"></rect><rect x="145.42" y="346.43" width="46.09" height="4.46" rx="1.42" style="fill: rgb(224, 224, 224); transform-origin: 168.465px 348.66px;" id="elh5jv3ob4vl" class="animable"></rect><path d="M195.76,290.57s.65,21,25.25,21,25.25-21,25.25-21Z" style="fill: rgb(235, 235, 235); transform-origin: 221.01px 301.07px;" id="elcsfeblrq7f" class="animable"></path><g id="elv0u4b7qi3y"><rect x="77.12" y="311.58" width="30.68" height="7.34" style="fill: rgb(224, 224, 224); transform-origin: 92.46px 315.25px; transform: rotate(180deg);" class="animable"></rect></g><rect x="107.8" y="311.58" width="185.1" height="7.34" style="fill: rgb(245, 245, 245); transform-origin: 200.35px 315.25px;" id="el4bj52bkmnmc" class="animable"></rect><g id="el1f4avnj9hqg"><rect x="77.12" y="367.67" width="30.68" height="7.34" style="fill: rgb(224, 224, 224); transform-origin: 92.46px 371.34px; transform: rotate(180deg);" class="animable"></rect></g><rect x="77.12" y="318.92" width="6.87" height="63.48" style="fill: rgb(224, 224, 224); transform-origin: 80.555px 350.66px;" id="el914kwwbasno" class="animable"></rect><g id="elhq5fn6t5hv"><rect x="80.55" y="318.92" width="3.44" height="63.48" style="fill: rgb(245, 245, 245); opacity: 0.5; transform-origin: 82.27px 350.66px;" class="animable"></rect></g><rect x="104.36" y="318.92" width="6.87" height="63.48" style="fill: rgb(245, 245, 245); transform-origin: 107.795px 350.66px;" id="el1s742ucrzcx" class="animable"></rect><rect x="104.36" y="318.92" width="3.44" height="63.48" style="fill: rgb(224, 224, 224); transform-origin: 106.08px 350.66px;" id="elp3k0axqy3v9" class="animable"></rect><rect x="286.02" y="318.92" width="6.87" height="63.48" style="fill: rgb(245, 245, 245); transform-origin: 289.455px 350.66px;" id="eln8i1cxg1ih" class="animable"></rect><rect x="286.02" y="318.92" width="3.44" height="63.48" style="fill: rgb(224, 224, 224); transform-origin: 287.74px 350.66px;" id="el0u4ruyydovtb" class="animable"></rect><rect x="107.8" y="367.67" width="185.1" height="7.34" style="fill: rgb(245, 245, 245); transform-origin: 200.35px 371.34px;" id="elq2u7qxngpcq" class="animable"></rect><rect x="119.84" y="307.25" width="37.32" height="4.33" style="fill: rgb(224, 224, 224); transform-origin: 138.5px 309.415px;" id="eljay0v2gj9j" class="animable"></rect><g id="elphugcg3ypsl"><rect x="157.16" y="307.25" width="13.37" height="4.33" style="fill: rgb(235, 235, 235); transform-origin: 163.845px 309.415px; transform: rotate(180deg);" class="animable"></rect></g></g><g id="freepik--Shadow--inject-124" class="animable" style="transform-origin: 250px 416.24px;"><ellipse cx="250" cy="416.24" rx="193.89" ry="11.32" style="fill: rgb(245, 245, 245); transform-origin: 250px 416.24px;" id="ell7y9f8stkxk" class="animable"></ellipse></g><g id="freepik--Character--inject-124" class="animable animator-active" style="transform-origin: 269.994px 276.164px;"><path d="M217.87,150.7c.07,11.85-8.42,11.73-8.25,8.05s-1.93-12.49,0-11.64S217.84,145.46,217.87,150.7Z" style="fill: rgb(38, 50, 56); transform-origin: 213.335px 154px;" id="el9zlyj3tzr1d" class="animable"></path><path d="M212.53,172.16c1.17-.09,3.52,1,3.73,4.09a5.81,5.81,0,0,0,2.59,4.49s-3.89.47-6.44-1.55c-2.08-1.63-3-5.2-1.91-6A5.49,5.49,0,0,1,212.53,172.16Z" style="fill: rgb(38, 50, 56); transform-origin: 214.444px 176.471px;" id="el1vzi5dz16n5" class="animable"></path><path d="M211,163.74c2,1.77,3.83,6.45-.68,8.67s-11.6-2.95-11.6-2.95l7.79-3.61Z" style="fill: rgb(38, 50, 56); transform-origin: 205.92px 168.352px;" id="el7u7774pfu4v" class="animable"></path><path d="M213.22,172.59a8.94,8.94,0,0,0-.54-1.89.41.41,0,0,0-.61-.2l-2.77,1.85a.41.41,0,0,0,0,.68,6.82,6.82,0,0,0,1.28.74c.65.26,2-.48,2.46-.8A.39.39,0,0,0,213.22,172.59Z" style="fill: rgb(111, 207, 150); transform-origin: 211.171px 172.128px;" id="elwwti1phl93" class="animable"></path><g id="elo1owp64rlw"><path d="M213.22,172.59a8.94,8.94,0,0,0-.54-1.89.41.41,0,0,0-.61-.2l-2.77,1.85a.41.41,0,0,0,0,.68,6.82,6.82,0,0,0,1.28.74c.65.26,2-.48,2.46-.8A.39.39,0,0,0,213.22,172.59Z" style="opacity: 0.3; transform-origin: 211.171px 172.128px;" class="animable"></path></g><path d="M183.41,167.68c-1.11-.37-3.65.13-4.59,3.09a5.83,5.83,0,0,1-3.58,3.75s3.67,1.38,6.63,0c2.4-1.09,4.1-4.35,3.27-5.39A5.27,5.27,0,0,0,183.41,167.68Z" style="fill: rgb(38, 50, 56); transform-origin: 180.297px 171.354px;" id="el1c7p4rczxz8" class="animable"></path><path d="M194.43,147.33c-4.05,1.1-9.5,5.9-7.08,11.79-2.39,1.63-5.45,6.32-1.87,9.32,3.85,3.23,13.32-1.3,13.32-1.3l.07-1.54L200,154.14Z" style="fill: rgb(38, 50, 56); transform-origin: 191.921px 158.466px;" id="elmulyfl6zwwn" class="animable"></path><path d="M182.64,167.94a8.91,8.91,0,0,1,1-1.71.42.42,0,0,1,.65,0l2.24,2.45a.42.42,0,0,1-.15.67,7.06,7.06,0,0,1-1.41.41c-.7.1-1.78-.93-2.2-1.35A.42.42,0,0,1,182.64,167.94Z" style="fill: rgb(111, 207, 150); transform-origin: 184.627px 167.921px;" id="el4b2umiff9ov" class="animable"></path><g id="elmkm6g282lnm"><path d="M182.64,167.94a8.91,8.91,0,0,1,1-1.71.42.42,0,0,1,.65,0l2.24,2.45a.42.42,0,0,1-.15.67,7.06,7.06,0,0,1-1.41.41c-.7.1-1.78-.93-2.2-1.35A.42.42,0,0,1,182.64,167.94Z" style="opacity: 0.3; transform-origin: 184.627px 167.921px;" class="animable"></path></g><path d="M219.08,189.07c1.91,1.48,4,3.06,6.1,4.5s4.21,2.89,6.38,4.22,4.37,2.57,6.59,3.75l1.67.85,1.7.79c.56.27,1.13.51,1.71.73l.85.35c.29.11.6.25.78.3a19.29,19.29,0,0,0,3.2.69c1.18.17,2.42.29,3.68.38,2.51.16,5.09.23,7.68.24s5.21,0,7.82-.08,5.25-.14,7.85-.22l.49,3.93a154,154,0,0,1-15.89,2.35c-2.69.24-5.39.42-8.15.44-1.38,0-2.78,0-4.22-.13a22.47,22.47,0,0,1-4.58-.75c-.46-.12-.75-.24-1.09-.35l-1-.35c-.67-.22-1.33-.46-2-.73l-1.94-.78-1.9-.84a75.75,75.75,0,0,1-7.33-3.8c-2.36-1.39-4.68-2.83-6.92-4.37s-4.4-3.13-6.6-5Z" style="fill: rgb(228, 137, 123); transform-origin: 244.77px 200.68px;" id="eliyv5lw5ynxs" class="animable"></path><path d="M208.7,184.58c2.49-1.94,12.74,4.41,15.86,7.06l-2.27,13.73s-14.75-6.18-15.64-10.4C205.73,190.56,206.82,186.06,208.7,184.58Z" style="fill: rgb(38, 50, 56); transform-origin: 215.439px 194.794px;" id="elckr3wfxeefo" class="animable"></path><path d="M274,205.91l6.18-4.79.49,7.41s-4.26,2.64-7.07,1Z" style="fill: rgb(228, 137, 123); transform-origin: 277.135px 205.593px;" id="el0eqppzjc52zg" class="animable"></path><polygon points="285.69 200.39 288.85 203.91 280.63 208.53 280.14 201.12 285.69 200.39" style="fill: rgb(228, 137, 123); transform-origin: 284.495px 204.46px;" id="elu6hhuvjrq9l" class="animable"></polygon><polygon points="168.28 406.47 176.07 407.05 178.91 389.12 171.13 388.54 168.28 406.47" style="fill: rgb(228, 137, 123); transform-origin: 173.595px 397.795px;" id="el7rsg1y2j4f8" class="animable"></polygon><polygon points="113.17 381.41 119.78 385.57 131.55 371.61 124.94 367.44 113.17 381.41" style="fill: rgb(228, 137, 123); transform-origin: 122.36px 376.505px;" id="elxpahbzahwvc" class="animable"></polygon><path d="M121.87,384.08l-6.19-6.23a.62.62,0,0,0-.82-.06L109.23,382a1.26,1.26,0,0,0-.1,1.87c2.19,2.13,3.36,3.05,6.08,5.79,1.67,1.69,3.94,4.32,6.25,6.65s4.73.16,4-1c-3.38-5.27-2.77-7.24-3-9.92A2.07,2.07,0,0,0,121.87,384.08Z" style="fill: rgb(38, 50, 56); transform-origin: 117.177px 387.504px;" id="el9oc5p3hehn5" class="animable"></path><path d="M176.59,405.93h-8.78a.66.66,0,0,0-.65.54l-1.39,6.94A1.18,1.18,0,0,0,167,414.8c3.06-.05,4.55-.23,8.41-.23,2.37,0,9,.24,12.31.24s3.64-3.24,2.29-3.53c-6.05-1.32-10.13-3.13-12.1-4.87A1.93,1.93,0,0,0,176.59,405.93Z" style="fill: rgb(38, 50, 56); transform-origin: 178.253px 410.37px;" id="elwtq8f1r1ehq" class="animable"></path><polygon points="178.91 389.12 177.33 399.08 169.65 397.79 171.12 388.55 178.91 389.12" style="fill: rgb(206, 111, 100); transform-origin: 174.28px 393.815px;" id="eljzyjm2njus9" class="animable"></polygon><polygon points="124.94 367.45 131.55 371.61 126.68 377.39 119.92 373.4 124.94 367.45" style="fill: rgb(206, 111, 100); transform-origin: 125.735px 372.42px;" id="el9t4xf0rpxh" class="animable"></polygon><path d="M174.2,226.13l31.14,6.07c16.09-43.57,12.59-45,12.59-45a62.53,62.53,0,0,0-7-3.3l-.42-.16c-2-.73-2.4-.84-5.06-1.62-4.58-1.09-8.85-2-14.14-2.75l-1-.14c-1-.12-1.91-.22-2.83-.31-.62-.07-1.24-.11-1.83-.15l-2-.11c-3.42-.17-5.87-.12-5.87-.12C178.73,205.75,177.19,213.56,174.2,226.13Z" style="fill: rgb(38, 50, 56); transform-origin: 196.226px 205.367px;" id="eleli7oj7j2zu" class="animable"></path><path d="M195.81,163.74c0,4.72-.73,13.23-4.51,15.65,0,0,.35,4.86,8.8,6.5,9.3,1.81,5.34-3.75,5.34-3.75-4.83-2.2-4-5.94-2.4-9.3Z" style="fill: rgb(228, 137, 123); transform-origin: 198.789px 174.996px;" id="el29fe2b0l3n1" class="animable"></path><path d="M198.76,167.45l4.28,5.39a15.19,15.19,0,0,0-.92,2.42c-1.89-.66-4.14-3.3-4-5.37A7,7,0,0,1,198.76,167.45Z" style="fill: rgb(206, 111, 100); transform-origin: 200.577px 171.355px;" id="el3jolborn87n" class="animable"></path><path d="M195.36,152.9c-1,7.69-1.61,10.92,1.47,15.57,4.63,7,14.29,6.55,17.58-.68,3-6.51,4.12-18-2.73-22.45A10.57,10.57,0,0,0,195.36,152.9Z" style="fill: rgb(228, 137, 123); transform-origin: 205.656px 158.532px;" id="elmz96cs38rc" class="animable"></path><path d="M220.39,140.72a9.76,9.76,0,0,1-.27,3.64,10.24,10.24,0,0,0-.29-1.19c-2.74-9.06-15.08-6.9-18.8-3-6-1.72-11.71-.35-10.95,7a9.14,9.14,0,0,0,1.95,5.2c-.93,2.58,0,6.69,3.07,6.81,4.32.17,8.42-5.55,10.07-8.69,3,.51,7.32,1,10.6.2.55.33,1,.56,1,.56C220.26,149.38,222.92,147.57,220.39,140.72Z" style="fill: rgb(38, 50, 56); transform-origin: 205.701px 147.994px;" id="elrkl3sg1gxqg" class="animable"></path><path d="M192.7,158.15a5.69,5.69,0,0,0,1.31,4.12c1.3,1.51,3,.62,3.61-1.17.51-1.62.44-4.35-1.3-5.2A2.54,2.54,0,0,0,192.7,158.15Z" style="fill: rgb(228, 137, 123); transform-origin: 195.289px 159.348px;" id="el9kyigoqm8xl" class="animable"></path><path d="M204.87,232.2s.12,61.82-4.94,85.1c-5.26,24.22-20.73,79.32-20.73,79.32L168,395.17s8.77-55.66,12.5-79.73c4.07-26.23,1.58-87.68,1.58-87.68Z" style="fill: rgb(111, 207, 150); transform-origin: 186.435px 312.19px;" id="elz0dptuiq9yb" class="animable"></path><g id="elj3cek25dews"><path d="M204.87,232.2s.12,61.82-4.94,85.1c-5.26,24.22-20.73,79.32-20.73,79.32L168,395.17s8.77-55.66,12.5-79.73c4.07-26.23,1.58-87.68,1.58-87.68Z" style="opacity: 0.3; transform-origin: 186.435px 312.19px;" class="animable"></path></g><polygon points="181.11 397.59 166.08 395.65 166.72 390.33 183.78 392.33 181.11 397.59" style="fill: rgb(38, 50, 56); transform-origin: 174.93px 393.96px;" id="elbb16t43n2yf" class="animable"></polygon><path d="M197.12,230.6s-16.77,51.09-25.1,80.52c-8.78,31.05-42.44,65.39-42.44,65.39l-9.65-5.58s23-32.6,31.45-61.57c17.21-58.81,10.14-71.27,22.82-83.23Z" style="fill: rgb(111, 207, 150); transform-origin: 158.525px 301.32px;" id="elmgnjadwjk4r" class="animable"></path><g id="elg0dogjg0pj8"><path d="M197.12,230.6s-16.77,51.09-25.1,80.52c-8.78,31.05-42.44,65.39-42.44,65.39l-9.65-5.58s23-32.6,31.45-61.57c17.21-58.81,10.14-71.27,22.82-83.23Z" style="opacity: 0.3; transform-origin: 158.525px 301.32px;" class="animable"></path></g><polygon points="131.15 378.06 117.74 370.32 121.08 365.54 135.97 373.75 131.15 378.06" style="fill: rgb(38, 50, 56); transform-origin: 126.855px 371.8px;" id="el6ms6l4d029d" class="animable"></polygon><path d="M206.46,157.27c-.12.62.11,1.18.52,1.26s.83-.36,1-1-.11-1.19-.52-1.27S206.58,156.65,206.46,157.27Z" style="fill: rgb(38, 50, 56); transform-origin: 207.229px 157.395px;" id="elcrigaagnd9" class="animable"></path><path d="M213.45,158.63c-.12.62.11,1.19.52,1.27s.83-.36.95-1-.11-1.19-.52-1.26S213.57,158,213.45,158.63Z" style="fill: rgb(38, 50, 56); transform-origin: 214.185px 158.771px;" id="elo4vj1876sv" class="animable"></path><path d="M214.22,157.65l1.57-.13S214.8,158.53,214.22,157.65Z" style="fill: rgb(38, 50, 56); transform-origin: 215.005px 157.765px;" id="elskpfc1u51di" class="animable"></path><path d="M211.4,159.34a16.69,16.69,0,0,0,1.44,4.37,2.7,2.7,0,0,1-2.29,0Z" style="fill: rgb(222, 87, 83); transform-origin: 211.695px 161.652px;" id="elb39h90wkp6v" class="animable"></path><path d="M207.93,165.71h0a5.25,5.25,0,0,1-3.89-2.92.18.18,0,0,1,.1-.24.19.19,0,0,1,.24.1,5,5,0,0,0,3.62,2.7.18.18,0,0,1,.15.21A.19.19,0,0,1,207.93,165.71Z" style="fill: rgb(38, 50, 56); transform-origin: 206.089px 164.125px;" id="elop308cdm7ug" class="animable"></path><path d="M204.87,154.61a.37.37,0,0,1-.25-.64,3.7,3.7,0,0,1,3.25-.93.38.38,0,0,1,.26.46.37.37,0,0,1-.45.26h0a3,3,0,0,0-2.57.76A.36.36,0,0,1,204.87,154.61Z" style="fill: rgb(38, 50, 56); transform-origin: 206.323px 153.79px;" id="el58v07tb1ywl" class="animable"></path><path d="M217.33,156a.36.36,0,0,1-.34-.23,3,3,0,0,0-2-1.79.37.37,0,0,1-.3-.43.39.39,0,0,1,.43-.3,3.69,3.69,0,0,1,2.54,2.23.37.37,0,0,1-.2.49Z" style="fill: rgb(38, 50, 56); transform-origin: 216.187px 154.623px;" id="elmlrfxknjtpr" class="animable"></path><path d="M207.3,162.75a2,2,0,0,1-1.6-.79,6.33,6.33,0,0,1-.8-5c.57-3.16,2.55-5.73,4.42-5.73a2.07,2.07,0,0,1,1.61.8,6.36,6.36,0,0,1,.8,5C211.16,160.19,209.17,162.75,207.3,162.75Zm2-11.24c-1.75,0-3.63,2.48-4.18,5.52-.35,2-.07,3.8.75,4.77a1.8,1.8,0,0,0,1.41.7c1.76,0,3.63-2.47,4.18-5.51l.12,0-.12,0a6,6,0,0,0-.75-4.77A1.81,1.81,0,0,0,209.32,151.51Z" style="fill: rgb(250, 250, 250); transform-origin: 208.314px 156.99px;" id="elfnv6ehckesg" class="animable"></path><path d="M215.07,163.75h0a2.17,2.17,0,0,1-1.67-.84,5.83,5.83,0,0,1-.81-4.63c.51-2.94,2.43-5.32,4.28-5.32h0a2.17,2.17,0,0,1,1.67.85,5.86,5.86,0,0,1,.81,4.62h0C218.85,161.38,216.93,163.75,215.07,163.75Zm1.77-10.54c-1.74,0-3.54,2.29-4,5.12a5.68,5.68,0,0,0,.76,4.42,1.94,1.94,0,0,0,1.48.75h0c1.74,0,3.55-2.28,4-5.11h0a5.72,5.72,0,0,0-.75-4.42,1.94,1.94,0,0,0-1.48-.76Z" style="fill: rgb(250, 250, 250); transform-origin: 215.968px 158.355px;" id="el23oqzh637oa" class="animable"></path><path d="M124.17,387.71h0c-1,0-2.05-1.54-2.59-2.43a.18.18,0,0,1,0-.2.21.21,0,0,1,.19-.08c.32.07,3.07.67,3.42,1.61a.61.61,0,0,1-.11.62A1.06,1.06,0,0,1,124.17,387.71Zm-2.09-2.25c.77,1.16,1.52,1.85,2.06,1.88a.7.7,0,0,0,.6-.33.25.25,0,0,0,.05-.27C124.61,386.24,123.18,385.74,122.08,385.46Z" style="fill: rgb(111, 207, 150); transform-origin: 123.39px 386.354px;" id="elpnlt122xso" class="animable"></path><path d="M122.53,385.46a3.61,3.61,0,0,1-.9-.1.21.21,0,0,1-.13-.13.24.24,0,0,1,0-.18c.07-.06,1.6-1.57,2.73-1.57h.08a1,1,0,0,1,.72.38.66.66,0,0,1,.08.81C124.79,385.21,123.51,385.46,122.53,385.46Zm-.45-.39c.94.11,2.46-.16,2.77-.61.05-.07.09-.18-.06-.37a.57.57,0,0,0-.46-.24A4.23,4.23,0,0,0,122.08,385.07Z" style="fill: rgb(111, 207, 150); transform-origin: 123.348px 384.47px;" id="el42lhm2xkn5i" class="animable"></path><path d="M179.46,407.3A13.23,13.23,0,0,1,177,407a.19.19,0,0,1-.15-.16.19.19,0,0,1,.1-.19c.37-.18,3.58-1.78,4.51-1.24a.6.6,0,0,1,.28.5,1.05,1.05,0,0,1-.39.89A3,3,0,0,1,179.46,407.3Zm-1.83-.54c1.71.28,3,.21,3.5-.22a.73.73,0,0,0,.25-.6.21.21,0,0,0-.1-.19C180.78,405.46,179,406.14,177.63,406.76Z" style="fill: rgb(111, 207, 150); transform-origin: 179.296px 406.304px;" id="elno4cyzik7l" class="animable"></path><path d="M177.05,407a.2.2,0,0,1-.11,0,.18.18,0,0,1-.08-.18c0-.14.48-3.32,2.22-3.32h.15c.5.05.64.3.67.51.14.88-1.8,2.58-2.78,3Zm2-3.16c-1.13,0-1.63,1.84-1.8,2.64,1-.59,2.33-1.92,2.25-2.45,0,0,0-.16-.35-.19Z" style="fill: rgb(111, 207, 150); transform-origin: 178.382px 405.255px;" id="elh0c5tx9994k" class="animable"></path><path d="M207.23,156.29l1.57-.14S207.81,157.17,207.23,156.29Z" style="fill: rgb(38, 50, 56); transform-origin: 208.015px 156.399px;" id="elox1g3sk9c3a" class="animable"></path><path d="M200.36,192.54c-13-4.93-17.06-12.31-16.75-13.86h0l2,.12.34,0c.48,0,1,.07,1.49.13.92.08,1.87.18,2.83.31l1,.14a100.71,100.71,0,0,1,14.14,2.75c2.12.62,2.82.82,4,1.24l1.05.38.42.16C211.92,186.15,211.69,190.73,200.36,192.54Z" style="fill: rgb(228, 137, 123); transform-origin: 197.436px 185.61px;" id="elg6cwsnqp8z" class="animable"></path><path d="M200.36,192.54c-13-4.93-17.06-12.31-16.75-13.86h0l2,.12.34,0c2.64,3.75,8.42,8.93,14.31,9.64,4.74-1,9.21-2.14,9.17-5.07l1.05.38.42.16C211.92,186.15,211.69,190.73,200.36,192.54Z" style="fill: rgb(111, 207, 150); transform-origin: 197.44px 185.61px;" id="elrbp6i2brghn" class="animable"></path><g id="el9in7n5tziau"><path d="M200.36,192.54c-13-4.93-17.06-12.31-16.75-13.86h0l2,.12.34,0c2.64,3.75,8.42,8.93,14.31,9.64,4.74-1,9.21-2.14,9.17-5.07l1.05.38.42.16C211.92,186.15,211.69,190.73,200.36,192.54Z" style="opacity: 0.3; transform-origin: 197.44px 185.61px;" class="animable"></path></g><path d="M174.09,224.21l-2,2.52c-.15.19.07.46.43.53l32.66,6.36c.28.06.54,0,.59-.21l.82-2.73c.06-.19-.15-.4-.46-.46l-31.54-6.14A.58.58,0,0,0,174.09,224.21Z" style="fill: rgb(38, 50, 56); transform-origin: 189.321px 228.855px;" id="elsxehwo6604i" class="animable"></path><path d="M177.64,228.56l-.84-.16c-.17,0-.28-.14-.25-.25l1.1-3.54c0-.11.2-.16.36-.13l.85.16c.17,0,.28.15.25.25l-1.1,3.55A.32.32,0,0,1,177.64,228.56Z" style="fill: rgb(111, 207, 150); transform-origin: 177.83px 226.525px;" id="elunqsu93kzs" class="animable"></path><g id="el2qoqnod3plr"><path d="M177.64,228.56l-.84-.16c-.17,0-.28-.14-.25-.25l1.1-3.54c0-.11.2-.16.36-.13l.85.16c.17,0,.28.15.25.25l-1.1,3.55A.32.32,0,0,1,177.64,228.56Z" style="opacity: 0.3; transform-origin: 177.83px 226.525px;" class="animable"></path></g><path d="M179.86,190.61c-.38,2.37-.74,5-1,7.46s-.49,5-.61,7.56q-.1,1.89-.12,3.78c0,1.25,0,2.5,0,3.75a63.85,63.85,0,0,0,.57,7.32,7,7,0,0,0,1,2.33,23.63,23.63,0,0,0,2,2.78,62.78,62.78,0,0,0,5.12,5.39c1.83,1.76,3.75,3.46,5.72,5.12s4,3.31,6,4.9l-2.15,3.32a104.32,104.32,0,0,1-13.46-8.79,57.61,57.61,0,0,1-6.2-5.5,28.62,28.62,0,0,1-2.83-3.41,13,13,0,0,1-2.21-4.79l-.37-2.12c-.13-.69-.22-1.38-.3-2.06-.2-1.38-.31-2.75-.42-4.12a77.34,77.34,0,0,1-.19-8.19c.08-2.71.23-5.41.5-8.1s.61-5.33,1.15-8.11Z" style="fill: rgb(228, 137, 123); transform-origin: 184.458px 216.725px;" id="elybebnwtsreh" class="animable"></path><path d="M173.22,180.63c-4.28,3.46-3.26,13.74-3.26,13.74l14.4,4.74S183.7,187.26,183,183C182.14,177.93,177.42,177.22,173.22,180.63Z" style="fill: rgb(38, 50, 56); transform-origin: 177.107px 188.82px;" id="el84u580ihnzw" class="animable"></path><path d="M196.78,240.36l6.51-2.42-1,6.19s-4.72,1.7-7.14-.48Z" style="fill: rgb(228, 137, 123); transform-origin: 199.22px 241.351px;" id="el81172utcgr2" class="animable"></path><polygon points="211.04 238.86 211.04 243.64 202.29 244.13 203.29 237.94 211.04 238.86" style="fill: rgb(228, 137, 123); transform-origin: 206.665px 241.035px;" id="el699bpacta84" class="animable"></polygon><path d="M202.79,233.46l-.84-.16c-.17,0-.28-.14-.25-.25l1.1-3.54c0-.11.2-.16.37-.13l.84.16c.17,0,.28.15.25.25l-1.1,3.55C203.13,233.44,203,233.5,202.79,233.46Z" style="fill: rgb(111, 207, 150); transform-origin: 202.98px 231.422px;" id="el6dmkw9xo2s7" class="animable"></path><g id="eljmuw553q6b"><path d="M202.79,233.46l-.84-.16c-.17,0-.28-.14-.25-.25l1.1-3.54c0-.11.2-.16.37-.13l.84.16c.17,0,.28.15.25.25l-1.1,3.55C203.13,233.44,203,233.5,202.79,233.46Z" style="opacity: 0.3; transform-origin: 202.98px 231.422px;" class="animable"></path></g><path d="M190.22,231l-.85-.16c-.17,0-.28-.14-.24-.25l1.1-3.54c0-.11.19-.16.36-.13l.85.16c.16,0,.28.15.24.25l-1.1,3.55C190.55,231,190.39,231.05,190.22,231Z" style="fill: rgb(111, 207, 150); transform-origin: 190.405px 228.965px;" id="elskptshhix7a" class="animable"></path><g id="elq0yfdc9s4ve"><path d="M190.22,231l-.85-.16c-.17,0-.28-.14-.24-.25l1.1-3.54c0-.11.19-.16.36-.13l.85.16c.16,0,.28.15.24.25l-1.1,3.55C190.55,231,190.39,231.05,190.22,231Z" style="opacity: 0.3; transform-origin: 190.405px 228.965px;" class="animable"></path></g><path d="M126.53,289.31l51.84,113.22a10.73,10.73,0,0,0,14.18,5.27l8.23-3.76,190.57-87.25a10.72,10.72,0,0,0,5.28-14.17l-45.81-100-6-13.21a10.74,10.74,0,0,0-14.18-5.27l-198.81,91A10.74,10.74,0,0,0,126.53,289.31Z" style="fill: rgb(111, 207, 150); transform-origin: 261.585px 295.972px;" id="el2oebl0198ie" class="animable"></path><g id="elxun3zspn9"><path d="M126.53,289.31l51.84,113.22a10.73,10.73,0,0,0,14.18,5.27l8.23-3.76,190.57-87.25a10.72,10.72,0,0,0,5.28-14.17l-45.81-100-6-13.21a10.74,10.74,0,0,0-14.18-5.27l-198.81,91A10.74,10.74,0,0,0,126.53,289.31Z" style="fill: rgb(255, 255, 255); opacity: 0.1; transform-origin: 261.585px 295.972px;" class="animable"></path></g><g id="elw7pozp7ybi"><rect x="149.45" y="282.52" width="240.04" height="61.36" style="fill: rgb(111, 207, 150); transform-origin: 269.47px 313.2px; transform: rotate(155.4deg);" class="animable"></rect></g><g id="elyyc4bxwe5er"><rect x="149.45" y="282.52" width="240.04" height="61.36" style="fill: rgb(255, 255, 255); opacity: 0.3; transform-origin: 269.47px 313.2px; transform: rotate(155.4deg);" class="animable"></rect></g><g id="el1uz23zav6kd"><rect x="216.54" y="291.72" width="151.69" height="21.96" style="fill: rgb(111, 207, 150); transform-origin: 292.385px 302.7px; transform: rotate(155.4deg);" class="animable"></rect></g><g id="eltdq4qjbq6kp"><rect x="216.54" y="291.72" width="151.69" height="21.96" style="fill: rgb(255, 255, 255); opacity: 0.8; transform-origin: 292.385px 302.7px; transform: rotate(155.4deg);" class="animable"></rect></g><g id="eloijdbk8leya"><rect x="134.75" y="264.71" width="240.04" height="32.74" style="fill: rgb(111, 207, 150); transform-origin: 254.77px 281.08px; transform: rotate(155.4deg);" class="animable"></rect></g><g id="elwv1lt312cr"><rect x="134.75" y="264.71" width="240.04" height="32.74" style="opacity: 0.3; transform-origin: 254.77px 281.08px; transform: rotate(155.4deg);" class="animable"></rect></g><path d="M156.17,290.73,200.78,404l190.57-87.25a10.72,10.72,0,0,0,5.28-14.17l-45.81-100L162.21,276.86A10.73,10.73,0,0,0,156.17,290.73Z" style="fill: rgb(111, 207, 150); mix-blend-mode: multiply; transform-origin: 276.513px 303.29px;" id="elf54huxfpz5u" class="animable"></path><g id="elkzzmo43btp"><rect x="408.21" y="254.99" width="1" height="4.71" style="fill: rgb(111, 207, 150); transform-origin: 408.71px 257.345px; transform: rotate(-19.36deg);" class="animable"></rect></g><g id="ellzjswp594i"><rect x="408.21" y="254.99" width="1" height="4.71" style="fill: rgb(255, 255, 255); opacity: 0.1; transform-origin: 408.71px 257.345px; transform: rotate(-19.36deg);" class="animable"></rect></g><g id="elyow2xtjp98d"><rect x="402.64" y="232.21" width="1" height="18.56" style="fill: rgb(111, 207, 150); transform-origin: 403.14px 241.49px; transform: rotate(-19.35deg);" class="animable"></rect></g><g id="elzrvr8zxsab"><rect x="402.64" y="232.21" width="1" height="18.56" style="fill: rgb(255, 255, 255); opacity: 0.1; transform-origin: 403.14px 241.49px; transform: rotate(-19.35deg);" class="animable"></rect></g><path d="M169.44,277.25l206.3-72.45a10.72,10.72,0,0,1,13.63,6.55l41.26,117.49a10.73,10.73,0,0,1-6.54,13.64l-206.3,72.45a10.74,10.74,0,0,1-13.64-6.55L162.89,290.89A10.73,10.73,0,0,1,169.44,277.25Z" style="fill: rgb(111, 207, 150); transform-origin: 296.761px 309.864px;" id="elpxf5y2jkcze" class="animable"></path><g id="elbwdjl15gb2n"><path d="M169.44,277.25l206.3-72.45a10.72,10.72,0,0,1,13.63,6.55l41.26,117.49a10.73,10.73,0,0,1-6.54,13.64l-206.3,72.45a10.74,10.74,0,0,1-13.64-6.55L162.89,290.89A10.73,10.73,0,0,1,169.44,277.25Z" style="fill: rgb(255, 255, 255); opacity: 0.1; transform-origin: 296.761px 309.864px;" class="animable"></path></g><g id="elkqb2ecbp3n"><rect x="180.88" y="294.55" width="240.04" height="54.17" style="fill: rgb(111, 207, 150); transform-origin: 300.9px 321.635px; transform: rotate(160.65deg);" class="animable"></rect></g><g id="elol0sxzyu5p9"><rect x="180.88" y="294.55" width="240.04" height="54.17" style="fill: rgb(255, 255, 255); opacity: 0.3; transform-origin: 300.9px 321.635px; transform: rotate(160.65deg);" class="animable"></rect></g><g id="elodn6sgjos1"><rect x="331.11" y="239.45" width="49.62" height="7.73" style="fill: rgb(111, 207, 150); transform-origin: 355.92px 243.315px; transform: rotate(160.65deg);" class="animable"></rect></g><g id="elgidlv372j0g"><rect x="331.11" y="239.45" width="49.62" height="7.73" style="fill: rgb(255, 255, 255); opacity: 0.8; transform-origin: 355.92px 243.315px; transform: rotate(160.65deg);" class="animable"></rect></g><g id="el2f2vghxqznt"><rect x="371.4" y="327.25" width="39.81" height="4.04" style="fill: rgb(111, 207, 150); transform-origin: 391.305px 329.27px; transform: rotate(160.65deg);" class="animable"></rect></g><g id="elhtu2ly6towu"><rect x="371.4" y="327.25" width="39.81" height="4.04" style="fill: rgb(255, 255, 255); opacity: 0.8; transform-origin: 391.305px 329.27px; transform: rotate(160.65deg);" class="animable"></rect></g><g id="elrclrrdc70or"><rect x="362.79" y="336.44" width="51.3" height="4.04" style="fill: rgb(111, 207, 150); transform-origin: 388.44px 338.46px; transform: rotate(160.65deg);" class="animable"></rect></g><g id="ellsm2x6bo0ya"><rect x="362.79" y="336.44" width="51.3" height="4.04" style="fill: rgb(255, 255, 255); opacity: 0.8; transform-origin: 388.44px 338.46px; transform: rotate(160.65deg);" class="animable"></rect></g><g id="elwt76bxns9tk"><rect x="215.9" y="387.74" width="25.65" height="8.69" style="fill: rgb(111, 207, 150); transform-origin: 228.725px 392.085px; transform: rotate(160.65deg);" class="animable"></rect></g><g id="elohiqx0gx14i"><rect x="215.9" y="387.74" width="25.65" height="8.69" style="fill: rgb(255, 255, 255); opacity: 0.8; transform-origin: 228.725px 392.085px; transform: rotate(160.65deg);" class="animable"></rect></g><path d="M368.79,313.5l28.26-9.92a6,6,0,0,0,3.66-7.61h0a6,6,0,0,0-7.61-3.66l-28.27,9.93a6,6,0,0,0-3.66,7.61h0A6,6,0,0,0,368.79,313.5Z" style="fill: rgb(111, 207, 150); transform-origin: 380.94px 302.907px;" id="elfi41fv7lp9d" class="animable"></path><path d="M320.38,330.5l28.27-9.93A6,6,0,0,0,352.3,313h0a6,6,0,0,0-7.61-3.65l-28.26,9.93a6,6,0,0,0-3.66,7.61h0A6,6,0,0,0,320.38,330.5Z" style="fill: rgb(111, 207, 150); transform-origin: 332.529px 319.927px;" id="elonekfjapyzo" class="animable"></path><path d="M272,347.5l28.27-9.93A6,6,0,0,0,303.9,330h0a6,6,0,0,0-7.61-3.65L268,336.24a6,6,0,0,0-3.65,7.61h0A6,6,0,0,0,272,347.5Z" style="fill: rgb(111, 207, 150); transform-origin: 284.12px 336.931px;" id="elfp6ava8xhza" class="animable"></path><path d="M223.57,364.5l28.27-9.93A6,6,0,0,0,255.5,347h0a6,6,0,0,0-7.61-3.65l-28.27,9.93a6,6,0,0,0-3.66,7.61h0A6,6,0,0,0,223.57,364.5Z" style="fill: rgb(111, 207, 150); transform-origin: 235.724px 353.927px;" id="elxxi7cje2ni8" class="animable"></path><g id="elif9jc45cd2"><g style="opacity: 0.8; transform-origin: 308.335px 328.408px;" class="animable"><path d="M368.79,313.5l28.26-9.92a6,6,0,0,0,3.66-7.61h0a6,6,0,0,0-7.61-3.66l-28.27,9.93a6,6,0,0,0-3.66,7.61h0A6,6,0,0,0,368.79,313.5Z" style="fill: rgb(255, 255, 255); transform-origin: 380.94px 302.907px;" id="el5djarh1yjls" class="animable"></path><path d="M320.38,330.5l28.27-9.93A6,6,0,0,0,352.3,313h0a6,6,0,0,0-7.61-3.65l-28.26,9.93a6,6,0,0,0-3.66,7.61h0A6,6,0,0,0,320.38,330.5Z" style="fill: rgb(255, 255, 255); transform-origin: 332.529px 319.927px;" id="elu986fyqrlf" class="animable"></path><path d="M272,347.5l28.27-9.93A6,6,0,0,0,303.9,330h0a6,6,0,0,0-7.61-3.65L268,336.24a6,6,0,0,0-3.65,7.61h0A6,6,0,0,0,272,347.5Z" style="fill: rgb(255, 255, 255); transform-origin: 284.12px 336.931px;" id="el4hfsrld4lsd" class="animable"></path><path d="M223.57,364.5l28.27-9.93A6,6,0,0,0,255.5,347h0a6,6,0,0,0-7.61-3.65l-28.27,9.93a6,6,0,0,0-3.66,7.61h0A6,6,0,0,0,223.57,364.5Z" style="fill: rgb(255, 255, 255); transform-origin: 235.724px 353.927px;" id="elz2i59ys73xh" class="animable"></path></g></g><g id="elf2mj2ymvioj"><rect x="357.45" y="263.01" width="34.86" height="24.02" rx="4.1" style="fill: rgb(111, 207, 150); transform-origin: 374.88px 275.02px; transform: rotate(160.65deg);" class="animable"></rect></g><g id="elh4uamzy2j07"><rect x="357.45" y="263.01" width="34.86" height="24.02" rx="4.1" style="opacity: 0.3; transform-origin: 374.88px 275.02px; transform: rotate(160.65deg);" class="animable"></rect></g><path d="M218,306.21a14.48,14.48,0,1,1,4.8-.82A14.43,14.43,0,0,1,218,306.21Zm0-28a13.75,13.75,0,0,0-4.51.77,13.58,13.58,0,0,0-8.31,17.31h0a13.57,13.57,0,1,0,12.82-18.08Z" style="fill: rgb(111, 207, 150); transform-origin: 217.996px 291.73px;" id="elt38tcy0m4i9" class="animable"></path><g id="eludescfk0b"><path d="M218,306.21a14.48,14.48,0,1,1,4.8-.82A14.43,14.43,0,0,1,218,306.21Zm0-28a13.75,13.75,0,0,0-4.51.77,13.58,13.58,0,0,0-8.31,17.31h0a13.57,13.57,0,1,0,12.82-18.08Z" style="fill: rgb(255, 255, 255); opacity: 0.8; transform-origin: 217.996px 291.73px;" class="animable"></path></g><path d="M184.08,303.67a14,14,0,1,0,8.58-17.88A14,14,0,0,0,184.08,303.67Z" style="fill: rgb(111, 207, 150); transform-origin: 197.28px 299.006px;" id="elb8irrnmi2nk" class="animable"></path><g id="ele0a347tp0qc"><path d="M184.08,303.67a14,14,0,1,0,8.58-17.88A14,14,0,0,0,184.08,303.67Z" style="fill: rgb(255, 255, 255); opacity: 0.8; transform-origin: 197.28px 299.006px;" class="animable"></path></g></g><defs>     <filter id="active" height="200%">         <feMorphology in="SourceAlpha" result="DILATED" operator="dilate" radius="2"></feMorphology>                <feFlood flood-color="#32DFEC" flood-opacity="1" result="PINK"></feFlood>        <feComposite in="PINK" in2="DILATED" operator="in" result="OUTLINE"></feComposite>        <feMerge>            <feMergeNode in="OUTLINE"></feMergeNode>            <feMergeNode in="SourceGraphic"></feMergeNode>        </feMerge>    </filter>    <filter id="hover" height="200%">        <feMorphology in="SourceAlpha" result="DILATED" operator="dilate" radius="2"></feMorphology>                <feFlood flood-color="#ff0000" flood-opacity="0.5" result="PINK"></feFlood>        <feComposite in="PINK" in2="DILATED" operator="in" result="OUTLINE"></feComposite>        <feMerge>            <feMergeNode in="OUTLINE"></feMergeNode>            <feMergeNode in="SourceGraphic"></feMergeNode>        </feMerge>            <feColorMatrix type="matrix" values="0   0   0   0   0                0   1   0   0   0                0   0   0   0   0                0   0   0   1   0 "></feColorMatrix>    </filter></defs></svg>